<?xml version="1.0" standalone="no"?>
<!DOCTYPE svg PUBLIC "-//W3C//DTD SVG 1.1//EN" "http://www.w3.org/Graphics/SVG/1.1/DTD/svg11.dtd" >
<svg xmlns="http://www.w3.org/2000/svg" xmlns:xlink="http://www.w3.org/1999/xlink" version="1.1">
<metadata></metadata>
<defs>
<font id="aubergescriptbasiuploadedfile" horiz-adv-x="591" >
<font-face units-per-em="2048" ascent="1141" descent="-907" />
<missing-glyph horiz-adv-x="368" />
<glyph horiz-adv-x="0" />
<glyph unicode="&#xd;" horiz-adv-x="681" />
<glyph unicode=" "  horiz-adv-x="368" />
<glyph unicode="&#x09;" horiz-adv-x="368" />
<glyph unicode="&#xa0;" horiz-adv-x="368" />
<glyph unicode="!" horiz-adv-x="587" d="M125 35q0 22 15 43q14 20 38 20q39 0 39 -37q0 -23 -16 -43t-39 -20q-37 0 -37 37zM223 201l547 1294h10q27 0 46 4q26 6 30 8l10 2l6 -2l-632 -1314z" />
<glyph unicode="&#x22;" horiz-adv-x="419" d="M371 848l108 252q51 5 60 14h12l-164 -274zM516 848l109 252q50 4 59 14h12l-164 -274z" />
<glyph unicode="#" horiz-adv-x="772" d="M147 309l9 17l159 -2l97 227q-59 0 -110 0.5t-74 0.5l-23 1l8 16l207 -2l96 228l12 -4l-88 -224h228l92 228l12 -4l-82 -224h156l-8 -16h-154l-82 -227h186l-8 -17h-184l-86 -235l-37 4l92 231h-227l-92 -235l-37 4l98 231q-41 0 -79.5 0.5t-57.5 1t-23 0.5zM344 324h227 l91 227h-228z" />
<glyph unicode="$" horiz-adv-x="790" d="M43 -117q53 17 141 111q-92 56 -92 174q0 128 79 201t175 73q71 0 117 -41l47 80q-68 103 -68 189q0 126 95 204t202 78q37 0 66 -10q51 66 100 113l8 -11q-41 -41 -92 -108q66 -28 66 -98q0 -34 -20 -62q-19 -26 -48 -26q-26 0 -41 15q-14 14 -14 36q0 21 12 33 q3 0 6 -1l6 -2q43 0 43 39q0 30 -22 48q-86 -115 -244 -381q105 -131 105 -207q0 -171 -111 -270t-246 -99q-65 0 -116 27q-88 -96 -152 -117zM145 184q0 -108 62 -164q88 106 244 359q-35 45 -99 45q-77 0 -142 -65t-65 -175zM219 12q38 -26 92 -26q99 0 181 88 q81 87 81 233q0 71 -51 156l-47 -76q35 -40 35 -102q0 -64 -57 -100q-55 -35 -131 -35q-60 -90 -103 -138zM338 172q56 6 94 43q39 37 39 94q0 27 -10 53q-59 -96 -123 -190zM483 717q0 -67 70 -164q160 264 242 375q-23 10 -50 10q-104 0 -182 -62q-80 -63 -80 -159z" />
<glyph unicode="%" horiz-adv-x="712" d="M145 -33l461 670q-27 -6 -98 -6h-62v-8q0 -120 -74 -207q-75 -88 -145 -88q-67 0 -67 88q0 145 170 274l2 -14q-53 -41 -88 -108t-35 -136q0 -76 43 -76q47 0 107 78q61 79 61 150q0 24 -10 47q-56 0 -56 43q0 33 35 33q43 0 55 -60h25q109 0 152 12l12 -8l-445 -680z M410 72q0 80 72 183t151 103q63 0 63 -79q0 -119 -74 -206q-75 -89 -145 -89q-67 0 -67 88zM459 88q0 -76 43 -76q61 0 109 86q48 85 48 166q0 74 -47 74q-53 0 -103 -92t-50 -158z" />
<glyph unicode="&#x26;" horiz-adv-x="987" d="M37 252q0 62 29 126q28 62 62 105q37 47 104 101q73 59 112 85q10 6 52.5 34.5t74.5 50.5q17 262 97 430q81 170 210 170q42 0 67 -30q25 -29 25 -87q0 -79 -26 -143q-27 -65 -85 -125q-57 -58 -107 -99q-48 -39 -132 -96v-16q0 -115 17 -256q91 88 202 88q79 0 123 -51 q43 -50 43 -133q0 -120 -65 -217q-65 -98 -174 -166q85 -192 210 -304t287 -112q73 0 131 17q62 18 122 60t93 69q40 33 97 87l8 -6q-265 -278 -520 -278q-172 0 -299 114q-127 113 -207 310q-124 -56 -238 -56q-137 0 -225 82t-88 246zM125 276q0 -147 86 -224t213 -77 q76 0 154 29q-68 177 -95 402q-30 -62 -30 -121v-6l-15 -3q0 79 41 152q-10 113 -10 213q0 54 2 98q-84 -56 -131 -95q-52 -42 -106 -98q-53 -55 -82 -125q-27 -66 -27 -145zM520 788q135 97 215 193q76 91 76 209q0 53 -19 79q-19 27 -53 27q-100 0 -157 -142 q-58 -144 -62 -366zM539 485q38 -258 116 -440q168 114 168 320q0 62 -47 121t-112 59t-125 -60z" />
<glyph unicode="'" horiz-adv-x="274" d="M371 848l108 252q51 5 60 14h12l-164 -274z" />
<glyph unicode="(" horiz-adv-x="446" d="M162 209q0 247 114 504q113 255 325 465q211 209 468 305l8 -10q-233 -83 -433 -295q-202 -214 -317 -482q-116 -270 -116 -518q0 -337 215 -526l-16 -17q-248 213 -248 574z" />
<glyph unicode=")" horiz-adv-x="581" d="M-291 -354q233 83 433 295q204 216 318 481q115 267 115 518q0 337 -215 526l17 17q248 -213 248 -574q0 -244 -115 -503q-113 -255 -325 -465q-212 -211 -468 -306z" />
<glyph unicode="*" horiz-adv-x="659" d="M170 422v16l147 -16l-88 110l39 31l74 -112l29 118l37 -8l-41 -131l135 84l8 -12l-137 -86l157 -17v-16l-155 16l94 -141l-12 -8l-105 131l-47 -150l-16 5l37 151l-138 -86l-8 12l146 90z" />
<glyph unicode="+" horiz-adv-x="659" d="M158 403l8 17h291l131 270l16 -8l-127 -262q82 0 153 0.5t103 1t33 0.5l-8 -16l-289 -3l-152 -311l-16 8l148 303h-291z" />
<glyph unicode="," horiz-adv-x="307" d="M-23 -127q136 63 136 127q0 18 -29 29q0 22 15 43q14 20 38 20q39 0 39 -43q0 -41 -51 -95t-145 -91z" />
<glyph unicode="-" horiz-adv-x="745" d="M152 268q68 74 143 74q51 0 140 -47t132 -47q52 0 101 49l12 -12q-89 -74 -168 -74q-56 0 -141 44t-121 44q-46 0 -86 -39z" />
<glyph unicode="." horiz-adv-x="307" d="M84 29q0 22 15 43q14 20 38 20q39 0 39 -37q0 -23 -16 -43t-39 -20q-37 0 -37 37z" />
<glyph unicode="/" horiz-adv-x="749" d="M27 -197l1040 1563l12 -8l-1040 -1563z" />
<glyph unicode="0" horiz-adv-x="550" d="M66 152q0 149 97 292q99 146 240 252l3 -18q-110 -85 -186 -223q-75 -137 -75 -273q0 -164 93 -164q78 0 184 115q103 112 143 246q13 47 13 88q0 70 -32 123t-95 65q0 30 19 53t52 23q55 0 85 -52q30 -53 30 -116q0 -223 -153 -402t-291 -179q-127 0 -127 170z" />
<glyph unicode="1" horiz-adv-x="323" d="M33 0l452 850q-167 -186 -252 -186q-43 0 -43 32q0 22 17 39q22 -16 49 -16q94 0 256 178l8 -4l-393 -893h-94z" />
<glyph unicode="2" horiz-adv-x="593" d="M-57 20q0 51 94 111q93 59 215 59q44 0 88 -10q119 109 206 249q85 137 85 249q0 82 -37 138t-109 56q-85 0 -151 -89t-66 -173q0 -56 35 -96q35 -39 88 -39q47 0 81 34q36 36 75 101l14 -10q-52 -88 -107 -135t-130 -47q-52 0 -83 34q-32 35 -32 89q0 125 114 250 q114 124 230 124q69 0 115 -48q47 -49 47 -134q0 -110 -104 -270t-251 -289q94 -30 160 -108l62 55l12 -2l-150 -139q-2 0 -15 29q-13 30 -42 69t-65 61q-189 -153 -322 -153q-57 0 -57 34zM25 66q0 -33 55 -33q86 0 225 117q-40 22 -96 22q-52 0 -118 -33t-66 -73z" />
<glyph unicode="3" horiz-adv-x="550" d="M20 123q0 39 28 70q27 30 69 30q28 0 43 -14q16 -15 16 -35q0 -21 -14 -35q-30 0 -50 -15t-20 -40q0 -44 36 -69q35 -25 85 -25q128 0 207 110q80 112 80 234q0 68 -30 111q-30 44 -85 44q-33 0 -68 -9q-36 -9 -55 -19l-18 -10v12l461 401q-48 -31 -130 -61 q-79 -29 -131 -29t-88 25q-31 -19 -61 -32q-42 -18 -55 -22l-21 -8l-6 6q75 26 135 64q-29 23 -29 65q0 26 21 43q22 17 45 17q45 0 45 -39v-8q-4 -15 -12 -31q0 -2 -1 -2t-1 -2q34 -37 92 -37q51 0 132 32q77 31 126 73l8 -5l-436 -387l2 -6q45 25 94 25q78 0 117 -44 q39 -43 39 -114q0 -135 -115 -273q-114 -137 -270 -137q-70 0 -127 39q-58 40 -58 107z" />
<glyph unicode="4" horiz-adv-x="567" d="M6 166q140 147 292 370q149 219 206 390h119q-180 -260 -267 -377q-34 -45 -52 -66q-30 -35 -96 -111q-99 -114 -136 -159q96 39 151 39q26 0 50 -7q27 -8 59 -21q4 -2 45 -17q111 176 139 229l10 -8l-94 -231h6q61 0 107 25q47 26 47 69q0 7 -8 33q10 12 26 12 q25 0 25 -27q0 -54 -64 -89q-62 -34 -120 -34h-23l-76 -186h-104l121 190q-172 23 -179 23q-98 0 -139 -20l-33 -27h-12z" />
<glyph unicode="5" horiz-adv-x="546" d="M20 123q0 39 28 70q27 30 69 30q28 0 43 -14q16 -15 16 -35q0 -21 -14 -35q-30 0 -50 -15t-20 -40q0 -44 36 -69q35 -25 85 -25q128 0 207 110q80 112 80 234q0 68 -30 111q-30 44 -85 44q-31 0 -66 -8q-28 -6 -49 -16l-14 -8l-12 6q25 49 71 164q53 134 84 209 q38 93 41 96q77 -80 185 -80t186 92l8 -8q-150 -150 -272 -150q-73 0 -129 56l-144 -344q85 47 160 47q78 0 117 -44q39 -43 39 -114q0 -135 -115 -273q-114 -137 -270 -137q-70 0 -127 39q-58 40 -58 107z" />
<glyph unicode="6" horiz-adv-x="571" d="M66 193q0 87 42 211q42 125 112 244q71 122 178 203q109 83 223 83q71 0 119 -39t48 -104q0 -40 -27 -70q-28 -31 -69 -31q-29 0 -44 15t-15 34q0 21 14 35q29 0 50 16q20 15 20 39q0 40 -27 64t-76 24q-121 0 -228 -103q-106 -102 -170 -270q-62 -164 -62 -349 q0 -90 31 -133q32 -44 83 -44q90 0 156 92q65 90 65 189q0 66 -29 101q-30 36 -75 36q-49 0 -96 -42q-48 -43 -70 -115l-8 4q23 97 91 153q70 58 140 58q54 0 88 -37q35 -38 35 -107q0 -126 -104 -249q-105 -124 -244 -124q-151 0 -151 216z" />
<glyph unicode="7" horiz-adv-x="532" d="M111 0l604 866q-25 -25 -74 -47q-44 -20 -86 -20q-38 0 -106 37q-66 36 -111 36q-54 0 -91 -46q-38 -47 -38 -101q0 -45 31 -76t94 -31q33 0 75 27t58 70l8 -4q-13 -32 -52 -67q-41 -36 -99 -36q-63 0 -97 32q-32 31 -32 81q0 73 63 136t162 63q41 0 99 -37t91 -37 q61 0 156 80l-533 -926h-122z" />
<glyph unicode="8" horiz-adv-x="571" d="M45 139q0 59 25 114q23 51 75 95q49 42 96 71q41 26 115 64q-59 90 -59 168q0 76 50 146q49 68 128 106l2 -16q-123 -61 -123 -160q0 -85 78 -207q78 42 114 66q42 27 87 82q43 52 43 110q0 29 -21 47q-22 19 -47 19q-30 0 -49 -25q-16 17 -16 47q0 28 18 49t49 21 q53 0 83 -33t30 -86t-25 -103q-23 -46 -71 -88t-87 -65q-52 -31 -98 -55q1 -4 20 -32q15 -22 20 -35l3 -6t6.5 -11t7.5 -13q12 -21 17 -35q1 -4 4.5 -14.5t6.5 -17.5q9 -25 10 -39q2 -24 2 -37q0 -131 -95 -209q-93 -77 -211 -77q-83 0 -135 40q-53 41 -53 119zM115 162 q0 -79 43 -119q44 -41 106 -41q81 0 143 61t62 166q0 21 -3 39q-4 21 -10 38q-8 20 -12 33q-6 18 -18 36q-6 9 -18 29q-7 12 -22 33q-17 24 -19 30q-51 -25 -97 -55q-29 -19 -76 -62q-40 -38 -60 -84q-19 -45 -19 -104z" />
<glyph unicode="9" horiz-adv-x="612" d="M37 121q0 38 28 69t68 31q28 0 43 -14q17 -15 17 -35t-15 -35q-30 0 -50 -15q-19 -15 -19 -40q0 -41 26 -64q27 -24 76 -24q188 0 314 218t126 505q0 89 -31 132q-32 44 -83 44q-90 0 -156 -91q-66 -92 -66 -190q0 -65 30 -101t75 -36q50 0 96 42q48 43 70 116l8 -4 q-23 -98 -91 -154q-69 -57 -141 -57q-54 0 -88 37t-34 106q0 126 104 249q105 124 244 124q151 0 151 -215q0 -87 -39 -212q-39 -123 -105 -244t-171 -203q-106 -83 -219 -83q-72 0 -120 39t-48 105z" />
<glyph unicode=":" horiz-adv-x="342" d="M84 29q0 22 15 43q14 20 38 20q39 0 39 -37q0 -23 -16 -43t-39 -20q-37 0 -37 37zM213 309q0 22 15 43t38 21q39 0 39 -37q0 -23 -16 -43q-17 -21 -39 -21q-37 0 -37 37z" />
<glyph unicode=";" horiz-adv-x="342" d="M-23 -127q136 63 136 127q0 18 -29 29q0 22 15 43q14 20 38 20q39 0 39 -43q0 -41 -51 -95t-145 -91zM223 309q0 21 16 43q15 21 37 21q39 0 39 -37q0 -23 -16 -43q-17 -21 -39 -21q-37 0 -37 37z" />
<glyph unicode="&#x3c;" horiz-adv-x="692" d="M188 422l9 14l551 195l4 -17l-539 -190l385 -268l-8 -15z" />
<glyph unicode="=" horiz-adv-x="806" d="M154 289l8 16l559 2l-8 -16q-153 0 -289 -0.5t-199.5 -1t-70.5 -0.5zM221 461l8 16l559 2l-8 -16q-148 0 -283 -0.5t-200 -1t-76 -0.5z" />
<glyph unicode="&#x3e;" horiz-adv-x="692" d="M135 158l537 190l-383 268l8 15l401 -281l-8 -14l-551 -195z" />
<glyph unicode="?" horiz-adv-x="587" d="M78 987q0 128 97 249t239 192t270 71q129 0 206 -86t77 -211q0 -105 -71 -211q-68 -102 -171 -186q-101 -83 -201 -159q-99 -76 -171 -158q-70 -80 -70 -152q0 -27 20 -27q14 0 33 19q26 -33 26 -64q0 -28 -24 -45q-23 -16 -57 -16q-39 0 -65 20q-28 22 -28 58 q0 87 72 175t174 168q16 12 91 70t115 90q103 82 175 187t72 213q0 116 -72 198t-192 82q-168 0 -322 -137t-154 -323q0 -101 58 -151t143 -50q110 0 204 73q93 72 93 181q0 112 -119 112q-67 0 -118 -52q-51 -53 -66 -132l-10 2q6 82 82 153q76 72 159 72q55 0 91 -29 t36 -85q0 -136 -129 -232t-272 -96q-99 0 -160 54t-61 163zM125 35q0 22 15 43q14 20 38 20q39 0 39 -37q0 -23 -16 -43t-39 -20q-37 0 -37 37z" />
<glyph unicode="@" horiz-adv-x="966" d="M-2 18q0 164 131 312q129 146 305 226q173 79 324 79q101 0 160 -43t59 -129q0 -139 -132 -304t-231 -165q-42 0 -65 17q-25 19 -25 44t19 80q-133 -153 -252 -153q-82 0 -82 84q0 114 126 261q125 146 261 146q54 0 84 -41q6 16 22 43h76q-7 -19 -54 -118 q-46 -96 -82 -179t-36 -102q0 -49 39 -49q69 0 164 143q96 144 96 266q0 84 -55 126t-148 42q-90 0 -199 -41q-108 -41 -202 -112t-157 -180q-62 -106 -62 -228q0 -125 65 -183q67 -59 175 -59q176 0 378 123l5 -14q-228 -143 -441 -143q-122 0 -193 61q-73 62 -73 190z M287 88q0 -74 59 -74q21 0 49 14t52 35q36 31 47 42q18 17 40 42q5 6 10.5 12.5t8.5 10t4 4.5q21 53 82 174q-5 43 -34 63q-30 21 -68 21q-85 0 -168 -123q-82 -122 -82 -221z" />
<glyph unicode="A" horiz-adv-x="1722" d="M-96 1245q0 105 47 210q46 103 134 192q87 88 230 142q144 54 320 54q113 0 243 -43q135 -44 236 -95t245 -95q139 -43 265 -43q196 0 397 82l4 -11q-199 -251 -350 -731q-149 -474 -149 -846q0 -346 131 -454l-12 -15q-228 114 -228 498q0 230 82 524h-375 q-120 -188 -225 -305q75 -60 182 -98l11 -21q-83 -30 -209 -104q121 -66 233 -66q87 0 150 39l6 -14q-97 -74 -213 -74q-115 0 -236 78q-126 -82 -188 -158l-2 5q-61 58 -133 108q-167 -67 -338 -67q-94 0 -143 30q-50 30 -50 76q0 49 62 87t168 38q177 0 346 -100 q64 38 123 92q-156 120 -291 137l-4 20q13 0 23 1q16 2 59 12q44 11 83 28q36 16 91 58q51 39 90 90q61 -94 127 -154q80 102 185 265q62 96 182 290q75 121 174 262q95 136 196 225q105 93 217 132l6 -13q-75 -34 -143 -97q-73 -68 -139 -163q-84 -120 -124 -185 q-67 -108 -134 -223q-62 -106 -133 -218h370q76 262 212 540q131 269 278 455q-252 -121 -482 -121q-129 0 -261 51q-127 49 -223 112q-97 64 -208 112q-117 51 -219 51q-158 0 -293 -53q-129 -51 -215 -140q-82 -85 -127 -187t-45 -204q0 -151 96 -253q95 -101 277 -101 q124 0 222 40q101 41 159 105q60 66 90 141q31 77 31 150q0 117 -67 181q-66 63 -167 63q-136 0 -250 -106q-112 -105 -112 -279h-17v12q0 192 117 311t258 119q109 0 181 -77q73 -78 73 -224q0 -171 -135 -312t-383 -141q-186 0 -288 107q-101 105 -101 266zM4 45 q0 -35 45 -59q47 -25 131 -25q148 0 289 66q-171 110 -309 110q-70 0 -113 -27t-43 -65zM446 309q115 -23 259 -114q59 55 122 133q-86 69 -125 118q-88 -99 -256 -137zM584 45q41 -28 100 -76q49 44 119 92q-13 7 -30 20q-4 3 -15.5 11.5t-18.5 13.5q-25 21 -28 23 q-59 -43 -127 -84zM754 164q72 -47 106 -66q91 58 191 101q-86 30 -170 90q-55 -61 -127 -125z" />
<glyph unicode="B" horiz-adv-x="1816" d="M4 43q0 49 62 87t167 38q175 0 355 -105q68 43 129 99q-173 131 -305 135l-4 20q13 0 23 1q14 1 58 12t83 28t92 58q51 39 90 90q62 -92 127 -152q77 110 170 277q160 288 168 302q72 130 182 270t229 224l10 -8q-112 -90 -226 -283q-116 -198 -242 -434 q-128 -240 -246 -387q93 -75 190 -104l10 -21q-94 -35 -198 -98q196 -106 327 -106q181 0 306 131t125 307q0 137 -95 227q-94 90 -286 90q-7 0 -7 4l2 5q259 44 414 199q156 156 156 327q0 154 -138 254q-137 100 -421 100q-154 0 -307 -41q-149 -40 -278 -118 q-126 -76 -205 -199q-79 -122 -79 -273q0 -123 81 -213t204 -90q151 0 267 111t116 223q0 58 -39 92q-40 35 -117 35q-59 0 -137 -48t-119 -128l-12 2q43 81 124 134q80 52 169 52q99 0 147 -36q50 -38 50 -97q0 -117 -152 -239q-151 -121 -354 -121q-127 0 -224 83 q-96 82 -96 212q0 211 156 371q157 161 391 239q235 78 502 78q288 0 429 -101q142 -102 142 -258q0 -161 -136 -310q-137 -150 -368 -212q157 -28 236 -121q78 -91 78 -215q0 -145 -87 -259q-86 -112 -215 -170q-125 -56 -266 -56q-187 0 -346 96q-136 -89 -196 -162l-2 5 q-59 56 -133 106q-157 -65 -338 -65q-93 0 -143 30t-50 76zM39 45q0 -35 45 -59q47 -25 131 -25q156 0 293 59q-176 117 -313 117q-69 0 -113 -27q-43 -27 -43 -65zM483 309q104 -16 269 -112q37 37 106 127q-77 60 -121 122q-78 -93 -254 -137zM616 43q48 -29 103 -74 q58 52 127 97q-48 32 -94 69q-63 -52 -136 -92zM793 172l112 -68q98 59 180 95q-97 33 -182 92q-49 -60 -110 -119z" />
<glyph unicode="C" horiz-adv-x="1157" d="M135 268q0 195 108 433q110 244 289 440q-104 95 -104 213q0 80 55 132t156 52q65 0 129 -20l-6 -15q-49 13 -84 13q-84 0 -134 -53t-50 -128q0 -91 65 -168q369 389 797 389q130 0 195 -48t65 -126q0 -139 -167 -273t-396 -134q-281 0 -457 115q-162 -196 -270 -430 q-105 -228 -105 -402q0 -142 76 -222q77 -81 233 -81q124 0 252 55q131 56 223 166q93 111 93 246q0 100 -35 155q-35 54 -86 54q-53 0 -93 -37q-42 -39 -75 -89q-35 -53 -81 -105q-47 -53 -136 -90q-92 -39 -215 -40v11q75 1 143 41q66 38 120 92q18 18 53 53.5t52 52.5 q52 52 122 90q68 37 147 37q80 0 123 -51q43 -50 43 -133q0 -145 -117 -276q-114 -128 -281 -201q-164 -72 -315 -72q-166 0 -249 95t-83 259zM614 1114q151 -121 439 -121q196 0 335 119q138 118 138 248q0 75 -59 122q-58 46 -175 46q-164 0 -341 -114 q-179 -115 -337 -300z" />
<glyph unicode="D" horiz-adv-x="1787" d="M4 43q0 49 62 87t167 38q178 0 347 -100q73 46 131 98q-170 131 -299 131l-4 20q13 0 23 1q14 1 58 12t83 28t92 58q51 39 90 90q61 -94 127 -154q101 127 240 356q135 222 264 409q126 183 249 288q-179 166 -463 166q-189 0 -365 -75q-175 -75 -292 -220 q-117 -146 -117 -328q0 -131 86 -206q84 -74 207 -74q147 0 246 105q98 104 98 220q0 62 -36 101t-105 39q-91 0 -170 -56q-78 -56 -96 -145l-11 -4v6q0 15 7 41q22 83 117 143t190 60q97 0 144 -43q48 -43 48 -113q0 -133 -142 -259t-347 -126q-133 0 -233 83 q-99 82 -99 218q0 189 133 341q132 151 333 230q199 78 417 78q297 0 491 -149q83 60 160 88l6 -13q-72 -33 -141 -96q205 -174 205 -487q0 -231 -101 -448q-101 -218 -288 -357q-189 -141 -416 -141q-120 0 -234 69q-136 -89 -196 -162l-2 5q-61 58 -133 108 q-168 -67 -338 -67q-93 0 -143 30t-50 76zM39 45q0 -35 45 -59q47 -25 131 -25q148 0 289 66q-171 110 -309 110q-69 0 -113 -27q-43 -27 -43 -65zM483 309q121 -18 265 -106q46 44 114 125q-86 69 -125 118q-78 -93 -254 -137zM618 45q47 -32 101 -76q58 52 127 97 q-48 32 -94 69q-81 -63 -134 -90zM797 172l108 -68q98 59 180 95q-86 30 -170 90q-65 -70 -118 -117zM928 92q135 -78 248 -78q178 0 332 147q155 148 237 351q82 204 82 399q0 295 -166 467q-102 -107 -219 -299q-37 -60 -120.5 -197t-130.5 -214q-132 -217 -257 -359 q75 -60 182 -98l10 -21q-94 -35 -198 -98z" />
<glyph unicode="E" horiz-adv-x="722" d="M2 252q0 94 37 178q37 86 84 144t132 123q96 72 137 97q51 31 145 83q71 38 71 84q0 16 -35 97q-34 78 -34 156q0 145 169 253q170 108 320 108q86 0 147 -38q60 -37 60 -122q0 -95 -84 -162q-83 -67 -182 -67q-51 0 -92 14l6 10q44 -10 73 -10q77 0 143 60t66 137 q0 70 -49 107q-50 38 -127 38q-136 0 -251 -91t-115 -220q0 -43 13 -112t13 -107q0 -91 -92 -144q-64 -36 -85 -49q-72 -45 -86 -54q-60 -39 -92 -69q-26 -25 -77 -79q-49 -53 -69 -96q-22 -48 -39 -110q-19 -68 -19 -135q0 -147 86 -224t213 -77q172 0 309 146q1 1 17 21 t30 37q34 44 37 46l9 -10l-91 -113q-172 -178 -385 -178q-137 0 -225 82t-88 246z" />
<glyph unicode="F" horiz-adv-x="1419" d="M20 43q0 49 62 87t168 38q177 0 346 -100q61 38 123 92q-156 120 -291 137l-4 20q13 0 23 1q16 2 59 12q44 11 83 28q36 16 91 58q51 39 90 90q61 -94 127 -154q98 126 211 304q138 219 205 330q87 144 204 284q121 144 234 209q-201 32 -356 32q-193 0 -349 -51 t-248 -131q-90 -79 -141 -169q-49 -88 -49 -173q0 -87 54 -146q53 -57 151 -57q131 0 243 103q111 102 111 241q0 34 -8 66l10 2q9 -34 9 -70q0 -160 -141 -269q-140 -109 -312 -109q-110 0 -169 58q-60 58 -60 150q0 94 61 192q62 99 176 188q117 91 311 147q196 57 439 57 q132 0 353 -17q234 -18 349 -18q414 0 717 193l4 -8q-292 -271 -659 -271q-137 0 -461 54q-39 -27 -78 -63q-42 -39 -80 -88q-11 -14 -35 -44.5t-34 -44.5q-37 -48 -76 -113q-18 -29 -40.5 -65l-27.5 -44q-27 -45 -75 -127q-58 -99 -72 -122q94 88 200 88q45 0 74 -23 t29 -67q0 -30 -23 -55t-53 -25q-11 0 -20 4q-12 5 -15 8l-4 4q8 24 8 39q0 58 -67 58q-80 0 -148 -62q-162 -264 -299 -422q74 -60 183 -98l10 -21q-83 -30 -209 -104q122 -66 233 -66q135 0 226 105l86 100l8 -10q-25 -33 -84 -98q-71 -71 -138 -109q-65 -37 -155 -37 q-114 0 -236 78q-126 -82 -188 -158l-2 5q-61 58 -133 108q-168 -67 -338 -67q-93 0 -142 30q-51 31 -51 76zM55 45q0 -35 45 -59q47 -25 131 -25q148 0 289 66q-171 110 -309 110q-69 0 -113 -27q-43 -27 -43 -65zM498 309q114 -23 258 -114q63 58 123 133q-86 69 -125 118 q-88 -99 -256 -137zM635 45q41 -28 100 -76q49 44 119 92l-92 68q-59 -43 -127 -84zM805 164q72 -47 106 -66q91 58 191 101q-86 30 -170 90q-55 -61 -127 -125z" />
<glyph unicode="G" horiz-adv-x="1124" d="M-590 -1108q0 169 65 304q65 134 159 216q93 81 244 153q148 71 279 111q106 33 303 98q177 59 279 103q17 51 53 156q52 153 60 175q33 87 53 130q-342 -348 -633 -348q-126 0 -188 75q-61 74 -61 203q0 140 66 317q64 172 195 355q129 180 291 329q162 148 379 244 q216 95 437 95q196 0 293 -84q98 -84 98 -213q0 -184 -164 -345t-399 -161q-117 0 -175 50q-57 49 -57 128q0 113 98 211t240 98q41 0 76 -8l-2 -16q-38 6 -70 6q-126 0 -197 -77t-71 -177q0 -80 48 -135q48 -56 136 -56q188 0 319 148q130 146 130 317q0 126 -86 209 q-85 82 -260 82q-170 0 -354 -92q-181 -90 -333 -238q-150 -145 -271 -316q-120 -169 -190 -342q-69 -171 -69 -298q0 -113 57 -176q58 -64 177 -64q237 0 559 316q38 71 93 136q54 64 107 64q14 0 29 -6q-64 -33 -120 -100q-54 -64 -107 -173q-49 -101 -84 -190 q-24 -61 -82 -221q201 91 307 209l115 131l8 -10l-115 -131q-157 -174 -344 -285q-97 -276 -170 -426q119 -18 180 -96q62 -79 62 -190q0 -110 -59 -230q-60 -121 -161 -221q-105 -103 -268 -169t-352 -66q-257 0 -405 137t-148 354zM-569 -1110q0 -210 142 -340 q143 -131 394 -131q173 0 320 60q145 59 240 154q93 93 146 202q52 107 52 209q0 99 -51 168t-148 92q-198 -371 -450 -371q-58 0 -88 27q-31 28 -31 69q0 89 81 171q81 83 203 131q121 48 240 48q29 0 62 -4q69 139 166 412q-120 -68 -259 -119q-145 -53 -259 -86 q-124 -35 -236 -70q-120 -37 -211 -84t-164 -114q-74 -68 -111 -174q-38 -108 -38 -250zM-27 -971q0 -80 103 -80q243 0 434 359q-20 4 -72 4q-174 0 -319 -82q-146 -83 -146 -201z" />
<glyph unicode="H" horiz-adv-x="1968" d="M88 1245q0 105 47 210q46 103 134 192q86 88 231 142q144 54 319 54q113 0 243 -43q135 -44 236 -95t245 -95q139 -43 265 -43q180 0 355 84l8 -4q-254 -146 -475 -146q-129 0 -261 51q-130 50 -224 112q-99 65 -207 112q-117 51 -220 51q-157 0 -292 -53 q-130 -51 -216 -140q-80 -83 -126 -187t-46 -204q0 -150 97 -253q95 -101 276 -101q124 0 222 40q101 41 159 105q60 66 90 141q31 77 31 150q0 117 -67 181q-66 63 -167 63q-135 0 -249 -106q-113 -105 -113 -279h-16v12q0 194 116 311q117 119 258 119q110 0 182 -77 q72 -76 72 -224q0 -171 -135 -312t-383 -141q-186 0 -288 107q-101 105 -101 266zM154 43q0 -46 50 -76q49 -30 142 -30q170 0 338 67q72 -50 133 -108l2 -5q61 75 189 158q122 -78 235 -78q116 0 213 74l-6 14q-63 -39 -150 -39q-112 0 -233 66q126 74 209 104l-10 21 q-109 38 -183 98q127 144 295 416h439q-168 -354 -168 -682q0 -397 252 -582l12 19q-156 170 -156 516q0 354 156 729h141l2 12h-137q151 353 389 577q239 226 528 226q152 0 229 -71t77 -179q0 -152 -131 -283q-130 -130 -330 -130q-136 0 -291 73l-10 -10q170 -78 293 -78 q250 0 403 147q154 148 154 320q0 113 -75 185q-76 73 -218 73q-343 0 -639 -241q-295 -240 -475 -609h-439q25 43 98 164q17 28 40 66t37 62t24 39q24 39 93 140q57 84 103 135t99 97q55 48 113 73l-6 13q-113 -39 -218 -132q-101 -89 -196 -225q-90 -129 -173 -262 q-91 -146 -183 -290q-105 -163 -185 -265q-66 60 -127 154q-62 -83 -148 -129q-88 -47 -143 -53l-55 -7l4 -20q135 -17 291 -137q-59 -54 -123 -92q-169 100 -346 100q-106 0 -168 -38q-61 -37 -61 -87zM188 45q0 38 43 65t113 27q138 0 309 -110q-141 -66 -288 -66 q-85 0 -132 25q-45 24 -45 59zM631 309q168 38 256 137q39 -49 125 -118q-60 -75 -123 -133q-144 91 -258 114zM768 45q68 41 127 84q18 -13 29 -22q7 -6 18.5 -15t14.5 -11q17 -13 30 -20q-70 -48 -119 -92q-59 48 -100 76zM938 164q72 64 127 125q84 -60 170 -90 q-100 -43 -191 -101q-34 19 -106 66z" />
<glyph unicode="I" horiz-adv-x="1318" d="M20 301q0 164 137 259t312 95q141 0 236 -65q96 -66 96 -184q0 -100 -76 -152q-77 -53 -182 -53q-81 0 -148 30q-66 30 -96 84l6 11q28 -47 88 -73q64 -28 127 -28q86 0 145 47q58 46 58 142q0 105 -73 166q-71 59 -177 59q-138 0 -245 -94t-107 -258q0 -161 111 -243 q112 -83 282 -83q147 0 273 64q125 63 216 171q93 110 172 240q74 123 158 285q86 168 157 289q82 142 187 265q108 128 230 206q-140 -76 -305 -76q-140 0 -362 77t-300 77q-159 0 -248 -97q-88 -95 -88 -223q0 -117 74 -200t207 -83q105 0 185 69q79 69 79 189q0 32 -6 66 l10 2q8 -37 8 -76q0 -138 -104 -220q-106 -83 -238 -83q-147 0 -226 79t-79 198q0 156 135 284q134 127 369 127q103 0 340 -54t368 -54q160 0 291 59l13 -6q-131 -67 -237 -191q-103 -120 -183 -271q-76 -144 -153 -306q-72 -153 -164 -308q-87 -147 -194 -266 q-108 -120 -268 -191t-360 -71q-194 0 -324 90q-127 88 -127 279z" />
<glyph unicode="J" horiz-adv-x="720" d="M-1405 -1108q0 118 42 220q41 99 109 175q67 74 172 139q100 61 210 107q108 45 245 87q159 49 256 72q125 30 265 66q111 29 247 68q124 196 337 566q206 356 365 610q151 240 265 354q-75 23 -161 69t-183 83q-89 34 -193 34q-195 0 -331 -116t-136 -269q0 -98 71 -163 q70 -64 165 -64q107 0 209 84t117 186h8q-12 -121 -137 -210t-265 -89q-107 0 -183 65q-75 64 -75 175q0 123 95 226q94 102 239 154q144 52 307 52q95 0 182 -21q96 -23 125 -36q27 -12 115 -61q80 -44 88 -48q81 64 184 112t177 48q92 0 92 -51q0 -57 -106 -119t-248 -62 q-49 0 -109 11q-100 -116 -255 -361q-120 -190 -359 -586q-217 -359 -346 -557q338 107 467 252l114 131l8 -10l-114 -131q-203 -230 -557 -365q-148 -216 -277 -374q152 -74 152 -258q0 -110 -59 -230q-60 -121 -161 -221q-105 -103 -268 -169q-164 -66 -352 -66 q-257 0 -405 137t-148 354zM-1384 -1110q0 -210 142 -340q143 -131 394 -131q173 0 320 60q145 59 240 154q93 93 146 202q52 107 52 209q0 169 -129 235q-304 -346 -520 -346q-58 0 -88 27q-31 28 -31 69q0 89 81 171q81 83 203 131t240 48q88 0 150 -24q96 119 245 346 q-139 -49 -335 -97q-201 -49 -338 -78q-140 -29 -297 -83q-149 -51 -251 -117q-98 -64 -161 -174q-63 -111 -63 -262zM-842 -971q0 -80 103 -80q214 0 499 338q-58 25 -137 25q-174 0 -319 -82q-146 -83 -146 -201zM1198 1391q70 -31 131 -31q97 0 150 33t53 73q0 54 -74 54 q-131 0 -260 -129z" />
<glyph unicode="K" horiz-adv-x="1787" d="M-96 1245q0 105 47 210q46 103 134 192q87 88 230 142q144 54 320 54q113 0 243 -43q135 -44 236 -95t245 -95q139 -43 265 -43q178 0 354 84l9 -4q-254 -146 -476 -146q-129 0 -261 51q-127 49 -223 112q-97 64 -208 112q-117 51 -219 51q-158 0 -293 -53 q-129 -51 -215 -140q-82 -85 -127 -187t-45 -204q0 -151 96 -253q95 -101 277 -101q124 0 222 40q101 41 159 105q60 66 90 141q31 77 31 150q0 117 -67 181q-66 63 -167 63q-136 0 -250 -106q-112 -105 -112 -279h-17v12q0 192 117 311t258 119q109 0 181 -77 q73 -78 73 -224q0 -171 -135 -312t-383 -141q-186 0 -288 107q-101 105 -101 266zM-31 43q0 -46 50 -76q49 -30 143 -30q171 0 338 67q72 -50 133 -108l2 -5q62 76 188 158q121 -78 236 -78q116 0 213 74l-6 14q-63 -39 -150 -39q-112 0 -233 66q126 74 209 104l-11 21 q-107 38 -182 98q120 137 248 340q139 221 220 366q89 159 207 303q119 144 232 195l-6 13q-112 -39 -217 -132q-104 -92 -197 -225q-90 -129 -173 -262q-120 -194 -182 -290q-105 -163 -185 -265q-66 60 -127 154q-61 -82 -149 -129t-142 -53l-55 -7l4 -20 q135 -17 291 -137q-59 -54 -123 -92q-169 100 -346 100q-106 0 -168 -38t-62 -87zM4 45q0 38 43 65t113 27q138 0 309 -110q-141 -66 -289 -66q-84 0 -131 25q-45 24 -45 59zM446 309q168 38 256 137q39 -49 125 -118q-63 -78 -122 -133q-144 91 -259 114zM584 45 q68 41 127 84q11 -8 28 -22q7 -6 18.5 -14.5t15.5 -11.5q17 -13 30 -20q-70 -48 -119 -92q-59 48 -100 76zM754 164q72 64 127 125q84 -60 170 -90q-100 -43 -191 -101q-34 19 -106 66zM1327 805q0 47 80 47q98 0 158 -74q98 32 201 143q102 109 186 240q81 126 170 257 q86 126 189 210t210 84q119 0 178 -55q60 -55 60 -139q0 -119 -98 -226t-236 -108l-8 14q118 5 186 95q70 93 70 202q0 84 -43 139q-44 56 -125 56q-82 0 -163 -83q-78 -79 -157 -208q-133 -217 -157 -254q-83 -130 -199 -240q-115 -109 -250 -147q53 -86 53 -215 q0 -82 -38 -237t-38 -228q0 -193 127 -347q128 -156 323 -235q196 -80 415 -80q330 0 559 181l4 -11q-267 -227 -645 -227q-225 0 -423 84q-197 84 -324 251q-126 167 -126 380q0 96 64 277q63 179 63 274q0 71 -32 129q-55 -15 -123 -15q-50 0 -80 21q-31 22 -31 45z M1407 793q0 -13 17 -22q18 -9 44 -9q37 0 80 10q-38 47 -88 47q-53 0 -53 -26z" />
<glyph unicode="L" horiz-adv-x="1173" d="M0 102q0 54 41 93q40 39 104 57q72 21 121 27q61 8 109 8q176 0 327 -113q116 106 212 286q96 178 189 380q93 200 171 301q149 193 392 315q242 121 548 121q263 0 391 -91q129 -92 129 -229q0 -164 -161 -301t-396 -137q-21 0 -59 2q-27 1 -55 8q-9 2 -23.5 6t-21.5 5 q-22 5 -43 13t-33 13q-10 4 -33 15q-24 11 -25 12l8 12q116 -73 289 -73q198 0 319 118t121 271q0 140 -114 239t-338 99q-171 0 -315 -56q-143 -56 -244 -152q-108 -103 -189 -217q-88 -123 -164 -258q-147 -259 -151 -267q-77 -133 -172 -253q-100 -125 -205 -204 q70 -58 150 -153q70 -83 142 -181q67 -91 148 -179q87 -95 174 -161q90 -69 217 -112q129 -44 277 -44q121 0 249 32q127 32 218 96q92 65 92 145q0 77 -57 117q-56 40 -154 40q-133 0 -280 -69q-148 -70 -222 -181l-12 6q73 131 244 216q174 86 328 86q100 0 160 -42 q61 -43 61 -126q0 -93 -69 -162q-71 -71 -174 -106q-101 -35 -208 -52q-99 -16 -194 -16q-192 0 -345 43q-160 45 -250 108q-99 69 -180 159q-83 92 -132 176q-57 98 -110 180q-64 100 -112 153q-212 -141 -491 -141q-39 0 -82 8q-40 7 -79 37q-38 29 -38 73zM92 131 q0 -57 70 -84q69 -27 143 -27q213 0 367 125q-122 125 -291 125q-74 0 -182 -38q-107 -38 -107 -101z" />
<glyph unicode="M" horiz-adv-x="2899" d="M41 315q0 165 136 259q139 96 312 96q140 0 236 -66t96 -184q0 -100 -76 -152q-77 -53 -182 -53q-77 0 -147 31q-68 30 -97 84l7 10q28 -47 88 -73q62 -27 127 -27q85 0 144 47q58 46 58 141q0 106 -72 166q-71 59 -177 59q-138 0 -245 -94q-108 -95 -108 -258 q0 -160 113 -243t283 -83q122 0 245 42q122 42 211 120q238 207 410 503q173 297 235 568q-22 -2 -53 -2q-93 0 -143 33q-49 33 -49 78q0 38 37 68q38 30 100 30q79 0 128 -52t66 -122q51 17 113 50q74 39 128 58q59 21 116 21q68 0 110 -31q41 -30 41 -88q0 -45 -24 -102 q-14 -34 -185 -377q-71 -146 -103 -210q-23 -46 -124 -249q-53 -107 -164 -333h-96l590 1208q16 29 16 65q0 39 -27 65q-26 25 -75 25q-63 0 -170 -52q-100 -49 -144 -62q5 -23 5 -33q0 -204 -231 -561t-484 -526q-110 -73 -248 -117q-146 -47 -283 -47q-193 0 -318 91 q-126 92 -126 279zM389 1032q0 126 62 232q62 105 164 172q100 65 226 115t261 73q146 25 253 35q109 10 216 10q233 0 438 -44q199 -43 317 -97q183 -84 229 -104q119 -51 187 -58q183 209 353 209q71 0 71 -43q0 -57 -116 -119q-115 -61 -285 -61h-6q-80 -101 -158 -252 q-358 -694 -358 -922q0 -105 46 -155q47 -52 121 -52q137 0 277 131q139 130 139 293q0 60 -32 107t-82 47q-79 0 -139 -71q-60 -70 -60 -150q0 -51 24 -84l-12 -13q-35 44 -35 99q0 96 93 189q91 91 196 91q64 0 94 -44q31 -45 31 -107q0 -207 -174 -360 q-173 -152 -356 -152q-103 0 -164 58q-62 59 -62 179q0 284 400 914q104 165 184 254q-135 4 -264 36t-234 75l-210 87q-102 42 -239 73q-134 30 -278 30q-159 0 -331 -35q-168 -34 -329 -104q-159 -69 -259 -191q-101 -124 -101 -281q0 -124 91 -194t221 -70q165 0 320 100 q153 99 214 244h13q-69 -174 -243 -273q-172 -97 -355 -97q-149 0 -254 72t-105 208zM1407 1323q0 -43 47 -75q46 -31 131 -31q39 0 55 4q5 37 5 49q0 57 -32 95t-85 38q-57 0 -89 -23t-32 -57zM2771 1364h8q120 0 206 52q87 52 87 95q0 29 -45 29q-115 0 -256 -176z" />
<glyph unicode="N" horiz-adv-x="2426" d="M-45 315q0 165 136 259q139 96 312 96q140 0 236 -66t96 -184q0 -100 -76 -152q-77 -53 -182 -53q-77 0 -147 31q-68 30 -97 84l7 10q28 -47 88 -73q62 -27 127 -27q85 0 144 47q58 46 58 141q0 106 -72 166q-71 59 -177 59q-138 0 -245 -94q-108 -95 -108 -258 q0 -160 113 -243t283 -83q161 0 319 88q159 89 283 226q120 133 219 297q95 157 148 312q54 156 55 265q-95 0 -144 33t-49 78q0 64 39 98q40 35 96 35q89 0 136 -57q48 -58 49 -156q52 17 122 53l-2 -16q-90 -44 -120 -51q-1 -100 -49 -235q-49 -140 -123 -269 q-80 -139 -192 -268q-116 -133 -242 -235t-284 -166q-154 -62 -313 -62q-193 0 -318 91q-126 92 -126 279zM375 1085q0 91 60 183t170 170q111 79 288 128q180 50 389 50q154 0 308 -36q151 -35 256 -80q129 -55 209 -85q112 -42 171 -49q183 209 352 209q68 0 68 -41 q0 -57 -119 -123q-119 -67 -291 -68q-89 -117 -151 -243q-346 -662 -346 -891q0 -111 51 -165t133 -54q137 0 268 120t131 275q0 61 -31 107q-32 47 -83 47q-78 0 -138 -71q-61 -72 -61 -151q0 -50 25 -84l-13 -12q-34 43 -34 98q0 98 92 190q91 91 196 91q65 0 95 -44 t30 -107q0 -202 -166 -343t-346 -141q-108 0 -176 63q-67 63 -67 187q0 273 387 883q101 154 176 245q-137 1 -259 29q-121 27 -202 64q-132 60 -157 72q-80 38 -158 62q-82 25 -172 25q-349 0 -557 -157q-207 -156 -207 -342q0 -114 88 -187t254 -73q114 0 222 46t191 126 l2 -19q-93 -87 -219 -134q-123 -46 -248 -46q-201 0 -306 78t-105 198zM1296 1280q0 -43 47 -75q46 -31 132 -31q-4 165 -117 165q-62 0 -62 -59zM2253 1364h10q120 0 206 52q87 52 87 95q0 29 -45 29q-112 0 -258 -176z" />
<glyph unicode="O" horiz-adv-x="1089" d="M-8 322q0 165 76 362q79 205 207 391q133 193 336 359q204 166 440 252l4 -17q-202 -68 -387 -233q-178 -159 -300 -361q-119 -197 -186 -400q-67 -202 -67 -366q0 -141 53 -224t158 -83q178 0 355 140q181 143 305 341q125 199 205 423q79 221 79 388q0 132 -58 199 q-57 66 -143 66q-112 0 -210 -92q-97 -91 -97 -218q0 -86 47 -150q47 -63 127 -63q74 0 131 57q59 59 80 112q22 56 22 87h17q0 -20 -16 -70q-15 -48 -48 -104q-33 -57 -98 -97t-149 -40q-101 0 -150 51q-49 50 -49 135q0 177 143 307t303 130q111 0 182 -77q70 -76 70 -233 q0 -176 -94 -406q-94 -229 -241 -435q-148 -207 -348 -347q-201 -141 -394 -141q-151 0 -228 96q-77 97 -77 261z" />
<glyph unicode="P" horiz-adv-x="1536" d="M135 43q0 49 62 87t168 38q177 0 346 -100q61 38 123 92q-156 120 -291 137l-4 20q13 0 23 1q16 2 59 12q42 10 82 28q39 17 92 58q51 39 90 90q61 -94 127 -154q109 137 258 383q152 252 286 439q132 185 275 282q-175 92 -426 92q-221 0 -421 -67q-201 -68 -341 -209 q-139 -140 -139 -328q0 -131 86 -206q84 -74 207 -74q146 0 245 105t99 220q0 62 -36 101q-35 38 -106 38q-93 0 -170 -55q-78 -56 -96 -145l-10 2q0 18 6 41q22 82 118 143q95 60 189 60q96 0 145 -44q48 -44 48 -112q0 -133 -143 -259q-142 -126 -347 -126q-132 0 -232 83 q-99 82 -99 218q0 148 91 270q92 124 238 200q148 77 325 119t359 42q261 0 451 -84q44 27 94 45l6 -13q-38 -17 -76 -43q238 -119 238 -337q0 -179 -148 -320t-374 -141q-73 0 -135 14l4 12q44 -6 86 -6q209 0 343 131t134 303q0 202 -186 314q-115 -97 -242 -297 q-108 -170 -274 -443q-147 -242 -277 -391q75 -60 182 -98l10 -21q-81 -29 -208 -104q121 -66 233 -66q134 0 225 105l86 100l9 -10q-25 -33 -84 -98q-70 -70 -139 -109q-65 -37 -154 -37q-115 0 -236 78q-126 -82 -188 -158l-2 5q-61 58 -133 108q-168 -67 -338 -67 q-94 0 -143 30q-50 30 -50 76zM170 45q0 -35 45 -59q47 -25 131 -25q148 0 289 66q-171 110 -309 110q-70 0 -113 -27t-43 -65zM612 309q114 -23 258 -114q63 58 123 133q-86 69 -125 118q-88 -99 -256 -137zM750 45q41 -28 100 -76q49 44 119 92l-92 68q-59 -43 -127 -84z M920 164q72 -47 106 -66q91 58 191 101q-86 30 -170 90q-55 -61 -127 -125z" />
<glyph unicode="Q" horiz-adv-x="1310" d="M61 45q0 47 62 85t172 38q163 0 321 -86q106 59 150 88q-158 127 -293 127l-4 20q14 0 24 1q14 1 58 12t83 28q36 16 91 58q51 39 90 90q60 -96 152 -176q199 186 321 410q123 226 123 438q0 177 -94 265q-95 89 -240 89q-133 0 -268 -70q-133 -69 -225 -206t-92 -302 q0 -116 50 -177q50 -60 128 -60q111 0 207 109q95 109 100 280l16 2v-14q0 -192 -123 -319q-123 -128 -262 -128q-96 0 -156 69q-61 70 -61 204q0 162 124 320t303 253q178 94 341 94q154 0 247 -97t93 -302q0 -232 -139 -462t-365 -417q74 -60 183 -98l10 -21 q-96 -38 -193 -94q35 -24 82 -58q49 -36 88 -63q15 -11 80 -49q53 -32 90 -46q30 -12 83 -25q52 -13 93 -13q115 0 244 43l2 -18q-204 -86 -356 -86q-70 0 -133 20t-131 65q-65 43 -110 80q-60 49 -114 99q-117 -77 -182 -154l-2 5q-82 78 -180 139q-202 -80 -346 -80 q-67 0 -104 27q-38 27 -38 63zM94 55q0 -29 42 -48q41 -19 128 -19q124 0 268 57q-154 92 -276 92q-70 0 -116 -25t-46 -57zM549 309q127 -17 272 -98q55 39 125 100q-101 77 -147 135q-82 -93 -250 -137zM633 74q73 -44 147 -105q57 51 117 90q-30 27 -52 45 q-9 8 -31.5 27.5t-31.5 26.5q-95 -60 -149 -84zM844 197q74 -45 131 -86q66 43 172 88q-78 28 -174 92z" />
<glyph unicode="R" horiz-adv-x="1867" d="M133 43q0 49 62 87t167 38q178 0 347 -100q62 36 122 92q-156 120 -290 137l-4 20q13 0 23 1q14 1 58 12t83 28t92 58q51 39 90 90q61 -94 127 -154q98 123 222 322q154 245 215 347q87 144 217 288q127 141 257 198q-147 123 -448 123q-155 0 -308 -41 q-148 -39 -277 -118q-126 -76 -205 -199q-79 -122 -79 -273q0 -123 81 -213t204 -90q151 0 267 111t116 223q0 58 -39 92q-40 35 -117 35q-59 0 -137 -48t-119 -128l-12 2q43 81 124 134q80 52 169 52q99 0 147 -36q49 -37 49 -97q0 -118 -151 -239t-355 -121 q-126 0 -223 83q-96 82 -96 212q0 211 156 371q157 161 391 239q236 78 502 78q288 0 429 -101q142 -102 142 -258q0 -165 -134 -317q-134 -151 -300 -192q28 -83 28 -256q0 -88 -7 -250t-7 -260q0 -119 10 -200q10 -84 36 -161q25 -76 78 -118q52 -42 128 -46l-12 -18 q-20 -2 -41 -2q-167 0 -234 112t-67 312q0 133 38 413t38 369q0 51 -11 100q-35 -6 -65 -6q-46 0 -73 24q-28 25 -28 50q0 47 62 47q77 0 115 -80q134 40 240 176t106 279q0 128 -97 219q-106 -60 -220 -205q-115 -147 -201 -301q-90 -161 -212 -353q-125 -196 -239 -327 q75 -60 182 -98l10 -21q-81 -29 -208 -104q121 -66 233 -66q87 0 150 39l6 -14q-97 -74 -213 -74q-115 0 -236 78q-126 -82 -188 -158l-2 5q-61 58 -133 108q-168 -67 -338 -67q-94 0 -143 30q-50 30 -50 76zM168 45q0 -35 45 -59q47 -25 131 -25q148 0 289 66 q-171 110 -309 110q-70 0 -113 -27t-43 -65zM610 309q114 -23 258 -114q63 58 123 133q-86 69 -125 118q-88 -99 -256 -137zM748 45q41 -28 100 -76q49 44 119 92q-13 7 -30 20q-4 3 -15.5 11.5t-18.5 14.5q-11 9 -29 22q-63 -47 -126 -84zM917 164q66 -43 107 -66 q93 59 190 101q-86 30 -170 90q-55 -61 -127 -125zM1540 852q0 -17 17 -31t45 -14q17 0 65 8q-23 64 -88 64q-39 0 -39 -27z" />
<glyph unicode="S" horiz-adv-x="1142" d="M6 303q0 188 131 328q130 139 367 139q141 0 241 -71q99 -71 99 -197q0 -106 -89 -166t-208 -60q-127 0 -209 66l8 12q68 -55 162 -55q106 0 188 69t82 175q0 101 -71 154q-73 55 -181 55q-209 0 -320 -126q-112 -127 -112 -302q0 -179 112 -317q111 -136 302 -136 q139 0 232 59q96 61 145 160q50 102 77 231q27 132 42 273q5 48 14.5 144t14.5 144q15 143 48 274q33 130 88 230t160 160t254 60q95 0 177 -50q81 -50 81 -118q0 -69 -86 -135v30q0 39 -6 72q-16 84 -70 132q-52 46 -127 46q-126 0 -207 -59q-84 -61 -124 -160 q-43 -106 -64 -230q-24 -137 -35 -274q-12 -144 -27 -288q-14 -135 -54 -274q-37 -130 -100 -230q-63 -101 -179 -160q-117 -60 -281 -60q-222 0 -349 135q-126 133 -126 320z" />
<glyph unicode="T" horiz-adv-x="1531" d="M133 43q0 49 62 87t167 38q178 0 347 -100q62 36 122 92q-156 120 -290 137l-4 20q13 0 23 1q14 1 58 12t83 28t92 58q51 39 90 90q61 -94 127 -154q101 127 240 356q135 222 264 409q126 183 249 288q-77 21 -188 52q-116 33 -193 52q-68 17 -148 33q-85 17 -136 17 q-282 0 -484 -160q-200 -158 -200 -400q0 -123 81 -213t203 -90q152 0 268 111q115 111 115 223q0 58 -39 92q-40 35 -116 35q-60 0 -138 -48q-77 -47 -118 -128l-13 2q43 81 124 134q80 52 169 52q100 0 148 -36q49 -37 49 -97q0 -117 -152 -239q-151 -121 -354 -121 q-126 0 -223 83q-96 82 -96 212q0 261 231 433q232 173 586 173q53 0 114 -6q63 -6 107 -12q25 -3 124 -22q65 -12 110 -23q9 -2 26 -6t45.5 -10t53.5 -12q108 -24 116 -26q66 44 129 66l6 -13q-50 -23 -100 -61q320 -74 497 -74q149 0 263 47l4 -10q-105 -102 -324 -102 q-188 0 -504 82q-126 -124 -359 -519q-237 -401 -384 -567q75 -60 182 -98l10 -21q-81 -29 -208 -104q121 -66 233 -66q134 0 225 105l86 100l8 -10q-29 -39 -83 -98q-70 -70 -139 -109q-65 -37 -154 -37q-115 0 -236 78q-126 -82 -188 -158l-2 5q-61 58 -133 108 q-168 -67 -338 -67q-94 0 -143 30q-50 30 -50 76zM168 45q0 -35 45 -59q47 -25 131 -25q148 0 289 66q-171 110 -309 110q-70 0 -113 -27t-43 -65zM610 309q114 -23 258 -114q63 58 123 133q-86 69 -125 118q-88 -99 -256 -137zM748 45q41 -28 100 -76q49 44 119 92 q-13 7 -30 20q-4 3 -15.5 11.5t-18.5 13.5q-19 16 -29 23q-63 -47 -126 -84zM918 164q72 -47 106 -66q93 59 190 101q-86 30 -170 90q-59 -66 -126 -125z" />
<glyph unicode="U" horiz-adv-x="1222" d="M53 1130q0 114 101 226q100 111 244 175q143 64 276 64q119 0 196 -67q78 -67 78 -187q0 -108 -79 -285q-83 -186 -173 -342q-91 -158 -173 -343q-79 -179 -79 -285q0 -117 101 -117q214 0 516 527l498 1030q53 0 67 14h21l-529 -1108q-133 -279 -133 -534 q0 -170 52 -304q53 -135 138 -216q84 -80 187 -122q102 -42 209 -42q175 0 296 106q122 107 122 295q0 108 -55 166q-54 57 -132 57q-84 0 -154 -63t-87 -172l-23 2q7 124 103 201q95 77 212 77q99 0 165 -60q67 -61 67 -177q0 -206 -154 -330q-153 -123 -366 -123 q-122 0 -232 43q-111 44 -204 129q-92 84 -149 229q-56 141 -56 328q0 234 84 453q-246 -424 -473 -424q-74 0 -120 43t-46 129q0 107 77 280q80 180 171 334t171 334q78 175 78 283q0 98 -69 153q-70 56 -176 56q-171 0 -321 -114t-150 -286q0 -92 49 -137q50 -45 118 -51 q201 0 287 248l15 2q-39 -134 -140 -213q-101 -78 -231 -78q-96 0 -145 57q-50 58 -50 139z" />
<glyph unicode="V" horiz-adv-x="1001" d="M4 264q0 254 207 632q207 379 412 564q-140 -78 -277 -78q-180 0 -180 107q0 40 24 64t56 24q47 0 47 -45q-29 -27 -29 -49q0 -26 36 -44t99 -18q155 0 279 84l6 -10q-190 -196 -378 -581q-187 -383 -187 -635q0 -267 233 -267q156 0 363 245t351 562q144 318 144 520 q0 195 -151 195q-65 0 -106 -40q-42 -40 -42 -105q0 -41 21 -64q21 -22 49 -22q30 0 54 27t24 75q0 23 -6 53l10 4q12 -37 12 -69q0 -59 -36 -100q-36 -40 -78 -40q-33 0 -55 28q-21 27 -21 81q0 90 68 162q69 73 157 73q205 0 205 -241q0 -168 -98 -406t-244 -453 q-144 -212 -332 -367q-186 -153 -344 -153q-293 0 -293 287z" />
<glyph unicode="W" horiz-adv-x="1187" d="M-909 1083q0 130 70 234q69 103 181 166q108 61 231 94q122 33 237 33q132 0 252 -32q117 -31 186 -71q64 -37 147 -73q79 -34 144 -39q229 225 340 225q47 0 47 -53t-95 -113t-237 -72q-189 -227 -331 -526q-144 -303 -144 -577q0 -139 46 -204q47 -67 122 -67 q81 0 172 70q-17 53 -17 147q0 135 59 248t146 113q72 0 72 -119q0 -199 -195 -365q34 -100 115 -100q127 0 318 227q192 229 336 547q145 322 145 553q0 114 -52 187q-50 71 -141 71q-121 0 -233 -113q-113 -115 -113 -260q0 -86 45 -130q46 -44 111 -44q68 0 124 46 q55 45 66 122l15 9q-6 -101 -86 -164q-81 -64 -175 -64q-73 0 -123 44q-51 45 -51 130q0 179 163 323q164 144 329 144q115 0 170 -76t55 -208q0 -201 -105 -453q-104 -250 -253 -455q-145 -199 -312 -342q-163 -139 -274 -139q-94 0 -133 100q-123 -84 -242 -84 q-98 0 -158 71q-61 72 -61 220q0 306 153 601q154 298 367 515q-116 0 -230 33t-189 72q-70 37 -172 71q-97 33 -187 33q-129 0 -261 -63q-130 -62 -220 -175q-88 -110 -88 -233q0 -124 71 -186q73 -64 179 -64q123 0 222 78t99 203q0 111 -88 111q-64 0 -122 -57t-58 -132 v-14l-17 4q0 6 -1 11t-1 11q0 96 72 159t156 63q59 0 97 -35t38 -105q0 -135 -147 -231t-312 -96q-121 0 -198 60q-76 60 -76 185zM498 305q0 -104 16 -174q127 136 127 309q0 82 -45 82t-72 -62q-26 -61 -26 -155zM608 1399q86 15 158 61q74 47 74 82q0 31 -23 31 q-57 0 -209 -174z" />
<glyph unicode="X" horiz-adv-x="1421" d="M2 111q0 75 43 143q44 70 125 129q83 60 167 109q83 48 201 94q119 47 193 72q129 45 178 60q50 16 123 40l66 24q55 168 55 310q0 199 -104 319q-105 121 -316 121q-170 0 -308 -109q-136 -108 -136 -276q0 -75 58 -112q59 -38 151 -38q129 0 243 72q116 73 138 197 l16 -9q-18 -144 -161 -239q-142 -94 -294 -94q-97 0 -160 45t-63 133q0 193 186 331t402 138q223 0 333 -117q109 -116 109 -309q0 -130 -49 -281q131 312 316 511q186 200 366 200q150 0 150 -119q0 -88 -74 -183t-197 -179t-252 -153q-131 -70 -268 -126 q-119 -359 -119 -700q0 -181 38 -333t117 -274t215 -191t318 -69q204 1 325 124q120 122 120 261q0 85 -47 138t-138 53q-68 0 -134 -64q-63 -62 -68 -153l-23 2q1 105 99 195t192 90q105 0 163 -58q56 -56 56 -149q0 -169 -162 -319t-426 -150q-201 0 -346 65 q-147 66 -232 182q-85 117 -126 263q-41 147 -41 321q0 323 125 678q-144 -309 -412 -529q-269 -221 -575 -221q-68 0 -112 36t-44 98zM98 141q0 -116 125 -116q287 0 522 216q238 218 345 517q-45 -19 -74 -25q-195 -64 -341 -123q-156 -63 -288 -134q-139 -75 -214 -160 q-75 -86 -75 -175zM1249 844q121 55 236 119q110 62 220 141q108 78 172 163q65 86 65 163q0 100 -127 100q-155 0 -309 -193q-152 -190 -257 -493z" />
<glyph unicode="Y" horiz-adv-x="1347" d="M-772 -1108q0 118 44 221q43 100 115 177q71 76 181 141q105 63 219 110q108 45 255 90q149 46 265 75q173 44 271 70q179 48 249 68l9 4q154 262 320 596q159 319 284 566q113 223 159 266l-12 -4q-37 -47 -134 -203q-99 -159 -179 -277q-88 -130 -197 -266t-229 -216 q-122 -81 -234 -81q-110 0 -110 95q0 93 113 297q25 46 71.5 129.5t84.5 152t72 129.5q113 205 113 307q0 110 -70 167t-181 57q-171 0 -321 -114t-150 -286q0 -92 49 -137q50 -45 118 -51q201 0 287 248l15 2q-39 -134 -140 -213q-101 -78 -231 -78q-96 0 -145 57 q-50 58 -50 139q0 114 101 226q100 111 244 175q143 64 276 64q126 0 203 -68t77 -212q0 -87 -69 -235q-63 -135 -153 -281q-84 -136 -152 -269q-70 -137 -70 -194q0 -62 70 -62q117 0 262 136q140 131 273 327q106 156 254 386q127 198 241 329q117 135 198 135 q32 0 48 -21q16 -20 16 -53q0 -69 -60 -73q-5 47 -59 47q-88 0 -224 -227q-132 -221 -364 -686q-232 -466 -377 -715q296 99 420 235l115 131l8 -10l-114 -131q-175 -198 -492 -332q-160 -257 -299 -426q119 -80 119 -241q0 -90 -37 -183q-38 -94 -111 -183 q-74 -89 -173 -161q-95 -69 -237 -114q-136 -43 -292 -43q-258 0 -406 137q-147 136 -147 354zM-752 -1110q0 -209 143 -340t394 -131q179 0 328 58q148 58 241 151q94 94 144 198q51 106 51 207q0 148 -98 224q-293 -324 -557 -324q-59 0 -89 27t-30 69q0 89 81 171 q82 84 202 131q122 48 241 48q111 0 188 -41q136 165 279 396q-135 -53 -293 -98q-155 -45 -301 -82q-118 -30 -282 -77q-149 -42 -256 -91q-106 -48 -199 -116q-89 -65 -138 -162q-49 -96 -49 -218zM-209 -971q0 -80 103 -80q249 0 536 322q-70 41 -168 41q-173 0 -322 -83 t-149 -200z" />
<glyph unicode="Z" horiz-adv-x="1167" d="M8 82q0 73 110 139t269 66q162 0 295 -88q90 87 217 256t164 213q-14 5 -90 43q-91 -66 -195 -66q-40 0 -72 17t-32 51q0 73 121 73q63 0 157 -49q84 51 167 161t174 255q91 144 157 221q-56 15 -226 100q-164 82 -266 82q-198 0 -327 -122q-131 -123 -131 -258 q0 -79 52 -128q54 -51 157 -51q213 0 344 254l12 2q-52 -127 -166 -205q-113 -77 -250 -77q-113 0 -174 54t-61 138q0 150 169 280t455 130q114 0 194 -22q78 -21 163 -75q82 -52 94 -59q137 137 285 137q88 0 88 -57q0 -49 -79 -94t-216 -45q-56 0 -101 12 q-58 -66 -215 -316t-268 -335q5 -1 38 -20q27 -15 50 -25q112 127 197 127q37 0 62 -19q24 -18 24 -49q0 -50 -47 -74t-97 -24q-58 0 -125 24q-47 -47 -178 -221q-129 -172 -207 -254q81 -57 161 -148q89 -100 148 -184q67 -94 152 -190q88 -99 178 -172q91 -75 223 -121 q133 -47 287 -47q121 0 249 32q127 32 218 96q92 65 92 144q0 78 -57 118q-56 40 -154 40q-133 0 -280 -69t-221 -181l-13 6q73 131 244 216q174 86 328 86q101 0 161 -42t60 -126q0 -93 -69 -162q-71 -71 -174 -106q-101 -35 -208 -52q-99 -16 -194 -16q-200 0 -356 46 q-157 46 -255 117q-101 73 -181 169q-85 102 -132 186q-50 90 -112 184q-64 97 -121 150q-201 -195 -414 -195q-126 0 -188 34q-64 35 -64 85zM121 109q0 -89 196 -89q169 0 338 154q-108 96 -262 96q-107 0 -189 -52q-83 -53 -83 -109zM737 735q0 -41 68 -41t135 35 q-86 47 -135 47q-24 0 -45 -11q-23 -12 -23 -30zM1094 666q50 -15 92 -15q43 0 70 16q26 15 26 33q0 39 -53 39q-58 0 -135 -73zM1503 1409q64 -29 144 -29q57 0 99 28q40 27 40 58q0 43 -74 43q-105 0 -209 -100z" />
<glyph unicode="[" horiz-adv-x="446" d="M-66 -322l828 1719h223v-17q-33 0 -69 0.5t-55 1t-27 0.5l-809 -1687l196 -2v-17q-64 0 -132.5 0.5t-104 1t-50.5 0.5z" />
<glyph unicode="\" horiz-adv-x="647" d="M301 -352l207 1865h14l-207 -1865h-14z" />
<glyph unicode="]" horiz-adv-x="446" d="M-209 -307l152 -2l809 1687l-197 2v17l287 -2l-828 -1719h-223v17z" />
<glyph unicode="_" horiz-adv-x="1150" d="M70 -78l8 17l950 2l-8 -17q-257 0 -487.5 -0.5t-339.5 -1t-123 -0.5z" />
<glyph unicode="`" d="M477 844q0 14 35 14q26 0 63 -8q18 -158 123 -209l-12 -6q-77 18 -143 94q-66 77 -66 115z" />
<glyph unicode="a" d="M-4 63q0 117 126 264q125 146 261 146q59 0 92 -53q56 29 78 55h12q-7 -19 -54 -118q-46 -96 -82 -179q-36 -82 -36 -102q0 -49 39 -49q56 0 135 94q1 1 17 21t30 37q34 44 37 46l8 -10l-90 -113q-99 -108 -184 -108q-72 0 -72 63q0 43 25 101q-56 -84 -125 -131 q-70 -47 -135 -47q-82 0 -82 83zM86 82q0 -70 47 -70q54 0 127 71q72 71 107 134l59 129q-5 42 -34 64t-68 22q-84 0 -161 -126q-77 -127 -77 -224z" />
<glyph unicode="b" horiz-adv-x="491" d="M-1217 672q237 430 680 430q98 0 232 -25q117 -22 214 -49q73 -21 249 -77q146 -47 225 -70l29 49q125 226 313 366q190 142 412 142q171 0 259 -76q89 -77 89 -188q0 -157 -155 -285q-154 -127 -410 -127q-188 0 -498 76q-207 -420 -258 -537q-5 -13 -35 -72 q-29 -57 -45 -97q-16 -41 -16 -71q0 -53 59 -53q109 0 195 104t86 203q0 72 -72 121q0 24 16 39q15 14 41 14q39 0 68 -29q31 -31 31 -85q0 -114 -124 -251q-124 -138 -249 -138q-117 0 -117 86q0 34 14 75q18 52 41 98q28 55 33 70q45 117 279 537q-51 14 -172 45 q-89 23 -193 49q-46 12 -165 37q-110 24 -190 32q-85 9 -165 9q-424 0 -694 -358zM436 864q281 -80 457 -80q237 0 370 112q132 111 132 257q0 109 -79 185q-80 77 -218 77q-208 0 -371 -147q-162 -146 -268 -359z" />
<glyph unicode="c" horiz-adv-x="428" d="M2 111q0 139 137 256q135 116 244 116q70 0 70 -53q0 -30 -25 -58t-57 -28q-15 0 -31 8q27 27 27 66q0 33 -31 33q-66 0 -157 -99q-91 -98 -91 -219q0 -60 29 -98q28 -37 78 -37q91 0 208 123q2 2 18 21.5t30 36.5q10 12 19 24t13 17l4 5l9 -10l-90 -113 q-49 -61 -121 -97t-138 -36q-65 0 -105 36t-40 106z" />
<glyph unicode="d" d="M-895 672q235 430 680 430q97 0 231 -25q117 -22 214 -49q73 -21 249 -77q136 -44 226 -70l28 49q124 224 314 366t411 142q171 0 259 -76q89 -77 89 -188q0 -158 -154 -285t-411 -127q-188 0 -498 76q-215 -437 -260 -541q-90 -207 -90 -221q0 -49 39 -49q56 0 135 94 q1 1 17 21t30 37q34 44 37 46l8 -10l-90 -113q-99 -108 -184 -108q-74 0 -74 61q0 37 27 103q-121 -178 -260 -178q-82 0 -82 83q0 117 126 264q125 146 261 146q45 0 84 -39q80 156 223 418q-51 14 -172 45q-119 31 -192 49q-46 12 -165 37q-109 23 -191 32q-86 9 -165 9 q-424 0 -694 -358zM86 82q0 -70 47 -70q52 0 115 60t106 125q16 41 72 153q-5 40 -34 61q-30 21 -68 21q-84 0 -161 -126q-77 -127 -77 -224zM758 864q281 -80 456 -80q237 0 370 112q132 111 132 257q0 109 -79 185q-80 77 -218 77q-207 0 -370 -147q-164 -147 -269 -359z " />
<glyph unicode="e" horiz-adv-x="448" d="M2 111q0 121 131 246q130 124 256 124q72 0 72 -57q0 -64 -79 -128q-80 -65 -192 -65q-12 0 -49 5v12q22 -2 39 -2q90 0 143 52q54 52 54 103q0 48 -45 48q-72 0 -158 -99q-86 -100 -86 -217q0 -59 36 -95t93 -36q112 0 207 119l84 104l8 -10l-90 -113q-49 -61 -124 -97 t-144 -36q-68 0 -112 36t-44 106z" />
<glyph unicode="f" horiz-adv-x="317" d="M-1204 -465q0 61 30 105q30 43 82 43q24 0 46 -17t22 -43q0 -14 -10 -37q-6 0 -9 1t-8 1q-37 0 -56 -26t-19 -66q0 -105 90 -162t207 -57q226 0 437 199q210 198 374 530l151 303q-84 17 -84 84q0 33 22 58q21 24 52 24q44 0 74 -37l219 418q-8 2 -27 7t-51 14t-64 17 q-90 24 -154 40q-42 10 -138 33q-87 20 -154 31q-81 13 -135 18q-83 8 -146 8q-424 0 -694 -358l-6 6q237 430 680 430q95 0 229 -25q115 -21 208 -46q72 -19 249 -77q108 -35 219 -69q16 31 27 47q124 220 320 363t421 143q171 0 259 -76q89 -77 89 -188q0 -158 -154 -285 t-411 -127q-191 0 -496 76l-256 -512q45 6 97 24l6 -12q-71 -25 -109 -29l-162 -305q-220 -406 -423 -577q-205 -172 -474 -172q-183 0 -277 86q-93 85 -93 194zM68 393q0 -59 71 -69l49 94q-22 37 -61 37q-23 0 -42 -19q-17 -17 -17 -43zM500 864q282 -80 456 -80 q237 0 370 112q132 111 132 257q0 109 -79 185q-80 77 -218 77q-207 0 -370 -147q-164 -147 -269 -359z" />
<glyph unicode="g" horiz-adv-x="550" d="M-1409 -764q0 93 63 192q61 96 177 184q111 85 288 139q175 54 379 54q360 0 561 -174q90 125 150 252l125 271q-117 -174 -256 -174q-82 0 -82 83q0 117 126 264q125 146 261 146q63 0 92 -53q55 22 82 55h12l-297 -616q-76 -154 -165 -275q59 -68 88 -145 q384 362 825 362q252 0 371 -95q118 -94 118 -232q0 -158 -109 -285q-108 -126 -263 -188q-154 -62 -308 -62q-147 0 -246 67q-98 66 -98 193q0 101 99 185t239 84q72 0 107 -29t35 -72q0 -38 -29 -70t-70 -32q-36 0 -53 23q-18 24 -18 53q18 -5 26 -5q29 0 48 21 q20 22 20 45q0 49 -66 49q-136 0 -228 -79q-93 -80 -93 -173q0 -116 92 -178q91 -61 233 -61q141 0 274 54q134 54 230 170q96 115 96 265q0 135 -106 234q-105 98 -320 98q-219 0 -424 -102q-207 -103 -374 -261q22 -70 22 -149q0 -160 -91 -287t-206 -127q-59 0 -59 68 q0 77 78 211q77 131 207 266q-21 79 -74 149q-207 -267 -490 -422q-287 -157 -600 -157q-196 0 -298 75q-101 74 -101 191zM-1376 -762q0 -110 92 -179q91 -69 272 -69q289 0 569 170q278 169 480 439q-96 93 -241 140q-147 48 -312 48q-195 0 -360 -52q-169 -53 -273 -134 q-106 -82 -167 -178q-60 -94 -60 -185zM-119 -1077q0 -47 41 -47q90 0 169 124t79 275q0 51 -10 100q-126 -131 -202 -257q-77 -128 -77 -195zM86 82q0 -70 47 -70q54 0 120 66q69 69 107 131l66 139q-5 43 -34 63q-30 21 -68 21q-84 0 -161 -126q-77 -127 -77 -224z" />
<glyph unicode="h" horiz-adv-x="569" d="M-1204 672q237 430 680 430q97 0 231 -25q117 -22 214 -49q73 -21 249 -77q146 -47 225 -70l29 49q125 226 313 366q190 142 412 142q171 0 259 -76q89 -77 89 -188q0 -157 -155 -285q-154 -127 -410 -127q-191 0 -496 76l-280 -580q196 231 293 231q69 0 69 -57 q0 -50 -74 -187q-73 -136 -73 -169q0 -49 39 -49q56 0 135 94q1 1 17 21t30 37q34 44 37 46l8 -10l-90 -113q-99 -108 -185 -108q-73 0 -73 61q0 40 75 184q74 142 74 187q0 37 -22 37q-58 0 -283 -252l-100 -209h-84l153 313q43 89 279 537q-51 14 -172 45q-89 23 -193 49 q-52 13 -164 37q-109 23 -191 32q-85 9 -165 9q-424 0 -694 -358zM449 864q281 -80 456 -80q237 0 370 112q132 111 132 257q0 109 -79 185q-80 77 -218 77q-208 0 -371 -147q-162 -146 -268 -359z" />
<glyph unicode="i" horiz-adv-x="294" d="M2 74q0 15 1 23q1 12 6 27l9 28q2 4 6.5 15.5t7.5 18.5q8 20 17 38q1 1 9.5 17.5t14.5 29.5q5 10 13 28.5t12 25.5q3 5 13.5 26l18.5 37q7 15 19 39.5t17 33.5q56 0 70 14h12q-1 -2 -59 -122t-85 -184q-34 -81 -34 -120t34 -39q33 0 82 34q51 36 84 77q1 1 17 21t30 37 q35 44 37 46l8 -10l-90 -113q-44 -52 -100 -87q-55 -35 -100 -35q-70 0 -70 94zM268 686q0 21 16 43q15 21 38 21q38 0 38 -37q0 -23 -16 -43q-16 -21 -39 -21q-37 0 -37 37z" />
<glyph unicode="j" horiz-adv-x="223" d="M-1720 -764q0 93 63 192q62 97 176 184q111 84 289 139q176 54 379 54q358 0 563 -174q89 128 148 252l274 578q56 0 70 14h12l-293 -616q-67 -144 -164 -275q59 -68 88 -145q168 161 381 262q210 100 443 100q251 0 370 -95t119 -232q0 -158 -109 -285 q-107 -125 -264 -188q-154 -62 -307 -62q-148 0 -247 67q-97 66 -97 193q0 102 98 185q99 84 240 84q71 0 106 -29t35 -72q0 -39 -28 -70q-29 -32 -70 -32q-36 0 -53 23q-19 25 -19 53q18 -5 27 -5q28 0 48 21q20 22 20 45q0 49 -66 49q-136 0 -228 -79q-94 -80 -94 -173 q0 -115 93 -178q91 -61 233 -61q140 0 274 54t230 170q96 115 96 265q0 135 -106 234q-105 98 -320 98q-417 0 -796 -363q20 -60 20 -149q0 -160 -91 -287t-206 -127q-59 0 -59 68q0 79 77 211q76 130 209 266q-21 79 -73 147q-204 -264 -491 -421q-285 -156 -601 -156 q-196 0 -298 75q-101 74 -101 191zM-1688 -762q0 -109 93 -179q92 -69 272 -69q288 0 568 170q279 170 481 439q-96 93 -241 140q-147 48 -312 48q-195 0 -360 -52q-169 -53 -273 -134q-106 -82 -167 -178t-61 -185zM-430 -1077q0 -47 41 -47q90 0 169 124t79 275 q0 47 -11 100q-124 -128 -201 -257q-77 -128 -77 -195zM268 686q0 21 16 43q15 21 38 21q38 0 38 -37q0 -23 -16 -43q-16 -21 -39 -21q-37 0 -37 37z" />
<glyph unicode="k" horiz-adv-x="573" d="M-1204 672q237 430 680 430q97 0 231 -25q117 -22 214 -49q73 -21 249 -77q146 -47 225 -70l29 49q125 226 313 366q190 142 412 142q171 0 259 -76q89 -77 89 -188q0 -157 -155 -285q-154 -127 -410 -127q-191 0 -496 76l-303 -627l-100 -209h-84l153 313q43 89 279 537 q-51 14 -172 45q-89 23 -193 49q-52 13 -164 37q-109 23 -191 32q-85 9 -165 9q-424 0 -694 -358zM168 227q0 29 26 44q27 16 62 16q40 0 80 -23q26 26 71 84q49 64 81 94q37 35 67 35q51 0 51 -47q0 -22 -15 -42q-15 -19 -38 -19q-16 0 -23 4q5 5 5 14q0 25 -25 25 q-14 0 -38 -24q-10 -10 -60 -64q-44 -47 -66 -66q33 -29 33 -70q0 -4 -2 -58l-2 -54q0 -49 39 -49q56 0 135 94q1 1 17 21t30 37q34 44 37 46l8 -10l-90 -113q-99 -108 -184 -108q-74 0 -74 61q0 19 8 81t8 79q0 8 -2 14q-48 -32 -94 -32q-45 0 -45 30zM213 248 q0 -27 43 -27q24 0 49 19q-14 36 -55 36q-37 0 -37 -28zM449 864q281 -80 456 -80q237 0 370 112q132 111 132 257q0 109 -79 185q-80 77 -218 77q-208 0 -371 -147q-162 -146 -268 -359z" />
<glyph unicode="l" horiz-adv-x="294" d="M-1214 672q235 430 679 430q98 0 232 -25q117 -22 214 -49q73 -21 249 -77q146 -47 225 -70l29 49q129 225 315 366q187 142 410 142q171 0 259 -76q89 -77 89 -188q0 -157 -155 -285q-154 -127 -410 -127q-188 0 -498 76q-168 -334 -258 -537q-13 -26 -26 -53 q-7 -15 -17.5 -38.5t-14.5 -31.5q-15 -32 -26 -66q-12 -37 -12 -63q0 -39 34 -39q33 0 82 34q51 36 84 77q1 1 17 21t30 37q35 44 37 46l8 -10l-90 -113q-44 -52 -100 -87q-55 -35 -100 -35q-70 0 -70 94q0 32 13 68q16 44 43 101q31 66 34 72q60 141 279 537 q-51 14 -172 45q-89 23 -193 49q-46 12 -165 37q-110 24 -190 32q-85 9 -165 9q-424 0 -694 -358zM438 864q281 -80 457 -80q237 0 370 112q132 111 132 257q0 109 -79 185q-80 77 -218 77q-208 0 -371 -147q-162 -146 -268 -359z" />
<glyph unicode="m" horiz-adv-x="843" d="M-51 2l221 459q56 0 70 14h12l-94 -215q195 229 291 229q65 0 65 -57q0 -39 -45 -129q168 186 254 186q70 0 70 -57q0 -50 -74 -187t-74 -169q0 -49 39 -49q56 0 135 94q1 1 17 21t30 37q35 44 37 46l8 -10l-90 -113q-99 -108 -184 -108q-74 0 -74 61q0 40 75 184t75 187 q0 37 -23 37q-52 0 -244 -207q-21 -45 -51 -108q-11 -24 -28 -57.5t-21 -42.5q-19 -39 -20 -46h-84l20 43q168 318 168 395q0 23 -14 23q-58 0 -283 -252l-100 -209h-84z" />
<glyph unicode="n" horiz-adv-x="569" d="M-51 2l221 459q56 0 70 14h12l-94 -215q195 229 291 229q69 0 69 -57q0 -50 -74 -187q-73 -136 -73 -169q0 -49 39 -49q56 0 135 94q1 1 17 21t30 37q34 44 37 46l8 -10l-90 -113q-99 -108 -185 -108q-73 0 -73 61q0 40 75 184q74 142 74 187q0 37 -22 37 q-58 0 -283 -252l-100 -209h-84z" />
<glyph unicode="o" horiz-adv-x="493" d="M-2 84q0 85 77 192q77 108 193 164l11 -14q-91 -53 -141 -136t-50 -159q0 -121 80 -121q73 0 149 94t76 211q0 83 -71 121q0 27 17 41q18 15 42 15q36 0 66 -30t30 -85q0 -126 -110 -260q-111 -135 -256 -135q-113 0 -113 102z" />
<glyph unicode="p" horiz-adv-x="526" d="M-1722 -764q0 93 63 192q62 97 176 184q111 84 289 139q176 54 379 54q360 0 561 -174q90 125 150 252l274 578q56 0 70 14h12l-68 -141q44 54 106 90q61 35 111 35q86 0 86 -111q0 -155 -105 -266t-196 -111q-59 0 -59 49q0 47 47 114t92 91l8 -12q-36 -26 -72 -86 q-34 -56 -34 -96q0 -39 39 -39q57 0 133 106t76 221q0 91 -78 91q-42 0 -94 -38q-49 -36 -88 -100l-197 -413q-67 -144 -164 -275q59 -68 88 -145q168 161 381 262q210 100 443 100q251 0 370 -95t119 -232q0 -157 -110 -285q-108 -126 -263 -188q-154 -62 -307 -62 q-148 0 -247 67q-97 66 -97 193q0 102 98 185q99 84 240 84q71 0 106 -29t35 -72q0 -39 -28 -70q-29 -32 -70 -32q-36 0 -53 23q-19 25 -19 53q18 -5 27 -5q28 0 48 21q19 20 19 45q0 49 -65 49q-136 0 -228 -79q-94 -80 -94 -173q0 -115 93 -178q91 -61 233 -61 q140 0 273 54q135 55 231 170t96 265q0 135 -106 234q-105 98 -320 98q-418 0 -797 -363q21 -63 21 -149q0 -160 -91 -287t-206 -127q-59 0 -59 68q0 79 77 211q76 130 209 266q-21 79 -73 147q-204 -264 -491 -421q-285 -156 -601 -156q-196 0 -298 75q-101 74 -101 191z M-1690 -762q0 -109 93 -179q91 -69 272 -69q287 0 566 171q281 172 483 440q-192 186 -553 186q-195 0 -360 -52q-169 -53 -273 -134q-106 -82 -167 -178t-61 -185zM-432 -1077q0 -47 41 -47q90 0 169 124t79 275q0 47 -11 100q-124 -128 -201 -257q-77 -128 -77 -195z" />
<glyph unicode="q" horiz-adv-x="540" d="M-92 -735l422 882q-122 -165 -252 -165q-86 0 -86 86q0 117 130 262t275 145q43 0 43 -45q0 -38 -33 -71t-88 -33q-24 0 -53 8l4 10q8 -2 19 -2q36 0 71 35t35 61q0 21 -22 21q-107 0 -197 -129t-90 -242q0 -74 47 -74q49 0 113 58q65 59 104 118l107 224q63 25 92 61h12 l-293 -616h144l-2 -13h-148l-274 -581h-80z" />
<glyph unicode="r" horiz-adv-x="413" d="M-51 2l221 459q56 0 70 14h12l-64 -137q45 66 105 105q58 38 100 38q74 0 74 -65q0 -36 -24 -66q-25 -31 -56 -31q-13 0 -31 9q27 27 27 71q0 35 -31 35q-38 0 -91 -43q-55 -44 -105 -125l-123 -264h-84z" />
<glyph unicode="s" horiz-adv-x="401" d="M-63 88q0 34 21 55t46 21h6l49 61q195 235 267 355q-2 -24 -2 -56q0 -60 10 -141t10 -115q0 -170 -127 -248q-69 -45 -149 -45q-55 0 -94 31q-37 30 -37 82zM12 45q0 -51 66 -51q74 0 123 55q59 71 59 223q0 157 10 193q-2 -2 -56 -70q-60 -75 -98 -122q-44 -54 -48 -58 l-43 -55q24 -15 24 -47q0 -13 -6 -25q-31 -8 -31 -43z" />
<glyph unicode="t" horiz-adv-x="315" d="M2 74q0 65 90 241l230 455q50 4 59 14h12l-131 -276h166l-2 -12h-170l-86 -185q-2 -5 -12 -25.5t-17 -35.5q-18 -39 -27 -60q-3 -8 -10.5 -24.5t-10.5 -22.5q-11 -24 -16 -45q-5 -20 -5 -30q0 -64 45 -64q35 0 86 36q50 35 88 81q1 1 17 21t30 37q34 44 37 46l8 -10 l-90 -113q-44 -52 -106 -87q-61 -35 -109 -35q-76 0 -76 94z" />
<glyph unicode="u" horiz-adv-x="602" d="M2 74q0 15 1 23q1 12 6 27l9 28q2 4 6.5 15.5t7.5 18.5q8 20 17 38q1 1 9.5 17.5t14.5 29.5q5 10 13 28.5t12 25.5q3 5 13.5 26l18.5 37q7 15 19 39.5t17 33.5q56 0 70 14h12q-4 -12 -55 -120q-47 -99 -84 -183q-37 -83 -37 -104q0 -56 37 -56q34 0 84 40q52 41 88 83 q14 15 79 101l113 225q56 0 70 14h12q-3 -9 -58 -122q-58 -120 -85 -184q-35 -84 -35 -120q0 -39 35 -39q33 0 82 34q51 36 84 77q1 1 17 21t30 37q35 44 37 46l8 -10l-90 -113q-43 -50 -101 -87q-55 -35 -100 -35q-70 0 -70 94q0 43 29 110q-3 -4 -10.5 -12.5t-11.5 -13.5 q-14 -16 -21 -27q-5 -7 -12 -14q-45 -53 -107 -92t-106 -39q-68 0 -68 88z" />
<glyph unicode="v" horiz-adv-x="505" d="M47 231q0 54 31 104q31 49 63 74q27 21 95 64l4 -10q-48 -30 -82 -78q-35 -50 -35 -102q0 -27 8 -64q8 -36 15 -53q15 -37 28 -63q17 -34 25 -54q72 46 143 122q74 80 74 144q0 72 -72 121q0 24 16 39q15 14 41 14q39 0 68 -29q31 -31 31 -85q0 -39 -21 -81 q-22 -43 -45 -74q-24 -32 -73 -73q-47 -39 -76 -61q-20 -15 -84 -58q-41 -28 -70 -48q-6 0 -6 12q0 43 -39 118t-39 121z" />
<glyph unicode="w" horiz-adv-x="706" d="M47 231q0 54 31 104q31 49 63 74q27 21 95 64l4 -10q-48 -30 -82 -78q-35 -50 -35 -102q0 -27 8 -64q8 -36 15 -53q15 -37 28 -63q17 -34 25 -54q43 26 88 60q-39 69 -39 122t33 83t75 30q33 0 53 -17q21 -18 21 -48q0 -58 -76 -134l45 -96q75 47 144 122q73 79 73 144 q0 72 -71 121q0 24 16 39q15 14 41 14q39 0 68 -29q30 -30 30 -85q0 -41 -20 -81q-22 -43 -45 -74q-24 -32 -73 -73q-40 -34 -77 -61q-20 -15 -84 -58q-12 -8 -69 -48q-6 0 -6 12q0 36 -31 100q-32 -26 -91 -64q-53 -34 -73 -48q-6 0 -6 12q0 43 -39 118t-39 121zM324 283 q0 -54 24 -117q51 52 51 104q0 25 -13 39q-14 15 -30 15q-32 0 -32 -41z" />
<glyph unicode="x" horiz-adv-x="641" d="M-63 88q0 34 21 55t46 21h6l49 61q180 230 254 230q49 0 49 -101v-4q52 57 120 96q64 37 110 37q57 0 57 -55q0 -38 -24 -62t-52 -24q-24 0 -24 20q18 18 18 54q0 33 -26 33q-54 0 -131 -94q-76 -92 -76 -222q0 -135 88 -135q77 0 194 123q2 2 18 21.5t30 36.5 q10 12 19 24t13 17l4 5l9 -10l-91 -113q-50 -62 -113 -97q-65 -36 -122 -36q-115 0 -127 121q-85 -110 -207 -110q-49 0 -81 27q-31 27 -31 81zM14 51q0 -35 15 -44t41 -9q79 0 152 112q73 113 73 207q0 70 -37 70q-60 0 -190 -172l-43 -55q24 -15 24 -47q0 -29 -35 -58v-4z " />
<glyph unicode="y" horiz-adv-x="542" d="M-1423 -764q0 93 63 192q62 97 176 184q111 84 289 139q175 54 379 54q360 0 561 -174q90 125 150 252l141 299q-40 -52 -53 -65q-45 -53 -107 -92t-106 -39q-68 0 -68 88q0 15 1 23q1 12 6 27l9 28q2 4 6.5 15.5t7.5 18.5q8 20 17 38q1 1 9.5 17.5t14.5 29.5 q5 10 13 28.5t12 25.5q3 5 13.5 26l18.5 37q7 15 19 39.5t17 33.5q56 0 70 14h12q-4 -12 -55 -120q-47 -99 -84 -183q-37 -83 -37 -104q0 -56 37 -56q34 0 84 40q52 41 88 83q24 30 47 59q34 44 37 46l104 221q56 0 70 14h12l-293 -616q-74 -150 -166 -275q59 -65 88 -145 q384 362 826 362q251 0 370 -95t119 -232q0 -157 -110 -285q-108 -126 -263 -188q-154 -62 -307 -62q-148 0 -247 67q-97 66 -97 193q0 102 98 185q99 84 240 84q71 0 106 -29t35 -72q0 -39 -28 -70q-29 -32 -70 -32q-36 0 -53 23q-19 25 -19 53q18 -5 27 -5q29 0 48 21 q20 22 20 45q0 49 -66 49q-136 0 -228 -79q-94 -80 -94 -173q0 -115 93 -178q91 -61 233 -61q139 0 273 54q135 55 231 170t96 265q0 135 -106 234q-105 98 -320 98q-219 0 -425 -102q-207 -103 -374 -261q23 -74 23 -149q0 -160 -91 -287t-206 -127q-59 0 -59 68 q0 79 77 211q77 131 207 266q-21 82 -71 147q-204 -264 -491 -421q-285 -156 -601 -156q-196 0 -298 75q-101 74 -101 191zM-1391 -762q0 -109 93 -179q92 -69 272 -69q288 0 568 170q279 170 481 439q-96 93 -241 140q-147 48 -312 48q-195 0 -360 -52q-169 -53 -273 -134 q-106 -82 -167 -178t-61 -185zM-133 -1077q0 -47 41 -47q90 0 169 124t79 275q0 47 -11 100q-124 -128 -201 -257q-77 -128 -77 -195z" />
<glyph unicode="z" horiz-adv-x="501" d="M-49 14q0 29 49 59q48 29 121 29q19 0 37 -6q36 38 215 266q-16 -4 -51 -4q-142 0 -142 115q0 21 16 43q15 21 37 21q39 0 39 -37q0 -22 -18 -43t-41 -21h-2q1 -26 39 -43q36 -16 86 -16q22 0 51 4q114 137 176 137q23 0 23 -26q0 -35 -56 -71q-54 -35 -129 -52 q-19 -24 -61 -83q-48 -67 -85 -111q-40 -48 -79 -85q13 -5 50 -24q40 -21 61 -29q26 -10 55 -10q56 0 135 94q1 1 17 21t30 37q35 44 37 46l8 -10l-90 -113q-105 -114 -211 -114q-39 0 -147 53q-72 -51 -131 -51q-39 0 -39 24zM-10 37q0 -23 43 -23q27 0 73 35 q-40 21 -67 21q-19 0 -35 -11q-14 -10 -14 -22z" />
<glyph unicode="{" horiz-adv-x="446" d="M74 -180q0 105 39 213q40 110 87 181q46 69 87 159q39 86 39 151q0 48 -27 82l-2 15q78 1 145 55q44 38 81 132q41 104 63 191q23 94 74 201q50 105 116 158q58 53 135 53v-14q-49 -6 -80 -31q-51 -43 -88 -136q-34 -84 -59 -186q-22 -90 -77 -198q-54 -106 -134 -174 q-85 -68 -156 -68q41 -56 41 -127q0 -85 -41 -188q-40 -100 -89 -180t-89 -164q-41 -87 -41 -146q0 -76 52 -145l-13 -8q-63 63 -63 174z" />
<glyph unicode="|" horiz-adv-x="501" d="M-45 -367l856 1778l16 -8l-856 -1778z" />
<glyph unicode="}" horiz-adv-x="446" d="M-139 -340q49 6 80 31q51 43 94 152q44 110 74 222q29 108 91 233q60 121 140 189q78 66 156 66q-41 61 -41 129q0 81 109 283q110 203 110 292q0 79 -51 146l12 8q63 -63 63 -174t-32 -210q-33 -103 -73 -163q-39 -60 -73 -124q-33 -63 -33 -105q0 -47 27 -82l2 -14 q-76 -1 -145 -56q-44 -38 -87 -147q-46 -117 -77 -226q-35 -121 -89 -237q-58 -123 -122 -174q-58 -53 -135 -53v14z" />
<glyph unicode="&#xa1;" horiz-adv-x="559" d="M-125 -664l6 -2q28 15 86 15h10l547 1294l-16 8zM530 782q0 21 17 43q17 21 39 21q37 0 37 -37q0 -21 -16 -43q-15 -21 -38 -21q-39 0 -39 37z" />
<glyph unicode="&#xa2;" horiz-adv-x="428" d="M51 29l90 131q-41 29 -41 92q0 110 111 205q110 94 195 94h4l84 121l8 -10l-78 -113q33 -11 33 -43q0 -30 -19 -49t-39 -19q-18 0 -18 17q0 8 4 21t4 24l-209 -301q23 -33 68 -33q75 0 166 94l8 -16q-85 -105 -205 -105q-40 0 -67 15l-93 -134zM162 268q0 -35 12 -59 l209 303q-6 6 -16 6q-53 0 -129 -76t-76 -174z" />
<glyph unicode="&#xa3;" horiz-adv-x="667" d="M-80 25q144 66 221 183q78 118 135 288h-137l2 12h140q19 60 44 135q13 41 46 112q30 66 68 107t89 68q72 39 154 39q63 0 108 -31q44 -30 44 -92q0 -35 -20 -66q-20 -30 -48 -30q-26 0 -41 15q-14 14 -14 36q0 21 12 33h8q27 0 42 15t15 36q0 65 -92 65q-86 0 -149 -45 q-34 -24 -55 -50q-26 -33 -46 -78q-4 -9 -30 -76q-13 -32 -32 -99q-9 -32 -30 -94h152l-2 -12h-154q-90 -277 -264 -404q108 33 182 33q169 0 226 -133l168 182l12 -14l-2 -2q-42 -59 -223 -240q-86 164 -267 164q-29 0 -50 -4q-24 -4 -51 -12q-8 -2 -16 -5t-16.5 -6 t-12.5 -4q-22 -7 -50 -20q-35 -16 -49 -21z" />
<glyph unicode="&#xa5;" horiz-adv-x="618" d="M137 2l139 336h-137l2 12h138q14 53 16 70h-133l2 12h133q25 122 25 223q0 147 -50 206t-104 59q-15 0 -21 -2l-8 8q37 30 78 30q62 0 104 -70q41 -69 41 -198q0 -96 -30 -229q128 242 289 372q157 127 274 127q80 0 104 -53l-16 -8q-29 12 -74 12q-79 0 -171 -39 t-202 -152q-113 -116 -190 -286h174l-2 -12h-176l-29 -70h185l-2 -12h-187q-59 -154 -88 -336h-84z" />
<glyph unicode="&#xa6;" horiz-adv-x="501" d="M-45 -367l301 627h18l-303 -635zM485 737l326 674l16 -8l-321 -666h-21z" />
<glyph unicode="&#xa7;" horiz-adv-x="581" d="M-37 14q0 34 20 62q19 26 48 26q26 0 41 -15q14 -14 14 -36q0 -21 -12 -33q-3 0 -6 1t-7 1q-43 0 -43 -38q0 -31 25 -50t57 -20q81 44 121 169q41 129 59 270q19 155 43 283q26 140 101 230q77 92 209 92q77 0 111 -33q36 -35 36 -81q0 -36 -19 -62t-48 -26q-26 0 -41 15 t-15 36q0 20 13 33q3 0 6 -1t6 -1q43 0 43 38q0 31 -25 50t-57 20q-72 -52 -111 -150q-40 -101 -55 -215t-36 -237q-19 -114 -49 -219q-27 -97 -99 -160t-182 -63q-78 0 -112 33q-36 35 -36 81zM125 -90q106 7 166 104q60 96 81 233q27 177 40 277q18 143 67 261 q50 121 139 161q-105 -7 -164 -100q-59 -92 -80 -226q-20 -129 -39 -274q-18 -136 -68 -263q-49 -123 -142 -173z" />
<glyph unicode="&#xa8;" horiz-adv-x="307" d="M135 705q0 21 16 43q14 20 37 20q39 0 39 -37q0 -23 -16 -43t-39 -20q-37 0 -37 37zM340 705q0 22 15 43q14 20 38 20q39 0 39 -37q0 -23 -16 -43t-39 -20q-37 0 -37 37z" />
<glyph unicode="&#xa9;" horiz-adv-x="886" d="M117 80q0 106 68 220q70 118 187 199q119 83 242 83q118 0 176 -55q56 -53 56 -144q0 -165 -154 -333q-153 -167 -342 -167q-118 0 -176 55q-57 54 -57 142zM133 80q0 -81 53 -131q52 -49 164 -49q183 0 331 161t148 322q0 82 -53 132t-162 50q-120 0 -235 -80 q-114 -79 -180 -192t-66 -213zM297 150q0 87 86 179q85 91 190 91q19 0 39 -4t29 -4q29 0 43 20h8l-67 -139h-7q13 32 13 59q0 58 -66 58q-74 0 -146 -96q-71 -95 -71 -177q0 -76 70 -76q78 0 160 105h8l-60 -125h-8v6q0 25 -12 25l-37 -11q-40 -8 -59 -8q-113 0 -113 97z " />
<glyph unicode="&#xaa;" horiz-adv-x="534" d="M190 469q0 77 82 171q83 95 170 95q37 0 60 -35q35 15 51 37h14q-4 -9 -36 -77q-11 -22 -53 -115q-23 -50 -23 -68q0 -33 24 -33q31 0 82 62l2 -12q-67 -70 -121 -70q-45 0 -45 41q0 25 15 63q-76 -114 -168 -114q-54 0 -54 55zM254 492q0 -43 31 -43t70 32q40 33 67 70 l47 100q-2 54 -66 54q-50 0 -100 -77q-49 -76 -49 -136z" />
<glyph unicode="&#xab;" horiz-adv-x="878" d="M172 244l8 14q166 28 336 109q167 80 199 122q20 -14 20 -34q0 -60 -181 -123q-184 -64 -335 -86q254 -102 363 -205q16 -15 16 -33q0 -9 -6 -21t-12 -18l-7 -6q-25 35 -124 104q-101 71 -189 123zM375 225l8 15q176 23 301 57q138 38 162 68q10 -11 10 -31 q0 -85 -430 -109q354 -105 354 -192l-10 -39q-38 52 -186 133q-147 81 -209 98z" />
<glyph unicode="&#xad;" horiz-adv-x="745" d="M152 268q68 74 143 74q51 0 140 -47t132 -47q52 0 101 49l12 -12q-89 -74 -168 -74q-56 0 -141 44t-121 44q-46 0 -86 -39z" />
<glyph unicode="&#xae;" horiz-adv-x="886" d="M117 86q0 106 68 220q70 118 187 199q119 83 242 83q119 0 176 -54q56 -53 56 -145q0 -165 -154 -333q-153 -167 -342 -167q-118 0 -176 55q-57 54 -57 142zM133 86q0 -81 53 -131q52 -49 164 -49q182 0 331 162q148 161 148 321q0 82 -53 132t-162 50q-122 0 -235 -79 t-180 -193q-66 -113 -66 -213zM215 63l4 9q25 0 45 4q29 6 35 8l10 4l146 307q-2 17 -74 17l4 8h113q18 0 34 1t33 1q46 0 70 -15t24 -38q0 -43 -48 -77q-48 -35 -91 -36h-2q51 -10 51 -68q0 -16 -6 -55t-6 -57q0 -10 23 -10l-2 -9h-21q-51 0 -51 47q0 20 9 60t9 57 q0 31 -51 31h-37l-78 -164q6 -16 58 -16l-4 -9h-197zM440 260h60q41 0 75 43q35 44 35 78q0 31 -57 31q-41 0 -49 -19z" />
<glyph unicode="&#xaf;" d="M303 756v16l309 2v-16q-82 0 -157 -0.5t-110.5 -1t-41.5 -0.5z" />
<glyph unicode="&#xb0;" d="M270 670q0 43 41 81q40 37 76 37q31 0 31 -34q0 -46 -40 -83q-41 -38 -75 -38q-33 0 -33 37zM301 686q0 -31 21 -31q20 0 44 26q23 24 23 54q0 29 -20 29t-44 -26t-24 -52z" />
<glyph unicode="&#xb2;" horiz-adv-x="583" d="M102 330q0 40 70 87q68 46 160 46q19 0 67 -8q93 85 155 185q64 103 64 187q0 61 -26 100q-27 40 -82 40q-65 0 -114 -67q-48 -66 -48 -130q0 -100 70 -100t139 100l10 -8q-40 -65 -81 -100t-97 -35q-38 0 -62 25q-24 26 -24 67q0 95 85 193q86 100 173 100q49 0 85 -42 t36 -108q0 -84 -76 -200q-77 -118 -184 -216q67 -24 113 -79l45 41l12 -7l-113 -104l-12 22q-11 23 -32 52q-22 29 -48 47q-141 -117 -242 -117q-43 0 -43 29zM164 362q0 -18 39 -18q63 0 164 84q-31 14 -64 14q-38 0 -88 -25q-51 -25 -51 -55z" />
<glyph unicode="&#xb3;" horiz-adv-x="583" d="M158 408q0 32 20 53q21 22 51 22q50 0 50 -41q0 -13 -9 -22q-53 0 -53 -41q0 -31 25 -50q24 -18 59 -18q95 0 155 84t60 176q0 51 -20 80q-22 31 -60 31q-27 0 -52 -7q-23 -6 -44 -16l-14 -6l-7 9l345 301q-93 -70 -193 -70q-38 0 -65 18q-14 -8 -46 -22q-7 -3 -19.5 -9 t-18.5 -8l-15 -4l-10 4q51 16 100 46q-20 20 -20 49q0 20 17 33q19 14 38 14q33 0 33 -27v-6q0 -13 -10 -27q12 -22 55 -22q89 0 207 76l6 -9l-328 -288l2 -6q33 18 70 18q64 0 94 -34q31 -36 31 -87q0 -103 -88 -203t-209 -100q-50 0 -94 29q-43 28 -43 80z" />
<glyph unicode="&#xb4;" d="M477 641q105 51 123 209q37 8 64 8q34 0 34 -14q0 -40 -65 -115q-65 -76 -144 -94z" />
<glyph unicode="&#xb6;" horiz-adv-x="1103" d="M-582 -100q0 59 31 104q30 43 82 43q26 0 46 -16q22 -17 22 -43q0 -12 -11 -37q-4 0 -8 1t-8 1q-37 0 -56 -27q-20 -28 -20 -65q0 -107 91 -162t227 -55q99 0 186 40q92 42 152 98t122 150q61 93 98 173q34 74 81 190q102 258 288 504q-124 -103 -221 -103q-58 0 -93 39 q-34 38 -34 109q0 140 127 251q128 111 367 111q110 0 254 -30l43 24l12 -6q-104 -61 -185 -133t-135 -135q-56 -65 -115 -176q-57 -107 -96 -193q-48 -106 -106 -246q-225 -533 -579 -657q102 15 185 47q86 33 149 73q64 41 120 100q55 58 93 110q36 50 75 126 q36 71 58 123q35 84 51 125q101 258 261 488t335 354l12 -8q-43 -30 -92 -74q-39 -35 -76 -77q-32 -36 -66 -89q-32 -49 -54 -92q-19 -37 -51 -107q-15 -34 -49 -114q-5 -13 -22.5 -56.5t-30.5 -73.5q-20 -47 -59 -138q-214 -514 -594 -670q-197 -82 -436 -82 q-183 0 -277 86t-94 195zM500 881q0 -133 86 -133q40 0 90 31q43 27 85 63q21 19 93 92q60 61 76 76q86 84 192 153q-133 23 -221 23q-103 0 -183 -24t-119 -56q-40 -33 -64 -79q-26 -51 -30 -79q-5 -37 -5 -67z" />
<glyph unicode="&#xb7;" horiz-adv-x="342" d="M150 182q0 22 15 43t38 21q39 0 39 -37q0 -21 -17 -43q-17 -21 -39 -21q-36 0 -36 37z" />
<glyph unicode="&#xb8;" horiz-adv-x="428" d="M27 -123q0 13 6 25l6 -2v-4q0 -14 20 -21q22 -8 45 -8q68 0 68 43q0 12 -14 18q-15 6 -27 6l-14 3l24 49l17 -9l-15 -24q45 -6 45 -43q0 -21 -14 -41q-29 -41 -88 -41q-25 0 -42 14t-17 35z" />
<glyph unicode="&#xb9;" horiz-adv-x="448" d="M182 301l338 637q-11 -11 -31 -36q-28 -35 -38 -45q-15 -15 -39 -36q-19 -16 -50 -30q-25 -11 -49 -11q-26 0 -26 29q0 22 14 37q19 -17 47 -17q72 0 184 144l21 -2l-295 -670h-76z" />
<glyph unicode="&#xba;" horiz-adv-x="493" d="M193 481q0 54 50 124q49 68 126 106l6 -13q-119 -74 -119 -186q0 -74 47 -74q45 0 96 62q52 63 52 131q0 46 -48 74q0 36 39 36q25 0 43 -18q19 -19 19 -53q0 -80 -72 -168t-166 -88q-73 0 -73 67z" />
<glyph unicode="&#xbb;" horiz-adv-x="878" d="M98 119q0 84 430 108q-354 105 -354 193l10 39q37 -51 187 -133q151 -83 209 -99l-9 -14q-176 -23 -301 -57q-137 -38 -161 -68q-11 13 -11 31zM219 -2q0 60 181 123q184 64 335 86q-253 102 -362 205q-17 15 -17 32q0 10 6 22q4 8 13 17l6 6q23 -31 125 -103 q115 -81 188 -124l88 -53l-8 -14q-166 -28 -336 -109q-164 -78 -198 -123q-21 15 -21 35z" />
<glyph unicode="&#xbc;" horiz-adv-x="944" d="M109 -82q16 18 209 320q57 89 181.5 282.5t188.5 294.5l178 285l13 -8q-701 -1141 -740 -1186zM182 301l338 637q-11 -11 -31 -36q-28 -35 -38 -45q-15 -15 -39 -36q-19 -16 -50 -30q-25 -11 -49 -11q-26 0 -26 29q0 22 14 37q19 -17 47 -17q72 0 184 144l21 -2 l-295 -670h-76zM418 125q108 114 218 276q113 166 157 293h92q-137 -200 -199 -282q-16 -20 -41 -50l-32 -36t-39 -45q-45 -52 -103 -121q87 35 115 35q15 0 38 -7q22 -7 43 -16q14 -6 35 -14q89 140 103 170l12 -6l-69 -170q42 0 77 18t35 49q0 13 -6 25q6 10 20 10 q21 0 21 -21q0 -41 -48 -66q-49 -26 -91 -26h-13l-57 -141h-82q1 5 14 26q5 7 17.5 27t18.5 29q33 52 40 63q-1 0 -21 3.5t-39 5.5q-48 6 -73 6q-89 0 -129 -35h-14z" />
<glyph unicode="&#xbd;" horiz-adv-x="944" d="M109 -82q16 18 209 320q57 89 181.5 282.5t188.5 294.5l178 285l13 -8q-701 -1141 -740 -1186zM182 301l338 637q-11 -11 -31 -36q-28 -35 -38 -45q-15 -15 -39 -36q-19 -16 -50 -30q-25 -11 -49 -11q-26 0 -26 29q0 22 14 37q19 -17 47 -17q72 0 184 144l21 -2 l-295 -670h-76zM422 -2q0 40 70 87q68 46 159 46q20 0 68 -8q90 83 154 185q65 104 65 188q0 58 -27 99q-27 40 -82 40q-64 0 -113 -67q-48 -66 -48 -130q0 -100 69 -100q71 0 140 100l10 -8q-40 -65 -81 -100t-97 -35q-39 0 -63 26q-23 24 -23 66q0 96 85 194q86 99 173 99 q49 0 85 -42q35 -41 35 -108q0 -85 -75 -200q-74 -113 -185 -215q66 -24 113 -80l45 41l12 -6l-112 -105l-13 23q-11 24 -31 51q-22 29 -48 47q-141 -117 -242 -117q-43 0 -43 29zM483 31q0 -19 39 -19q64 0 164 84q-33 15 -63 15q-36 0 -88 -26t-52 -54z" />
<glyph unicode="&#xbe;" horiz-adv-x="1089" d="M158 408q0 32 20 53q21 22 51 22q50 0 50 -41q0 -13 -9 -22q-53 0 -53 -41q0 -31 25 -50q24 -18 59 -18q95 0 155 84t60 176q0 51 -20 80q-22 31 -60 31q-27 0 -52 -7q-23 -6 -44 -16l-14 -6l-7 9l345 301q-93 -70 -193 -70q-39 0 -66 18q-17 -10 -45 -22q-7 -3 -19.5 -9 t-18.5 -8l-15 -4l-10 4q51 16 100 46q-20 20 -20 49q0 20 17 33q19 14 38 14q33 0 33 -27v-6q0 -13 -10 -27q12 -22 55 -22q89 0 207 76l6 -9l-328 -288l2 -6q33 18 70 18q64 0 94 -34q31 -36 31 -87q0 -103 -88 -203t-209 -100q-50 0 -94 29q-43 28 -43 80zM254 -82 q20 23 210 320q171 268 367 577l181 285l12 -8q-704 -1145 -739 -1186zM563 125q108 114 218 276q113 166 157 293h92q-137 -200 -199 -282l-40 -50l-32 -36t-39 -45q-81 -94 -104 -121q90 35 115 35q15 0 38 -7q22 -7 43 -16q8 -3 36 -14q85 133 102 170l13 -6l-70 -170 q43 0 78 18t35 49q0 11 -7 25q6 10 21 10q20 0 20 -21q0 -41 -48 -66q-49 -26 -91 -26h-12l-58 -141h-81q1 5 14 26q4 7 17 27t19 29q33 52 40 63q-1 0 -21.5 3.5t-39.5 5.5q-48 6 -72 6q-94 0 -129 -35h-15z" />
<glyph unicode="&#xbf;" horiz-adv-x="688" d="M-193 -354q0 -125 77 -211t206 -86q130 0 270 70t239 193q97 121 97 249q0 109 -61 163t-160 54q-143 0 -272 -96t-129 -232q0 -55 37 -85t90 -30q81 0 159 73q76 71 82 153l-10 2q-15 -81 -65 -132q-51 -53 -119 -53q-119 0 -119 113q0 109 93 181q94 73 204 73 q85 0 143 -50t58 -151q0 -186 -154 -323t-321 -137q-122 0 -193 81q-72 83 -72 199q0 108 72 213q70 103 175 186q25 20 206 161q102 80 174 168t72 175q0 36 -28 58q-26 20 -64 20q-35 0 -58 -16q-24 -17 -24 -45q0 -31 26 -64q19 19 33 19q21 0 21 -27q0 -71 -71 -153 q-69 -80 -171 -157q-100 -76 -201 -159q-103 -84 -171 -186q-71 -106 -71 -211zM557 786q0 23 16 43q17 21 39 21q37 0 37 -37q0 -22 -15 -43q-14 -20 -38 -20q-39 0 -39 36z" />
<glyph unicode="&#xc0;" horiz-adv-x="1722" d="M-96 1245q0 105 47 210q46 103 134 192q87 88 230 142q144 54 320 54q113 0 243 -43q135 -44 236 -95t245 -95q139 -43 265 -43q196 0 397 82l4 -11q-199 -251 -350 -731q-149 -474 -149 -846q0 -346 131 -454l-12 -15q-228 114 -228 498q0 230 82 524h-375 q-120 -188 -225 -305q75 -60 182 -98l11 -21q-83 -30 -209 -104q121 -66 233 -66q87 0 150 39l6 -14q-97 -74 -213 -74q-115 0 -236 78q-126 -82 -188 -158l-2 5q-61 58 -133 108q-167 -67 -338 -67q-94 0 -143 30q-50 30 -50 76q0 49 62 87t168 38q177 0 346 -100 q64 38 123 92q-156 120 -291 137l-4 20q13 0 23 1q16 2 59 12q44 11 83 28q36 16 91 58q51 39 90 90q61 -94 127 -154q80 102 185 265q62 96 182 290q75 121 174 262q95 136 196 225q105 93 217 132l6 -13q-75 -34 -143 -97q-73 -68 -139 -163q-84 -120 -124 -185 q-67 -108 -134 -223q-62 -106 -133 -218h370q76 262 212 540q131 269 278 455q-252 -121 -482 -121q-129 0 -261 51q-127 49 -223 112q-97 64 -208 112q-117 51 -219 51q-158 0 -293 -53q-129 -51 -215 -140q-82 -85 -127 -187t-45 -204q0 -151 96 -253q95 -101 277 -101 q124 0 222 40q101 41 159 105q60 66 90 141q31 77 31 150q0 117 -67 181q-66 63 -167 63q-136 0 -250 -106q-112 -105 -112 -279h-17v12q0 192 117 311t258 119q109 0 181 -77q73 -78 73 -224q0 -171 -135 -312t-383 -141q-186 0 -288 107q-101 105 -101 266zM4 45 q0 -35 45 -59q47 -25 131 -25q148 0 289 66q-171 110 -309 110q-70 0 -113 -27t-43 -65zM446 309q115 -23 259 -114q59 55 122 133q-86 69 -125 118q-88 -99 -256 -137zM584 45q41 -28 100 -76q49 44 119 92q-13 7 -30 20q-4 3 -15.5 11.5t-18.5 13.5q-25 21 -28 23 q-59 -43 -127 -84zM754 164q72 -47 106 -66q91 58 191 101q-86 30 -170 90q-55 -61 -127 -125zM1821 1903q0 14 35 14q26 0 63 -8q18 -158 123 -209l-12 -6q-79 18 -144 94q-65 75 -65 115z" />
<glyph unicode="&#xc1;" horiz-adv-x="1722" d="M-96 1245q0 105 47 210q46 103 134 192q87 88 230 142q144 54 320 54q113 0 243 -43q135 -44 236 -95t245 -95q139 -43 265 -43q196 0 397 82l4 -11q-199 -251 -350 -731q-149 -474 -149 -846q0 -346 131 -454l-12 -15q-228 114 -228 498q0 230 82 524h-375 q-120 -188 -225 -305q75 -60 182 -98l11 -21q-83 -30 -209 -104q121 -66 233 -66q87 0 150 39l6 -14q-97 -74 -213 -74q-115 0 -236 78q-126 -82 -188 -158l-2 5q-61 58 -133 108q-167 -67 -338 -67q-94 0 -143 30q-50 30 -50 76q0 49 62 87t168 38q177 0 346 -100 q64 38 123 92q-156 120 -291 137l-4 20q13 0 23 1q16 2 59 12q44 11 83 28q36 16 91 58q51 39 90 90q61 -94 127 -154q80 102 185 265q62 96 182 290q75 121 174 262q95 136 196 225q105 93 217 132l6 -13q-75 -34 -143 -97q-73 -68 -139 -163q-84 -120 -124 -185 q-67 -108 -134 -223q-62 -106 -133 -218h370q76 262 212 540q131 269 278 455q-252 -121 -482 -121q-129 0 -261 51q-127 49 -223 112q-97 64 -208 112q-117 51 -219 51q-158 0 -293 -53q-129 -51 -215 -140q-82 -85 -127 -187t-45 -204q0 -151 96 -253q95 -101 277 -101 q124 0 222 40q101 41 159 105q60 66 90 141q31 77 31 150q0 117 -67 181q-66 63 -167 63q-136 0 -250 -106q-112 -105 -112 -279h-17v12q0 192 117 311t258 119q109 0 181 -77q73 -78 73 -224q0 -171 -135 -312t-383 -141q-186 0 -288 107q-101 105 -101 266zM4 45 q0 -35 45 -59q47 -25 131 -25q148 0 289 66q-171 110 -309 110q-70 0 -113 -27t-43 -65zM446 309q115 -23 259 -114q59 55 122 133q-86 69 -125 118q-88 -99 -256 -137zM584 45q41 -28 100 -76q49 44 119 92q-13 7 -30 20q-4 3 -15.5 11.5t-18.5 13.5q-25 21 -28 23 q-59 -43 -127 -84zM754 164q72 -47 106 -66q91 58 191 101q-86 30 -170 90q-55 -61 -127 -125zM1901 1739q104 50 122 209q37 8 64 8q35 0 35 -15q0 -37 -66 -114q-66 -76 -143 -94z" />
<glyph unicode="&#xc2;" horiz-adv-x="1722" d="M-96 1245q0 105 47 210q46 103 134 192q87 88 230 142q144 54 320 54q113 0 243 -43q135 -44 236 -95t245 -95q139 -43 265 -43q196 0 397 82l4 -11q-199 -251 -350 -731q-149 -474 -149 -846q0 -346 131 -454l-12 -15q-228 114 -228 498q0 230 82 524h-375 q-120 -188 -225 -305q75 -60 182 -98l11 -21q-83 -30 -209 -104q121 -66 233 -66q87 0 150 39l6 -14q-97 -74 -213 -74q-115 0 -236 78q-126 -82 -188 -158l-2 5q-61 58 -133 108q-167 -67 -338 -67q-94 0 -143 30q-50 30 -50 76q0 49 62 87t168 38q177 0 346 -100 q64 38 123 92q-156 120 -291 137l-4 20q13 0 23 1q16 2 59 12q44 11 83 28q36 16 91 58q51 39 90 90q61 -94 127 -154q80 102 185 265q62 96 182 290q75 121 174 262q95 136 196 225q105 93 217 132l6 -13q-75 -34 -143 -97q-73 -68 -139 -163q-84 -120 -124 -185 q-67 -108 -134 -223q-62 -106 -133 -218h370q76 262 212 540q131 269 278 455q-252 -121 -482 -121q-129 0 -261 51q-127 49 -223 112q-97 64 -208 112q-117 51 -219 51q-158 0 -293 -53q-129 -51 -215 -140q-82 -85 -127 -187t-45 -204q0 -151 96 -253q95 -101 277 -101 q124 0 222 40q101 41 159 105q60 66 90 141q31 77 31 150q0 117 -67 181q-66 63 -167 63q-136 0 -250 -106q-112 -105 -112 -279h-17v12q0 192 117 311t258 119q109 0 181 -77q73 -78 73 -224q0 -171 -135 -312t-383 -141q-186 0 -288 107q-101 105 -101 266zM4 45 q0 -35 45 -59q47 -25 131 -25q148 0 289 66q-171 110 -309 110q-70 0 -113 -27t-43 -65zM446 309q115 -23 259 -114q59 55 122 133q-86 69 -125 118q-88 -99 -256 -137zM584 45q41 -28 100 -76q49 44 119 92q-13 7 -30 20q-4 3 -15.5 11.5t-18.5 13.5q-25 21 -28 23 q-59 -43 -127 -84zM754 164q72 -47 106 -66q91 58 191 101q-86 30 -170 90q-55 -61 -127 -125zM1784 1679q128 51 178 150l90 -10q12 -95 82 -156l-12 -6q-109 24 -158 102q-86 -74 -168 -86z" />
<glyph unicode="&#xc3;" horiz-adv-x="1722" d="M-96 1245q0 105 47 210q46 103 134 192q87 88 230 142q144 54 320 54q113 0 243 -43q135 -44 236 -95t245 -95q139 -43 265 -43q196 0 397 82l4 -11q-199 -251 -350 -731q-149 -474 -149 -846q0 -346 131 -454l-12 -15q-228 114 -228 498q0 230 82 524h-375 q-120 -188 -225 -305q75 -60 182 -98l11 -21q-83 -30 -209 -104q121 -66 233 -66q87 0 150 39l6 -14q-97 -74 -213 -74q-115 0 -236 78q-126 -82 -188 -158l-2 5q-61 58 -133 108q-167 -67 -338 -67q-94 0 -143 30q-50 30 -50 76q0 49 62 87t168 38q177 0 346 -100 q64 38 123 92q-156 120 -291 137l-4 20q13 0 23 1q16 2 59 12q44 11 83 28q36 16 91 58q51 39 90 90q61 -94 127 -154q80 102 185 265q62 96 182 290q75 121 174 262q95 136 196 225q105 93 217 132l6 -13q-75 -34 -143 -97q-73 -68 -139 -163q-84 -120 -124 -185 q-67 -108 -134 -223q-62 -106 -133 -218h370q76 262 212 540q131 269 278 455q-252 -121 -482 -121q-129 0 -261 51q-127 49 -223 112q-97 64 -208 112q-117 51 -219 51q-158 0 -293 -53q-129 -51 -215 -140q-82 -85 -127 -187t-45 -204q0 -151 96 -253q95 -101 277 -101 q124 0 222 40q101 41 159 105q60 66 90 141q31 77 31 150q0 117 -67 181q-66 63 -167 63q-136 0 -250 -106q-112 -105 -112 -279h-17v12q0 192 117 311t258 119q109 0 181 -77q73 -78 73 -224q0 -171 -135 -312t-383 -141q-186 0 -288 107q-101 105 -101 266zM4 45 q0 -35 45 -59q47 -25 131 -25q148 0 289 66q-171 110 -309 110q-70 0 -113 -27t-43 -65zM446 309q115 -23 259 -114q59 55 122 133q-86 69 -125 118q-88 -99 -256 -137zM584 45q41 -28 100 -76q49 44 119 92q-13 7 -30 20q-4 3 -15.5 11.5t-18.5 13.5q-25 21 -28 23 q-59 -43 -127 -84zM754 164q72 -47 106 -66q91 58 191 101q-86 30 -170 90q-55 -61 -127 -125zM1819 1688q38 75 98 75q20 0 63 -12q44 -12 64 -12q46 0 76 37l12 4q-29 -101 -98 -101q-28 0 -82 20q-51 19 -74 19q-34 0 -49 -39z" />
<glyph unicode="&#xc4;" horiz-adv-x="1722" d="M-96 1245q0 105 47 210q46 103 134 192q87 88 230 142q144 54 320 54q113 0 243 -43q135 -44 236 -95t245 -95q139 -43 265 -43q196 0 397 82l4 -11q-199 -251 -350 -731q-149 -474 -149 -846q0 -346 131 -454l-12 -15q-228 114 -228 498q0 230 82 524h-375 q-120 -188 -225 -305q75 -60 182 -98l11 -21q-83 -30 -209 -104q121 -66 233 -66q87 0 150 39l6 -14q-97 -74 -213 -74q-115 0 -236 78q-126 -82 -188 -158l-2 5q-61 58 -133 108q-167 -67 -338 -67q-94 0 -143 30q-50 30 -50 76q0 49 62 87t168 38q177 0 346 -100 q64 38 123 92q-156 120 -291 137l-4 20q13 0 23 1q16 2 59 12q44 11 83 28q36 16 91 58q51 39 90 90q61 -94 127 -154q80 102 185 265q62 96 182 290q75 121 174 262q95 136 196 225q105 93 217 132l6 -13q-75 -34 -143 -97q-73 -68 -139 -163q-84 -120 -124 -185 q-67 -108 -134 -223q-62 -106 -133 -218h370q76 262 212 540q131 269 278 455q-252 -121 -482 -121q-129 0 -261 51q-127 49 -223 112q-97 64 -208 112q-117 51 -219 51q-158 0 -293 -53q-129 -51 -215 -140q-82 -85 -127 -187t-45 -204q0 -151 96 -253q95 -101 277 -101 q124 0 222 40q101 41 159 105q60 66 90 141q31 77 31 150q0 117 -67 181q-66 63 -167 63q-136 0 -250 -106q-112 -105 -112 -279h-17v12q0 192 117 311t258 119q109 0 181 -77q73 -78 73 -224q0 -171 -135 -312t-383 -141q-186 0 -288 107q-101 105 -101 266zM4 45 q0 -35 45 -59q47 -25 131 -25q148 0 289 66q-171 110 -309 110q-70 0 -113 -27t-43 -65zM446 309q115 -23 259 -114q59 55 122 133q-86 69 -125 118q-88 -99 -256 -137zM584 45q41 -28 100 -76q49 44 119 92q-13 7 -30 20q-4 3 -15.5 11.5t-18.5 13.5q-25 21 -28 23 q-59 -43 -127 -84zM754 164q72 -47 106 -66q91 58 191 101q-86 30 -170 90q-55 -61 -127 -125zM1823 1724q0 22 15 43t38 21q39 0 39 -37q0 -23 -16 -43t-39 -20q-37 0 -37 36zM2028 1724q0 22 15 43t38 21q39 0 39 -37q0 -21 -17 -43q-16 -20 -39 -20q-36 0 -36 36z" />
<glyph unicode="&#xc5;" horiz-adv-x="1722" d="M-96 1245q0 105 47 210q46 103 134 192q87 88 230 142q144 54 320 54q113 0 243 -43q135 -44 236 -95t245 -95q139 -43 265 -43q196 0 397 82l4 -11q-199 -251 -350 -731q-149 -474 -149 -846q0 -346 131 -454l-12 -15q-228 114 -228 498q0 230 82 524h-375 q-120 -188 -225 -305q75 -60 182 -98l11 -21q-83 -30 -209 -104q121 -66 233 -66q87 0 150 39l6 -14q-97 -74 -213 -74q-115 0 -236 78q-126 -82 -188 -158l-2 5q-61 58 -133 108q-167 -67 -338 -67q-94 0 -143 30q-50 30 -50 76q0 49 62 87t168 38q177 0 346 -100 q64 38 123 92q-156 120 -291 137l-4 20q13 0 23 1q16 2 59 12q44 11 83 28q36 16 91 58q51 39 90 90q61 -94 127 -154q80 102 185 265q62 96 182 290q75 121 174 262q95 136 196 225q105 93 217 132l6 -13q-75 -34 -143 -97q-73 -68 -139 -163q-84 -120 -124 -185 q-67 -108 -134 -223q-62 -106 -133 -218h370q76 262 212 540q131 269 278 455q-252 -121 -482 -121q-129 0 -261 51q-127 49 -223 112q-97 64 -208 112q-117 51 -219 51q-158 0 -293 -53q-129 -51 -215 -140q-82 -85 -127 -187t-45 -204q0 -151 96 -253q95 -101 277 -101 q124 0 222 40q101 41 159 105q60 66 90 141q31 77 31 150q0 117 -67 181q-66 63 -167 63q-136 0 -250 -106q-112 -105 -112 -279h-17v12q0 192 117 311t258 119q109 0 181 -77q73 -78 73 -224q0 -171 -135 -312t-383 -141q-186 0 -288 107q-101 105 -101 266zM4 45 q0 -35 45 -59q47 -25 131 -25q148 0 289 66q-171 110 -309 110q-70 0 -113 -27t-43 -65zM446 309q115 -23 259 -114q59 55 122 133q-86 69 -125 118q-88 -99 -256 -137zM584 45q41 -28 100 -76q49 44 119 92q-13 7 -30 20q-4 3 -15.5 11.5t-18.5 13.5q-25 21 -28 23 q-59 -43 -127 -84zM754 164q72 -47 106 -66q91 58 191 101q-86 30 -170 90q-55 -61 -127 -125zM1960 1753q0 29 19 55q19 27 49 27q53 0 53 -51q0 -28 -21 -55t-49 -27q-51 0 -51 51zM1987 1763q0 -37 28 -37q19 0 29 15q10 14 10 33q0 36 -33 36q-34 -4 -34 -47z" />
<glyph unicode="&#xc6;" horiz-adv-x="2480" d="M41 285q0 160 116 284q116 123 283 123q159 0 257 -88q100 -89 100 -192q0 -80 -63 -132q-64 -53 -181 -53q-107 0 -188 58l6 4q67 -47 145 -47q105 0 162 54t57 134q0 97 -80 174q-79 76 -219 76q-126 0 -226 -86q-99 -86 -99 -248q0 -169 140 -273q142 -106 331 -106 q113 0 220 40q110 41 190 98q84 60 170 153q92 100 146 172q57 76 130 184h-291l2 13h297l125 186q84 123 147 205q69 90 174 201t204 183q103 75 225 123q127 50 253 50q86 0 147 -38q60 -37 60 -122q0 -95 -84 -162q-83 -67 -182 -67q-51 0 -92 14l6 10q44 -10 74 -10 q76 0 142 60q67 61 67 137q0 69 -50 107t-127 38q-75 0 -153 -34q-83 -36 -152 -95t-117 -164q-47 -103 -47 -225q0 -44 25 -96q49 12 96 12q53 0 83 -20q32 -21 32 -46q0 -47 -84 -47q-116 0 -184 70q-152 -69 -275 -266t-123 -355q0 -147 86 -224t213 -77q156 0 278 107 t122 283q0 62 -47 121t-113 59q-84 0 -147 -85q-64 -87 -64 -175v-6l-14 -3q0 124 92 219t209 95q79 0 123 -51q43 -50 43 -134q0 -198 -179 -339q-180 -142 -376 -142q-138 0 -226 82t-88 246q0 172 127 362h-166q-181 -272 -331 -426q-116 -116 -302 -185t-362 -69 q-105 0 -209 37t-184 120t-80 194zM643 1192q0 123 112 223q110 99 259 144q147 45 289 45q107 0 205 -31q97 -31 149 -68q49 -35 121 -67q70 -31 129 -31q105 0 168 66l8 -5q-66 -88 -250 -88q-80 0 -168 31q-81 29 -147 67q-62 36 -144 66q-85 31 -160 31q-189 0 -336 -99 t-147 -262q0 -90 61 -140t150 -50q114 0 208 73q93 72 146 179l9 -2q-57 -133 -175 -206q-119 -73 -251 -73q-97 0 -167 53q-69 52 -69 144zM1518 627h165q145 203 342 280q-45 55 -45 140q0 134 115 273q114 138 275 208q-91 -28 -182 -91q-93 -65 -159 -129 q-70 -69 -154 -174q-85 -107 -125 -163q-52 -73 -108 -158zM2097 920q49 -82 123 -82q39 0 39 24q0 22 -32 43q-31 21 -79 21q-27 0 -51 -6z" />
<glyph unicode="&#xc7;" horiz-adv-x="1157" d="M135 268q0 195 108 433q110 244 289 440q-104 95 -104 213q0 80 55 132t156 52q65 0 129 -20l-6 -15q-49 13 -84 13q-84 0 -134 -53t-50 -128q0 -91 65 -168q369 389 797 389q130 0 195 -48t65 -126q0 -139 -167 -273t-396 -134q-281 0 -457 115q-162 -196 -270 -430 q-105 -228 -105 -402q0 -142 76 -222q77 -81 233 -81q124 0 252 55q131 56 223 166q93 111 93 246q0 100 -35 155q-35 54 -86 54q-53 0 -93 -37q-42 -39 -75 -89q-35 -53 -81 -105q-47 -53 -136 -90q-92 -39 -215 -40v11q75 1 143 41q66 38 120 92q18 18 53 53.5t52 52.5 q52 52 122 90q68 37 147 37q80 0 123 -51q43 -50 43 -133q0 -145 -117 -276q-114 -128 -281 -201q-164 -72 -315 -72q-7 0 -14 1t-15 1l-8 -25q45 -6 45 -43q0 -36 -32 -59q-31 -22 -70 -22q-62 0 -62 51q0 4 8 22l7 -2v-4q0 -29 63 -29q70 0 70 43q0 13 -15 19t-26 6l-15 2 l17 41q-143 15 -214 108q-71 94 -71 244zM614 1114q151 -121 439 -121q196 0 335 119q138 118 138 248q0 75 -59 122q-58 46 -175 46q-164 0 -341 -114q-179 -115 -337 -300z" />
<glyph unicode="&#xc8;" horiz-adv-x="722" d="M2 252q0 94 37 178q37 86 84 144t132 123q96 72 137 97q51 31 145 83q71 38 71 84q0 16 -35 97q-34 78 -34 156q0 145 169 253q170 108 320 108q86 0 147 -38q60 -37 60 -122q0 -95 -84 -162q-83 -67 -182 -67q-51 0 -92 14l6 10q44 -10 73 -10q77 0 143 60t66 137 q0 70 -49 107q-50 38 -127 38q-136 0 -251 -91t-115 -220q0 -43 13 -112t13 -107q0 -91 -92 -144q-64 -36 -85 -49q-72 -45 -86 -54q-60 -39 -92 -69q-26 -25 -77 -79q-49 -53 -69 -96q-22 -48 -39 -110q-19 -68 -19 -135q0 -147 86 -224t213 -77q172 0 309 146q1 1 17 21 t30 37q34 44 37 46l9 -10l-91 -113q-172 -178 -385 -178q-137 0 -225 82t-88 246zM997 1821q0 14 35 14q27 0 64 -8q18 -158 123 -209l-13 -6q-77 18 -143 94t-66 115z" />
<glyph unicode="&#xc9;" horiz-adv-x="722" d="M2 252q0 94 37 178q37 86 84 144t132 123q96 72 137 97q51 31 145 83q71 38 71 84q0 16 -35 97q-34 78 -34 156q0 145 169 253q170 108 320 108q86 0 147 -38q60 -37 60 -122q0 -95 -84 -162q-83 -67 -182 -67q-51 0 -92 14l6 10q44 -10 73 -10q77 0 143 60t66 137 q0 70 -49 107q-50 38 -127 38q-136 0 -251 -91t-115 -220q0 -43 13 -112t13 -107q0 -91 -92 -144q-64 -36 -85 -49q-72 -45 -86 -54q-60 -39 -92 -69q-26 -25 -77 -79q-49 -53 -69 -96q-22 -48 -39 -110q-19 -68 -19 -135q0 -147 86 -224t213 -77q172 0 309 146q1 1 17 21 t30 37q34 44 37 46l9 -10l-91 -113q-172 -178 -385 -178q-137 0 -225 82t-88 246zM1079 1696q105 51 123 209q37 8 64 8q34 0 34 -15q0 -39 -65 -114q-66 -76 -143 -94z" />
<glyph unicode="&#xca;" horiz-adv-x="722" d="M2 252q0 94 37 178q37 86 84 144t132 123q96 72 137 97q51 31 145 83q71 38 71 84q0 16 -35 97q-34 78 -34 156q0 145 169 253q170 108 320 108q86 0 147 -38q60 -37 60 -122q0 -95 -84 -162q-83 -67 -182 -67q-51 0 -92 14l6 10q44 -10 73 -10q77 0 143 60t66 137 q0 70 -49 107q-50 38 -127 38q-136 0 -251 -91t-115 -220q0 -43 13 -112t13 -107q0 -91 -92 -144q-64 -36 -85 -49q-72 -45 -86 -54q-60 -39 -92 -69q-26 -25 -77 -79q-49 -53 -69 -96q-22 -48 -39 -110q-19 -68 -19 -135q0 -147 86 -224t213 -77q172 0 309 146q1 1 17 21 t30 37q34 44 37 46l9 -10l-91 -113q-172 -178 -385 -178q-137 0 -225 82t-88 246zM932 1649q129 51 178 149l90 -10q12 -95 82 -156l-12 -6q-108 24 -158 103q-88 -75 -168 -87z" />
<glyph unicode="&#xcb;" horiz-adv-x="722" d="M2 252q0 94 37 178q37 86 84 144t132 123q96 72 137 97q51 31 145 83q71 38 71 84q0 16 -35 97q-34 78 -34 156q0 145 169 253q170 108 320 108q86 0 147 -38q60 -37 60 -122q0 -95 -84 -162q-83 -67 -182 -67q-51 0 -92 14l6 10q44 -10 73 -10q77 0 143 60t66 137 q0 70 -49 107q-50 38 -127 38q-136 0 -251 -91t-115 -220q0 -43 13 -112t13 -107q0 -91 -92 -144q-64 -36 -85 -49q-72 -45 -86 -54q-60 -39 -92 -69q-26 -25 -77 -79q-49 -53 -69 -96q-22 -48 -39 -110q-19 -68 -19 -135q0 -147 86 -224t213 -77q172 0 309 146q1 1 17 21 t30 37q34 44 37 46l9 -10l-91 -113q-172 -178 -385 -178q-137 0 -225 82t-88 246zM952 1686q0 21 16 43q14 20 38 20q38 0 38 -37q0 -23 -16 -43t-39 -20q-37 0 -37 37zM1157 1686q0 22 15 43q14 20 38 20q39 0 39 -37q0 -23 -16 -43t-39 -20q-37 0 -37 37z" />
<glyph unicode="&#xcc;" horiz-adv-x="1318" d="M20 301q0 164 137 259t312 95q141 0 236 -65q96 -66 96 -184q0 -100 -76 -152q-77 -53 -182 -53q-81 0 -148 30q-66 30 -96 84l6 11q28 -47 88 -73q64 -28 127 -28q86 0 145 47q58 46 58 142q0 105 -73 166q-71 59 -177 59q-138 0 -245 -94t-107 -258q0 -161 111 -243 q112 -83 282 -83q150 0 279 67q125 65 218 179q91 113 171 252t159 294q70 136 163 295q81 138 200 265q116 123 252 196q-212 -106 -391 -106q-143 0 -349 78q-205 78 -276 78q-159 0 -248 -97q-88 -95 -88 -223q0 -117 74 -200t207 -83q105 0 185 69q79 69 79 189 q0 32 -6 66l10 2q8 -37 8 -76q0 -138 -104 -220q-106 -83 -238 -83q-147 0 -226 79t-79 198q0 156 135 284q134 127 369 127q103 0 340 -54t368 -54q160 0 291 59l13 -6q-131 -67 -237 -191q-103 -120 -183 -271q-76 -144 -153 -306q-72 -153 -164 -308q-87 -147 -194 -266 q-108 -120 -268 -191t-360 -71q-194 0 -324 90q-127 88 -127 279zM1534 1821q0 14 35 14q26 0 63 -8q18 -158 123 -209l-12 -6q-79 18 -144 94q-65 75 -65 115z" />
<glyph unicode="&#xcd;" horiz-adv-x="1318" d="M20 301q0 164 137 259t312 95q141 0 236 -65q96 -66 96 -184q0 -100 -76 -152q-77 -53 -182 -53q-81 0 -148 30q-66 30 -96 84l6 11q28 -47 88 -73q64 -28 127 -28q86 0 145 47q58 46 58 142q0 105 -73 166q-71 59 -177 59q-138 0 -245 -94t-107 -258q0 -161 111 -243 q112 -83 282 -83q150 0 279 67q125 65 218 179q91 113 171 252t159 294q70 136 163 295q81 138 200 265q116 123 252 196q-212 -106 -391 -106q-143 0 -349 78q-205 78 -276 78q-159 0 -248 -97q-88 -95 -88 -223q0 -117 74 -200t207 -83q105 0 185 69q79 69 79 189 q0 32 -6 66l10 2q8 -37 8 -76q0 -138 -104 -220q-106 -83 -238 -83q-147 0 -226 79t-79 198q0 156 135 284q134 127 369 127q103 0 340 -54t368 -54q160 0 291 59l13 -6q-131 -67 -237 -191q-103 -120 -183 -271q-76 -144 -153 -306q-72 -153 -164 -308q-87 -147 -194 -266 q-108 -120 -268 -191t-360 -71q-194 0 -324 90q-127 88 -127 279zM1565 1618q105 51 123 209q37 8 63 8q35 0 35 -14q0 -39 -66 -115t-143 -94z" />
<glyph unicode="&#xce;" horiz-adv-x="1318" d="M20 301q0 164 137 259t312 95q141 0 236 -65q96 -66 96 -184q0 -100 -76 -152q-77 -53 -182 -53q-81 0 -148 30q-66 30 -96 84l6 11q28 -47 88 -73q64 -28 127 -28q86 0 145 47q58 46 58 142q0 105 -73 166q-71 59 -177 59q-138 0 -245 -94t-107 -258q0 -161 111 -243 q112 -83 282 -83q150 0 279 67q125 65 218 179q91 113 171 252t159 294q70 136 163 295q81 138 200 265q116 123 252 196q-212 -106 -391 -106q-143 0 -349 78q-205 78 -276 78q-159 0 -248 -97q-88 -95 -88 -223q0 -117 74 -200t207 -83q105 0 185 69q79 69 79 189 q0 32 -6 66l10 2q8 -37 8 -76q0 -138 -104 -220q-106 -83 -238 -83q-147 0 -226 79t-79 198q0 156 135 284q134 127 369 127q103 0 340 -54t368 -54q160 0 291 59l13 -6q-131 -67 -237 -191q-103 -120 -183 -271q-76 -144 -153 -306q-72 -153 -164 -308q-87 -147 -194 -266 q-108 -120 -268 -191t-360 -71q-194 0 -324 90q-127 88 -127 279zM1473 1669q128 51 178 150l90 -11q12 -94 82 -155l-13 -6q-107 24 -157 102q-86 -74 -168 -86z" />
<glyph unicode="&#xcf;" horiz-adv-x="1318" d="M20 301q0 164 137 259t312 95q141 0 236 -65q96 -66 96 -184q0 -100 -76 -152q-77 -53 -182 -53q-81 0 -148 30q-66 30 -96 84l6 11q28 -47 88 -73q64 -28 127 -28q86 0 145 47q58 46 58 142q0 105 -73 166q-71 59 -177 59q-138 0 -245 -94t-107 -258q0 -161 111 -243 q112 -83 282 -83q150 0 279 67q125 65 218 179q91 113 171 252t159 294q70 136 163 295q81 138 200 265q116 123 252 196q-212 -106 -391 -106q-145 0 -350 78t-275 78q-159 0 -248 -97q-88 -95 -88 -223q0 -117 74 -200t207 -83q105 0 185 69q79 69 79 189q0 32 -6 66l10 2 q8 -37 8 -76q0 -138 -104 -220q-106 -83 -238 -83q-147 0 -226 79t-79 198q0 156 135 284q134 127 369 127q103 0 340 -54t368 -54q160 0 291 59l13 -6q-131 -67 -237 -191q-103 -120 -183 -271q-76 -144 -153 -306q-72 -153 -164 -308q-87 -147 -194 -266 q-108 -120 -268 -191t-360 -71q-194 0 -324 90q-127 88 -127 279zM1499 1677q0 22 15 43t38 21q39 0 39 -37q0 -23 -16 -43q-17 -21 -39 -21q-37 0 -37 37zM1704 1677q0 22 15 43t38 21q39 0 39 -37q0 -23 -16 -43q-16 -21 -39 -21q-37 0 -37 37z" />
<glyph unicode="&#xd0;" horiz-adv-x="1613" d="M14 94q0 39 64 68q62 28 176 28q140 0 371 -84q140 79 225 222q40 67 77 145q23 48 67 157q9 23 19.5 49.5t17.5 43.5t11 27h-135l2 12h140q67 143 175 269q110 128 322 278q-93 132 -252 200t-342 68q-200 0 -387 -73q-183 -72 -306 -217q-122 -145 -122 -324 q0 -131 86 -206q85 -75 207 -75q147 0 246 105q98 104 98 221q0 61 -36 100t-105 39q-93 0 -170 -55q-78 -55 -96 -146l-11 -4v6q0 19 6 41q22 83 118 144q93 59 190 59t144 -43q48 -43 48 -113q0 -133 -142 -259t-347 -126q-135 0 -233 82q-99 83 -99 219q0 189 139 338 q140 151 349 227t438 76q197 0 361 -62q167 -63 271 -185q101 67 242 117t264 50q144 0 219 -68q76 -69 76 -169q0 -115 -94 -205t-250 -90q-78 0 -166 25l4 12q86 -25 164 -25q139 0 219 83t80 192q0 98 -64 163q-65 66 -186 66t-258 -51q-135 -51 -235 -117 q127 -161 127 -399q0 -231 -101 -448q-101 -218 -288 -357q-189 -141 -416 -141q-210 0 -381 67q-138 -53 -299 -53q-114 0 -178 29t-64 67zM109 125q0 -35 64 -69q62 -33 153 -33q112 0 206 38q-66 30 -83 38q-27 13 -81 37q-27 12 -72 25q-39 11 -81 11q-106 0 -106 -47z M651 96q233 -82 361 -82q178 0 333 147q154 146 236 351q82 204 82 399q0 221 -102 379q-206 -163 -392 -528h158l-2 -12h-164l-110 -220q-162 -303 -400 -434z" />
<glyph unicode="&#xd1;" horiz-adv-x="2426" d="M-45 315q0 165 136 259q139 96 312 96q140 0 236 -66t96 -184q0 -100 -76 -152q-77 -53 -182 -53q-77 0 -147 31q-68 30 -97 84l7 10q28 -47 88 -73q62 -27 127 -27q85 0 144 47q58 46 58 141q0 106 -72 166q-71 59 -177 59q-138 0 -245 -94q-108 -95 -108 -258 q0 -160 113 -243t283 -83q161 0 319 88q159 89 283 226q120 133 219 297q95 157 148 312q54 156 55 265q-95 0 -144 33t-49 78q0 64 39 98q40 35 96 35q89 0 136 -57q48 -58 49 -156q52 17 122 53l-2 -16q-90 -44 -120 -51q-1 -100 -49 -235q-49 -140 -123 -269 q-80 -139 -192 -268q-116 -133 -242 -235t-284 -166q-154 -62 -313 -62q-193 0 -318 91q-126 92 -126 279zM375 1085q0 91 60 183t170 170q111 79 288 128q180 50 389 50q154 0 308 -36q151 -35 256 -80q129 -55 209 -85q112 -42 171 -49q183 209 352 209q68 0 68 -41 q0 -57 -119 -123q-119 -67 -291 -68q-89 -117 -151 -243q-346 -662 -346 -891q0 -111 51 -165t133 -54q137 0 268 120t131 275q0 61 -31 107q-32 47 -83 47q-78 0 -138 -71q-61 -72 -61 -151q0 -50 25 -84l-13 -12q-34 43 -34 98q0 98 92 190q91 91 196 91q65 0 95 -44 t30 -107q0 -202 -166 -343t-346 -141q-108 0 -176 63q-67 63 -67 187q0 273 387 883q101 154 176 245q-137 1 -259 29q-121 27 -202 64q-132 60 -157 72q-80 38 -158 62q-82 25 -172 25q-349 0 -557 -157q-207 -156 -207 -342q0 -114 88 -187t254 -73q114 0 222 46t191 126 l2 -19q-93 -87 -219 -134q-123 -46 -248 -46q-201 0 -306 78t-105 198zM1296 1280q0 -43 47 -75q46 -31 132 -31q-4 165 -117 165q-62 0 -62 -59zM1884 1698q39 76 98 76q17 0 64 -13q44 -12 63 -12q46 0 76 37l12 4q-28 -100 -98 -100q-31 0 -82 19q-54 20 -73 20 q-35 0 -50 -39zM2253 1364h10q120 0 206 52q87 52 87 95q0 29 -45 29q-112 0 -258 -176z" />
<glyph unicode="&#xd2;" horiz-adv-x="1089" d="M-8 322q0 165 76 362q79 205 207 391q133 193 336 359q204 166 440 252l4 -17q-202 -68 -387 -233q-178 -159 -300 -361q-119 -197 -186 -400q-67 -202 -67 -366q0 -141 53 -224t158 -83q178 0 355 140q181 143 305 341q125 199 205 423q79 221 79 388q0 132 -58 199 q-57 66 -143 66q-112 0 -210 -92q-97 -91 -97 -218q0 -86 47 -150q47 -63 127 -63q74 0 131 57q59 59 80 112q22 56 22 87h17q0 -20 -16 -70q-15 -48 -48 -104q-33 -57 -98 -97t-149 -40q-101 0 -150 51q-49 50 -49 135q0 177 143 307t303 130q111 0 182 -77q70 -76 70 -233 q0 -176 -94 -406q-94 -229 -241 -435q-148 -207 -348 -347q-201 -141 -394 -141q-151 0 -228 96q-77 97 -77 261zM1198 1866q0 14 35 14q26 0 63 -8q18 -158 123 -209l-12 -6q-77 18 -143 94q-66 77 -66 115z" />
<glyph unicode="&#xd3;" horiz-adv-x="1089" d="M-8 322q0 165 76 362q79 205 207 391q133 193 336 359q204 166 440 252l4 -17q-202 -68 -387 -233q-178 -159 -300 -361q-119 -197 -186 -400q-67 -202 -67 -366q0 -141 53 -224t158 -83q178 0 355 140q181 143 305 341q125 199 205 423q79 221 79 388q0 132 -58 199 q-57 66 -143 66q-112 0 -210 -92q-97 -91 -97 -218q0 -86 47 -150q47 -63 127 -63q74 0 131 57q59 59 80 112q22 56 22 87h17q0 -20 -16 -70q-15 -48 -48 -104q-33 -57 -98 -97t-149 -40q-101 0 -150 51q-49 50 -49 135q0 177 143 307t303 130q111 0 182 -77q70 -76 70 -233 q0 -176 -94 -406q-94 -229 -241 -435q-148 -207 -348 -347q-201 -141 -394 -141q-151 0 -228 96q-77 97 -77 261zM1188 1663q105 51 123 209q37 8 63 8q35 0 35 -14q0 -38 -66 -115q-66 -76 -143 -94z" />
<glyph unicode="&#xd4;" horiz-adv-x="1089" d="M-8 322q0 165 76 362q79 205 207 391q133 193 336 359q204 166 440 252l4 -17q-202 -68 -387 -233q-178 -159 -300 -361q-119 -197 -186 -400q-67 -202 -67 -366q0 -141 53 -224t158 -83q178 0 355 140q181 143 305 341q125 199 205 423q79 221 79 388q0 132 -58 199 q-57 66 -143 66q-112 0 -210 -92q-97 -91 -97 -218q0 -86 47 -150q47 -63 127 -63q74 0 131 57q59 59 80 112q22 56 22 87h17q0 -20 -16 -70q-15 -48 -48 -104q-33 -57 -98 -97t-149 -40q-101 0 -150 51q-49 50 -49 135q0 177 143 307t303 130q111 0 182 -77q70 -76 70 -233 q0 -176 -94 -406q-94 -229 -241 -435q-148 -207 -348 -347q-201 -141 -394 -141q-151 0 -228 96q-77 97 -77 261zM1102 1677q128 51 178 150l90 -10q12 -95 82 -156l-12 -6q-109 24 -158 102q-86 -74 -168 -86z" />
<glyph unicode="&#xd5;" horiz-adv-x="1089" d="M-8 322q0 -164 77 -261q77 -96 228 -96q193 0 394 141q200 140 348 347q147 206 241 435q94 230 94 406q0 157 -70 233q-71 77 -182 77q-160 0 -303 -130t-143 -307q0 -85 49 -135q49 -51 149 -51q85 0 150 40t98 97q33 56 48 104q16 50 16 70h-17q0 -31 -22 -87 q-21 -53 -80 -112q-57 -57 -131 -57q-80 0 -127 63q-47 64 -47 150q0 127 97 218q98 92 210 92q86 0 143 -66q58 -67 58 -199q0 -167 -79 -388q-80 -224 -205 -423q-124 -198 -305 -341q-177 -140 -355 -140q-105 0 -158 83t-53 224q0 164 67 366q67 203 186 400 q122 202 300 361q185 165 387 233l-4 16q-239 -87 -440 -251q-203 -166 -336 -359q-128 -186 -207 -391q-76 -197 -76 -362zM1124 1694q38 75 99 75q23 0 63 -12t64 -12q45 0 75 37l13 4q-28 -100 -99 -100q-31 0 -82 19t-73 19q-34 0 -49 -38z" />
<glyph unicode="&#xd6;" horiz-adv-x="1089" d="M-8 322q0 -164 77 -261q77 -96 228 -96q193 0 394 141q200 140 348 347q147 206 241 435q94 230 94 406q0 157 -70 233q-71 77 -182 77q-160 0 -303 -130t-143 -307q0 -85 49 -135q49 -51 149 -51q85 0 150 40t98 97q33 56 48 104q16 50 16 70h-17q0 -31 -22 -87 q-21 -53 -80 -112q-57 -57 -131 -57q-80 0 -127 63q-47 64 -47 150q0 127 97 218q98 92 210 92q86 0 143 -66q58 -67 58 -199q0 -167 -79 -388q-80 -224 -205 -423q-124 -198 -305 -341q-177 -140 -355 -140q-105 0 -158 83t-53 224q0 164 67 366q67 203 186 400 q122 202 300 361q185 165 387 233l-4 16q-239 -87 -440 -251q-203 -166 -336 -359q-128 -186 -207 -391q-76 -197 -76 -362zM1110 1753q0 22 15 43t38 21q39 0 39 -37q0 -23 -16 -43q-16 -21 -39 -21q-37 0 -37 37zM1315 1753q0 22 15 43t38 21q39 0 39 -37q0 -23 -16 -43 q-17 -21 -39 -21q-37 0 -37 37z" />
<glyph unicode="&#xd7;" horiz-adv-x="659" d="M100 119l349 284l-119 265l16 8l117 -260l332 272l12 -12l-336 -277l129 -282l-16 -8l-127 280l-344 -283z" />
<glyph unicode="&#xd8;" horiz-adv-x="1103" d="M-8 322q0 165 76 362q79 205 207 391q133 193 336 359q204 166 440 252l4 -17q-202 -68 -387 -233q-178 -159 -300 -361q-119 -197 -186 -400q-67 -202 -67 -366q0 -178 78 -256l620 934q-137 29 -137 180q0 177 143 307t303 130q44 0 90 -17l115 172l12 -8l-112 -168 q147 -68 147 -289q0 -176 -94 -406q-94 -229 -241 -435q-148 -207 -348 -347q-201 -141 -394 -141q-71 0 -129 25l-129 -195l-12 8l127 193q-162 76 -162 326zM203 43q52 -41 123 -41q178 0 355 140q181 143 305 341q125 199 205 423q79 221 79 388q0 157 -84 226l-314 -471 q29 -13 64 -13q74 0 131 57q59 59 80 112q22 56 22 87h17q0 -20 -16 -70q-15 -48 -48 -104q-33 -57 -98 -97t-150 -40q-25 0 -45 2zM762 1249q0 -139 96 -194l316 473q-48 31 -105 31q-112 0 -210 -92q-97 -91 -97 -218z" />
<glyph unicode="&#xd9;" horiz-adv-x="1222" d="M53 1130q0 114 101 226q100 111 244 175q143 64 276 64q119 0 196 -67q78 -67 78 -187q0 -108 -79 -285q-83 -186 -173 -342q-91 -158 -173 -343q-79 -179 -79 -285q0 -117 101 -117q214 0 516 527l498 1030q53 0 67 14h21l-529 -1108q-133 -279 -133 -534 q0 -170 52 -304q53 -135 138 -216q84 -80 187 -122q102 -42 209 -42q175 0 296 106q122 107 122 295q0 108 -55 166q-54 57 -132 57q-84 0 -154 -63t-87 -172l-23 2q7 124 103 201q95 77 212 77q99 0 165 -60q67 -61 67 -177q0 -206 -154 -330q-153 -123 -366 -123 q-122 0 -232 43q-111 44 -204 129q-92 84 -149 229q-56 141 -56 328q0 234 84 453q-246 -424 -473 -424q-74 0 -120 43t-46 129q0 107 77 280q80 180 171 334t171 334q78 175 78 283q0 98 -69 153q-70 56 -176 56q-171 0 -321 -114t-150 -286q0 -92 49 -137q50 -45 118 -51 q201 0 287 248l15 2q-39 -134 -140 -213q-101 -78 -231 -78q-96 0 -145 57q-50 58 -50 139zM1184 1847q0 15 35 15q22 0 63 -9q18 -157 123 -208l-12 -7q-77 18 -144 95q-65 75 -65 114z" />
<glyph unicode="&#xda;" horiz-adv-x="1222" d="M53 1130q0 114 101 226q100 111 244 175q143 64 276 64q119 0 196 -67q78 -67 78 -187q0 -108 -79 -285q-83 -186 -173 -342q-91 -158 -173 -343q-79 -179 -79 -285q0 -117 101 -117q214 0 516 527l498 1030q53 0 67 14h21l-529 -1108q-133 -279 -133 -534 q0 -170 52 -304q53 -135 138 -216q84 -80 187 -122q102 -42 209 -42q175 0 296 106q122 107 122 295q0 108 -55 166q-54 57 -132 57q-84 0 -154 -63t-87 -172l-23 2q7 124 103 201q95 77 212 77q99 0 165 -60q67 -61 67 -177q0 -206 -154 -330q-153 -123 -366 -123 q-122 0 -232 43q-111 44 -204 129q-92 84 -149 229q-56 141 -56 328q0 234 84 453q-246 -424 -473 -424q-74 0 -120 43t-46 129q0 107 77 280q80 180 171 334t171 334q78 175 78 283q0 98 -69 153q-70 56 -176 56q-171 0 -321 -114t-150 -286q0 -92 49 -137q50 -45 118 -51 q201 0 287 248l15 2q-39 -134 -140 -213q-101 -78 -231 -78q-96 0 -145 57q-50 58 -50 139zM1249 1626q105 51 123 209q37 8 64 8q34 0 34 -14q0 -40 -65 -115q-66 -76 -143 -94z" />
<glyph unicode="&#xdb;" horiz-adv-x="1222" d="M53 1130q0 114 101 226q100 111 244 175q143 64 276 64q119 0 196 -67q78 -67 78 -187q0 -108 -79 -285q-83 -186 -173 -342q-91 -158 -173 -343q-79 -179 -79 -285q0 -117 101 -117q214 0 516 527l498 1030q53 0 67 14h21l-529 -1108q-133 -279 -133 -534 q0 -170 52 -304q53 -135 138 -216q84 -80 187 -122q102 -42 209 -42q175 0 296 106q122 107 122 295q0 108 -55 166q-54 57 -132 57q-84 0 -154 -63t-87 -172l-23 2q7 124 103 201q95 77 212 77q99 0 165 -60q67 -61 67 -177q0 -206 -154 -330q-153 -123 -366 -123 q-122 0 -232 43q-111 44 -204 129q-92 84 -149 229q-56 141 -56 328q0 234 84 453q-246 -424 -473 -424q-74 0 -120 43t-46 129q0 107 77 280q80 180 171 334t171 334q78 175 78 283q0 98 -69 153q-70 56 -176 56q-171 0 -321 -114t-150 -286q0 -92 49 -137q50 -45 118 -51 q201 0 287 248l15 2q-39 -134 -140 -213q-101 -78 -231 -78q-96 0 -145 57q-50 58 -50 139zM1126 1665q130 51 179 150l90 -11q12 -94 82 -155l-13 -7q-107 24 -157 103q-86 -74 -168 -86z" />
<glyph unicode="&#xdc;" horiz-adv-x="1222" d="M53 1130q0 -81 50 -139q49 -57 145 -57q130 0 231 78q100 77 139 213l-14 -2q-86 -248 -287 -248q-68 6 -118 51q-49 45 -49 137q0 172 150 286t321 114q106 0 176 -56q69 -55 69 -153q0 -108 -78 -283q-80 -180 -171 -334t-171 -334q-77 -173 -77 -280q0 -86 46 -129 t120 -43q227 0 473 424q-84 -219 -84 -453q0 -187 56 -328q57 -145 149 -229q93 -85 204 -129q110 -43 232 -43q213 0 366 123q154 124 154 330q0 116 -67 177q-66 60 -165 60q-117 0 -212 -77q-96 -77 -103 -201l23 -2q17 109 87 172t154 63q78 0 132 -57q55 -58 55 -166 q0 -188 -122 -295q-121 -106 -296 -106q-107 0 -209 42q-103 42 -187 122q-85 81 -138 216q-52 134 -52 304q0 255 133 534l529 1108h-21q-14 -14 -67 -14l-498 -1030q-302 -527 -516 -527q-101 0 -101 117q0 106 79 285q82 185 173 343q90 156 173 342q79 177 79 285 q0 119 -78 187q-77 67 -196 67q-133 0 -276 -64q-144 -64 -244 -175q-101 -112 -101 -226zM1161 1655q0 21 16 43q14 20 37 20q39 0 39 -37q0 -23 -16 -43t-39 -20q-37 0 -37 37zM1366 1655q0 22 15 43q14 20 38 20q39 0 39 -37q0 -23 -16 -43t-39 -20q-37 0 -37 37z" />
<glyph unicode="&#xdd;" horiz-adv-x="1347" d="M-772 -1108q0 118 44 221q43 100 115 177q71 76 181 141q105 63 219 110q108 45 255 90q149 46 265 75q173 44 271 70q179 48 249 68l9 4q154 262 320 596q159 319 284 566q113 223 159 266l-12 -4q-37 -47 -134 -203q-99 -159 -179 -277q-88 -130 -197 -266t-229 -216 q-122 -81 -234 -81q-110 0 -110 95q0 93 113 297q25 46 71.5 129.5t84.5 152t72 129.5q113 205 113 307q0 110 -70 167t-181 57q-171 0 -321 -114t-150 -286q0 -92 49 -137q50 -45 118 -51q201 0 287 248l15 2q-39 -134 -140 -213q-101 -78 -231 -78q-96 0 -145 57 q-50 58 -50 139q0 114 101 226q100 111 244 175q143 64 276 64q126 0 203 -68t77 -212q0 -87 -69 -235q-63 -135 -153 -281q-84 -136 -152 -269q-70 -137 -70 -194q0 -62 70 -62q117 0 262 136q140 131 273 327q106 156 254 386q127 198 241 329q117 135 198 135 q32 0 48 -21q16 -20 16 -53q0 -69 -60 -73q-5 47 -59 47q-88 0 -224 -227q-132 -221 -364 -686q-232 -466 -377 -715q296 99 420 235l115 131l8 -10l-114 -131q-175 -198 -492 -332q-160 -257 -299 -426q119 -80 119 -241q0 -90 -37 -183q-38 -94 -111 -183 q-74 -89 -173 -161q-95 -69 -237 -114q-136 -43 -292 -43q-258 0 -406 137q-147 136 -147 354zM-752 -1110q0 -209 143 -340t394 -131q179 0 328 58q148 58 241 151q94 94 144 198q51 106 51 207q0 148 -98 224q-293 -324 -557 -324q-59 0 -89 27t-30 69q0 89 81 171 q82 84 202 131q122 48 241 48q111 0 188 -41q136 165 279 396q-135 -53 -293 -98q-155 -45 -301 -82q-118 -30 -282 -77q-149 -42 -256 -91q-106 -48 -199 -116q-89 -65 -138 -162q-49 -96 -49 -218zM-209 -971q0 -80 103 -80q249 0 536 322q-70 41 -168 41q-173 0 -322 -83 t-149 -200zM1270 1591q105 51 123 209q37 8 63 8q35 0 35 -14q0 -38 -66 -115q-66 -76 -143 -94z" />
<glyph unicode="&#xde;" horiz-adv-x="1824" d="M129 195q0 73 36 114t81 41q31 0 51 -20t20 -60q0 -11 -4 -22q-41 -5 -61 -22q-21 -18 -21 -64q0 -106 97 -165q95 -58 207 -58q129 0 262 59q137 61 229 141q119 105 212 275q94 171 186 394q90 217 163 343q-109 25 -237 25q-129 0 -284 -38q-149 -36 -297 -109 q-146 -72 -240 -192q-95 -122 -95 -272q0 -135 78 -213t195 -78q152 0 258 121t106 246q0 62 -34 100q-35 39 -99 39q-91 0 -172 -68t-102 -163l-11 -4q28 117 118 184q89 66 196 66q97 0 144 -43q48 -44 48 -113q0 -133 -142 -259q-143 -126 -347 -126q-135 0 -233 82 q-99 82 -99 219q0 130 73 241q72 110 186 180q118 73 255 121q143 50 275 71q140 22 251 22q119 0 221 -16q144 241 347 348l6 -13q-148 -92 -273 -352q195 -44 288 -139q95 -97 95 -209q0 -131 -119 -222t-284 -91q-64 0 -105 10l5 12q40 -4 65 -4q150 0 242 86t92 205 q0 98 -73 188q-72 88 -218 138q-32 -68 -86 -204q-52 -132 -95 -229q-41 -92 -104 -209q-62 -114 -142 -211q-85 -102 -179 -172q-110 -83 -264 -142q-152 -58 -295 -58q-144 0 -258 78q-115 79 -115 211z" />
<glyph unicode="&#xdf;" horiz-adv-x="624" d="M-1204 -465q0 61 30 105q30 43 82 43q24 0 46 -17t22 -43q0 -14 -10 -37q-6 0 -9 1t-8 1q-37 0 -56 -26t-19 -66q0 -105 90 -162t207 -57q122 0 239 57q115 56 207 145q88 85 188 232q94 138 169 277q80 147 163 321q-44 6 -67 30q-23 25 -23 54q0 31 23 57q22 25 53 25 q46 0 76 -41l135 279q39 78 99 171q53 82 148 200q89 110 180 194q94 87 204 143q113 58 209 58q106 0 106 -84q0 -77 -54 -150q-53 -72 -137 -130q-19 -13 -81 -55.5t-98 -67.5q-91 -63 -178 -130q-84 -64 -137 -151q-54 -89 -54 -187q0 -60 10 -141t10 -115 q0 -129 -81 -210t-208 -81q-50 0 -85 32q-33 30 -33 79q0 34 21 55t46 21q45 0 45 -51q0 -29 -35 -58v-4q0 -35 15 -44t41 -9q48 0 81 16q32 15 51 39q16 21 26 62q11 48 12 68q2 40 2 77q0 186 56 333q58 153 139 244q79 89 182 175q98 82 181 136q79 52 139 118 q56 62 56 127q0 63 -63 63q-104 0 -227 -90q-124 -91 -230 -225q-105 -133 -186 -260q-77 -121 -129 -226q-114 -236 -233 -466q-93 -179 -198 -355q-98 -163 -187 -270q-78 -93 -179 -174q-96 -76 -194 -106q-96 -29 -220 -29q-183 0 -277 86q-93 85 -93 194zM68 393 q0 -57 77 -69q30 65 45 92q-27 39 -63 39q-23 0 -42 -19q-17 -17 -17 -43z" />
<glyph unicode="&#xe0;" d="M-4 63q0 117 126 264q125 146 261 146q59 0 92 -53q56 29 78 55h12q-7 -19 -54 -118q-46 -96 -82 -179q-36 -82 -36 -102q0 -49 39 -49q56 0 135 94q1 1 17 21t30 37q34 44 37 46l8 -10l-90 -113q-99 -108 -184 -108q-72 0 -72 63q0 43 25 101q-56 -84 -125 -131 q-70 -47 -135 -47q-82 0 -82 83zM86 82q0 -70 47 -70q54 0 127 71q72 71 107 134l59 129q-5 42 -34 64t-68 22q-84 0 -161 -126q-77 -127 -77 -224zM367 801q0 14 34 14q27 0 64 -8q18 -158 123 -209l-13 -6q-77 18 -143 94q-65 75 -65 115z" />
<glyph unicode="&#xe1;" d="M-4 63q0 117 126 264q125 146 261 146q59 0 92 -53q56 29 78 55h12q-7 -19 -54 -118q-46 -96 -82 -179q-36 -82 -36 -102q0 -49 39 -49q56 0 135 94q1 1 17 21t30 37q34 44 37 46l8 -10l-90 -113q-99 -108 -184 -108q-72 0 -72 63q0 43 25 101q-56 -84 -125 -131 q-70 -47 -135 -47q-82 0 -82 83zM86 82q0 -70 47 -70q54 0 127 71q72 71 107 134l59 129q-5 42 -34 64t-68 22q-84 0 -161 -126q-77 -127 -77 -224zM362 604q105 51 123 209q37 8 64 8q35 0 35 -14q0 -39 -66 -115t-143 -94z" />
<glyph unicode="&#xe2;" d="M-4 63q0 117 126 264q125 146 261 146q59 0 92 -53q56 29 78 55h12q-7 -19 -54 -118q-46 -96 -82 -179q-36 -82 -36 -102q0 -49 39 -49q56 0 135 94q1 1 17 21t30 37q34 44 37 46l8 -10l-90 -113q-99 -108 -184 -108q-72 0 -72 63q0 43 25 101q-56 -84 -125 -131 q-70 -47 -135 -47q-82 0 -82 83zM86 82q0 -70 47 -70q54 0 127 71q72 71 107 134l59 129q-5 42 -34 64t-68 22q-84 0 -161 -126q-77 -127 -77 -224zM315 655q130 51 179 150l90 -10q12 -95 82 -156l-13 -6q-107 24 -157 102q-86 -74 -168 -86z" />
<glyph unicode="&#xe3;" d="M-4 63q0 -83 82 -83q65 0 135 47q69 47 125 131q-25 -58 -25 -101q0 -63 72 -63q85 0 184 108l90 113l-8 10q-3 -2 -37 -46q-14 -17 -30 -37t-17 -21q-79 -94 -135 -94q-39 0 -39 49q0 20 36 102q36 83 82 179q47 99 54 118h-12q-22 -26 -78 -55q-33 53 -92 53 q-136 0 -261 -146q-126 -147 -126 -264zM86 82q0 97 77 224q77 126 161 126q39 0 68 -22t34 -64l-59 -129q-35 -63 -107 -134q-73 -71 -127 -71q-47 0 -47 70zM342 659q39 76 98 76q23 0 64 -12q40 -12 63 -12q46 0 76 37l12 4q-29 -101 -98 -101q-28 0 -82 20 q-51 19 -74 19q-34 0 -49 -39z" />
<glyph unicode="&#xe4;" d="M-4 63q0 -83 82 -83q65 0 135 47q69 47 125 131q-25 -58 -25 -101q0 -63 72 -63q85 0 184 108l90 113l-8 10q-3 -2 -37 -46q-14 -17 -30 -37t-17 -21q-79 -94 -135 -94q-39 0 -39 49q0 20 36 102q36 83 82 179q47 99 54 118h-12q-22 -26 -78 -55q-33 53 -92 53 q-136 0 -261 -146q-126 -147 -126 -264zM86 82q0 97 77 224q77 126 161 126q39 0 68 -22t34 -64l-59 -129q-35 -63 -107 -134q-73 -71 -127 -71q-47 0 -47 70zM346 705q0 22 15 43q14 20 38 20q39 0 39 -37q0 -23 -16 -43t-39 -20q-37 0 -37 37zM551 705q0 22 15 43 q14 20 38 20q39 0 39 -37q0 -23 -16 -43t-39 -20q-37 0 -37 37z" />
<glyph unicode="&#xe5;" d="M-4 63q0 -83 82 -83q65 0 135 47q69 47 125 131q-25 -58 -25 -101q0 -63 72 -63q85 0 184 108l90 113l-8 10q-3 -2 -37 -46q-14 -17 -30 -37t-17 -21q-79 -94 -135 -94q-39 0 -39 49q0 20 36 102q36 83 82 179q47 99 54 118h-12q-22 -26 -78 -55q-33 53 -92 53 q-136 0 -261 -146q-126 -147 -126 -264zM86 82q0 97 77 224q77 126 161 126q39 0 68 -22t34 -64l-59 -129q-35 -63 -107 -134q-73 -71 -127 -71q-47 0 -47 70zM479 692q0 28 20 56q19 26 48 26q53 0 53 -51q0 -29 -20 -55q-21 -27 -50 -27q-51 0 -51 51zM506 702 q0 -36 29 -36q18 0 28 14t10 33q0 37 -32 37q-35 -5 -35 -48z" />
<glyph unicode="&#xe6;" horiz-adv-x="802" d="M-4 66q0 114 126 261q125 146 261 146q59 0 92 -53q61 24 78 55h12q-24 -55 -39 -84q118 90 217 90q72 0 72 -57q0 -64 -79 -128q-80 -65 -191 -65q-12 0 -49 5v12q22 -2 39 -2q89 0 142 52q54 52 54 103q0 48 -45 48q-92 0 -168 -105q-76 -104 -76 -211q0 -59 36 -95 t93 -36q112 0 207 119l84 104l8 -10l-90 -113q-49 -61 -124 -97t-144 -36q-68 0 -112 36t-44 106q0 28 15 100q-59 -104 -142 -167q-81 -62 -151 -62q-82 0 -82 84zM84 82q0 -68 49 -68q55 0 133 80q79 81 109 142q5 20 10 30q10 20 18 34q13 24 23 44q-1 42 -33 66 q-29 22 -69 22q-82 0 -161 -126q-79 -125 -79 -224z" />
<glyph unicode="&#xe7;" horiz-adv-x="428" d="M2 111q0 139 137 256q135 116 244 116q70 0 70 -53q0 -30 -25 -58t-57 -28q-15 0 -31 8q27 27 27 66q0 33 -31 33q-66 0 -157 -99q-91 -98 -91 -219q0 -60 29 -98q28 -37 78 -37q91 0 208 123q2 2 18 21.5t30 36.5q10 12 19 24t13 17l4 5l9 -10l-90 -113 q-106 -128 -254 -133l-9 -16q45 -6 45 -43q0 -38 -31 -60t-71 -22q-61 0 -61 51q0 5 8 23l6 -2v-4q0 -14 20 -21q22 -8 45 -8q68 0 68 43q0 12 -14 18q-15 6 -27 6l-14 3l16 32q-59 4 -95 40t-36 102z" />
<glyph unicode="&#xe8;" horiz-adv-x="448" d="M2 111q0 121 131 246q130 124 256 124q72 0 72 -57q0 -64 -79 -128q-80 -65 -192 -65q-12 0 -49 5v12q22 -2 39 -2q90 0 143 52q54 52 54 103q0 48 -45 48q-72 0 -158 -99q-86 -100 -86 -217q0 -59 36 -95t93 -36q112 0 207 119l84 104l8 -10l-90 -113q-49 -61 -124 -97 t-144 -36q-68 0 -112 36t-44 106zM295 805q0 14 35 14q26 0 63 -8q18 -158 123 -209l-12 -6q-79 18 -144 94q-65 75 -65 115z" />
<glyph unicode="&#xe9;" horiz-adv-x="448" d="M2 111q0 121 131 246q130 124 256 124q72 0 72 -57q0 -64 -79 -128q-80 -65 -192 -65q-12 0 -49 5v12q22 -2 39 -2q90 0 143 52q54 52 54 103q0 48 -45 48q-72 0 -158 -99q-86 -100 -86 -217q0 -59 36 -95t93 -36q112 0 207 119l84 104l8 -10l-90 -113q-49 -61 -124 -97 t-144 -36q-68 0 -112 36t-44 106zM336 621q105 51 123 208q41 9 63 9q35 0 35 -15q0 -39 -65 -114q-67 -77 -144 -95z" />
<glyph unicode="&#xea;" horiz-adv-x="448" d="M2 111q0 121 131 246q130 124 256 124q72 0 72 -57q0 -64 -79 -128q-80 -65 -192 -65q-12 0 -49 5v12q22 -2 39 -2q90 0 143 52q54 52 54 103q0 48 -45 48q-72 0 -158 -99q-86 -100 -86 -217q0 -59 36 -95t93 -36q112 0 207 119l84 104l8 -10l-90 -113q-49 -61 -124 -97 t-144 -36q-68 0 -112 36t-44 106zM215 618q128 51 178 150l90 -10q12 -95 82 -156l-12 -6q-109 24 -158 102q-86 -74 -168 -86z" />
<glyph unicode="&#xeb;" horiz-adv-x="448" d="M2 111q0 121 131 246q130 124 256 124q72 0 72 -57q0 -64 -79 -128q-80 -65 -192 -65q-12 0 -49 5v12q22 -2 39 -2q90 0 143 52q54 52 54 103q0 48 -45 48q-72 0 -158 -99q-86 -100 -86 -217q0 -59 36 -95t93 -36q112 0 207 119l84 104l8 -10l-90 -113q-49 -61 -124 -97 t-144 -36q-68 0 -112 36t-44 106zM260 705q0 22 15 43q14 20 38 20q39 0 39 -37q0 -23 -16 -43t-39 -20q-37 0 -37 37zM465 705q0 22 15 43q14 20 38 20q39 0 39 -37q0 -23 -16 -43t-39 -20q-37 0 -37 37z" />
<glyph unicode="&#xec;" horiz-adv-x="294" d="M2 74q0 15 1 23q1 12 6 27l9 28q2 4 6.5 15.5t7.5 18.5q8 20 17 38q1 1 9.5 17.5t14.5 29.5q5 10 13 28.5t12 25.5q3 5 13.5 26l18.5 37q7 15 19 39.5t17 33.5q56 0 70 14h12q-1 -2 -59 -122t-85 -184q-34 -81 -34 -120t34 -39q33 0 82 34q51 36 84 77q1 1 17 21t30 37 q35 44 37 46l8 -10l-90 -113q-44 -52 -100 -87q-55 -35 -100 -35q-70 0 -70 94zM160 811q0 14 35 14q26 0 63 -8q18 -158 123 -209l-12 -6q-79 18 -144 94q-65 75 -65 115z" />
<glyph unicode="&#xed;" horiz-adv-x="294" d="M2 74q0 15 1 23q1 12 6 27l9 28q2 4 6.5 15.5t7.5 18.5q8 20 17 38q1 1 9.5 17.5t14.5 29.5q5 10 13 28.5t12 25.5q3 5 13.5 26l18.5 37q7 15 19 39.5t17 33.5q56 0 70 14h12q-1 -2 -59 -122t-85 -184q-34 -81 -34 -120t34 -39q33 0 82 34q51 36 84 77q1 1 17 21t30 37 q35 44 37 46l8 -10l-90 -113q-44 -52 -100 -87q-55 -35 -100 -35q-70 0 -70 94zM209 641q105 51 123 209q37 8 63 8q35 0 35 -14q0 -40 -65 -115q-65 -76 -144 -94z" />
<glyph unicode="&#xee;" horiz-adv-x="294" d="M2 74q0 15 1 23q1 12 6 27l9 28q2 4 6.5 15.5t7.5 18.5q8 20 17 38q1 1 9.5 17.5t14.5 29.5q5 10 13 28.5t12 25.5q3 5 13.5 26l18.5 37q7 15 19 39.5t17 33.5q56 0 70 14h12q-1 -2 -59 -122t-85 -184q-34 -81 -34 -120t34 -39q33 0 82 34q51 36 84 77q1 1 17 21t30 37 q35 44 37 46l8 -10l-90 -113q-44 -52 -100 -87q-55 -35 -100 -35q-70 0 -70 94zM104 623q130 51 179 149l90 -10q12 -95 82 -156l-13 -6q-107 24 -157 102q-86 -74 -168 -86z" />
<glyph unicode="&#xef;" horiz-adv-x="294" d="M2 74q0 -94 70 -94q45 0 100 35q56 35 100 87l90 113l-8 10q-2 -2 -37 -46q-14 -17 -30 -37t-17 -21q-33 -41 -84 -77q-49 -34 -82 -34q-34 0 -34 39t34 120q27 64 85 184t59 122h-12q-14 -14 -70 -14q-5 -9 -17 -33.5t-19 -39.5l-18.5 -37t-13.5 -26q-4 -7 -12 -25.5 t-13 -28.5q-6 -13 -14.5 -29.5t-9.5 -17.5q-9 -18 -17 -38q-3 -7 -7.5 -18.5t-6.5 -15.5l-9 -28q-5 -15 -6 -27q-1 -8 -1 -23zM143 705q0 21 16 43q14 20 38 20q39 0 39 -37q0 -21 -17 -43q-16 -20 -39 -20q-37 0 -37 37zM348 705q0 21 16 43q14 20 37 20q39 0 39 -37 q0 -23 -16 -43t-39 -20q-37 0 -37 37z" />
<glyph unicode="&#xf0;" horiz-adv-x="512" d="M4 94q0 108 105 229q105 122 253 156l13 -12q-132 -38 -209 -137q-78 -100 -78 -195q0 -110 82 -110q117 0 186 137q70 138 70 319q0 130 -41 242l-145 -74l-4 13l145 73q-74 193 -205 193q-44 0 -88 -23l-2 13q82 43 152 43q152 0 215 -189l90 45l4 -12l-90 -45 q26 -92 26 -209q0 -219 -104 -393q-105 -176 -268 -176q-48 0 -77 28q-30 28 -30 84z" />
<glyph unicode="&#xf1;" horiz-adv-x="569" d="M-51 2l221 459q56 0 70 14h12l-94 -215q195 229 291 229q69 0 69 -57q0 -50 -74 -187q-73 -136 -73 -169q0 -49 39 -49q56 0 135 94q1 1 17 21t30 37q34 44 37 46l8 -10l-90 -113q-99 -108 -185 -108q-73 0 -73 61q0 40 75 184q74 142 74 187q0 37 -22 37 q-58 0 -283 -252l-100 -209h-84zM287 659q39 76 98 76q21 0 64 -12t63 -12q46 0 76 37l12 4q-29 -101 -98 -101q-28 0 -82 20q-51 19 -74 19q-34 0 -49 -39z" />
<glyph unicode="&#xf2;" horiz-adv-x="493" d="M-2 84q0 85 77 192q77 108 193 164l11 -14q-91 -53 -141 -136t-50 -159q0 -121 80 -121q73 0 149 94t76 211q0 83 -71 121q0 27 17 41q18 15 42 15q36 0 66 -30t30 -85q0 -126 -110 -260q-111 -135 -256 -135q-113 0 -113 102zM285 795q0 14 34 14q27 0 64 -8 q18 -158 123 -209l-12 -6q-79 18 -144 94q-65 75 -65 115z" />
<glyph unicode="&#xf3;" horiz-adv-x="493" d="M-2 84q0 85 77 192q77 108 193 164l11 -14q-91 -53 -141 -136t-50 -159q0 -121 80 -121q73 0 149 94t76 211q0 83 -71 121q0 27 17 41q18 15 42 15q36 0 66 -30t30 -85q0 -126 -110 -260q-111 -135 -256 -135q-113 0 -113 102zM311 604q105 51 123 209q37 8 64 8 q34 0 34 -14q0 -40 -65 -115q-66 -76 -143 -94z" />
<glyph unicode="&#xf4;" horiz-adv-x="493" d="M-2 84q0 85 77 192q77 108 193 164l11 -14q-91 -53 -141 -136t-50 -159q0 -121 80 -121q73 0 149 94t76 211q0 83 -71 121q0 27 17 41q18 15 42 15q36 0 66 -30t30 -85q0 -126 -110 -260q-111 -135 -256 -135q-113 0 -113 102zM213 623q129 51 178 149l90 -10 q12 -95 82 -156l-12 -6q-109 24 -158 102q-86 -74 -168 -86z" />
<glyph unicode="&#xf5;" horiz-adv-x="493" d="M-2 84q0 -102 113 -102q145 0 256 135q110 134 110 260q0 55 -30 85t-66 30q-24 0 -42 -15q-17 -14 -17 -41q71 -38 71 -121q0 -117 -76 -211t-149 -94q-80 0 -80 121q0 76 50 159t141 136l-11 14q-116 -56 -193 -164q-77 -107 -77 -192zM301 659q39 76 98 76 q24 0 64 -12q41 -12 63 -12q46 0 76 37l12 4q-29 -101 -98 -101q-28 0 -82 20q-51 19 -74 19q-34 0 -49 -39z" />
<glyph unicode="&#xf6;" horiz-adv-x="493" d="M-2 84q0 -102 113 -102q145 0 256 135q110 134 110 260q0 55 -30 85t-66 30q-24 0 -42 -15q-17 -14 -17 -41q71 -38 71 -121q0 -117 -76 -211t-149 -94q-80 0 -80 121q0 76 50 159t141 136l-11 14q-116 -56 -193 -164q-77 -107 -77 -192zM301 705q0 22 15 43q14 20 38 20 q39 0 39 -37q0 -23 -16 -43t-39 -20q-37 0 -37 37zM506 705q0 22 15 43q14 20 38 20q39 0 39 -37q0 -23 -16 -43t-39 -20q-37 0 -37 37z" />
<glyph unicode="&#xf7;" horiz-adv-x="659" d="M158 403l600 3l8 16q-165 0 -311 -0.5t-214 -1t-75 -0.5zM326 209q0 22 15 43q14 20 38 20q39 0 39 -36q0 -21 -17 -43q-17 -21 -39 -21q-36 0 -36 37zM496 571q0 22 15 43t38 21q39 0 39 -37q0 -21 -17 -43q-16 -20 -39 -20q-36 0 -36 36z" />
<glyph unicode="&#xf8;" horiz-adv-x="493" d="M-2 84q0 85 77 192q77 108 193 164l11 -14q-91 -53 -141 -136t-50 -159q0 -60 21 -90l256 360q-17 18 -43 35q0 27 17 41q18 15 42 15q17 0 39 -11l53 76l12 -8l-53 -76q45 -35 45 -96q0 -126 -110 -260q-111 -135 -256 -135q-8 0 -13 1t-12 1l-61 -88l-13 8l58 84 q-72 16 -72 96zM119 29q19 -19 49 -19q73 0 149 94t76 211q0 47 -20 74z" />
<glyph unicode="&#xf9;" horiz-adv-x="602" d="M2 74q0 15 1 23q1 12 6 27l9 28q2 4 6.5 15.5t7.5 18.5q8 20 17 38q1 1 9.5 17.5t14.5 29.5q5 10 13 28.5t12 25.5q3 5 13.5 26l18.5 37q7 15 19 39.5t17 33.5q56 0 70 14h12q-4 -12 -55 -120q-47 -99 -84 -183q-37 -83 -37 -104q0 -56 37 -56q34 0 84 40q52 41 88 83 q14 15 79 101l113 225q56 0 70 14h12q-3 -9 -58 -122q-58 -120 -85 -184q-35 -84 -35 -120q0 -39 35 -39q33 0 82 34q51 36 84 77q1 1 17 21t30 37q35 44 37 46l8 -10l-90 -113q-43 -50 -101 -87q-55 -35 -100 -35q-70 0 -70 94q0 43 29 110q-3 -4 -10.5 -12.5t-11.5 -13.5 q-14 -16 -21 -27q-5 -7 -12 -14q-45 -53 -107 -92t-106 -39q-68 0 -68 88zM266 809q0 14 35 14q27 0 64 -8q18 -159 122 -209l-12 -6q-77 18 -143 94t-66 115z" />
<glyph unicode="&#xfa;" horiz-adv-x="602" d="M2 74q0 15 1 23q1 12 6 27l9 28q2 4 6.5 15.5t7.5 18.5q8 20 17 38q1 1 9.5 17.5t14.5 29.5q5 10 13 28.5t12 25.5q3 5 13.5 26l18.5 37q7 15 19 39.5t17 33.5q56 0 70 14h12q-4 -12 -55 -120q-47 -99 -84 -183q-37 -83 -37 -104q0 -56 37 -56q34 0 84 40q52 41 88 83 q14 15 79 101l113 225q56 0 70 14h12q-3 -9 -58 -122q-58 -120 -85 -184q-35 -84 -35 -120q0 -39 35 -39q33 0 82 34q51 36 84 77q1 1 17 21t30 37q35 44 37 46l8 -10l-90 -113q-43 -50 -101 -87q-55 -35 -100 -35q-70 0 -70 94q0 43 29 110q-3 -4 -10.5 -12.5t-11.5 -13.5 q-14 -16 -21 -27q-5 -7 -12 -14q-45 -53 -107 -92t-106 -39q-68 0 -68 88zM352 612q105 51 123 209q37 8 64 8q34 0 34 -14q0 -40 -65 -115q-66 -76 -143 -94z" />
<glyph unicode="&#xfb;" horiz-adv-x="602" d="M2 74q0 15 1 23q1 12 6 27l9 28q2 4 6.5 15.5t7.5 18.5q8 20 17 38q1 1 9.5 17.5t14.5 29.5q5 10 13 28.5t12 25.5q3 5 13.5 26l18.5 37q7 15 19 39.5t17 33.5q56 0 70 14h12q-4 -12 -55 -120q-47 -99 -84 -183q-37 -83 -37 -104q0 -56 37 -56q34 0 84 40q52 41 88 83 q14 15 79 101l113 225q56 0 70 14h12q-3 -9 -58 -122q-58 -120 -85 -184q-35 -84 -35 -120q0 -39 35 -39q33 0 82 34q51 36 84 77q1 1 17 21t30 37q35 44 37 46l8 -10l-90 -113q-43 -50 -101 -87q-55 -35 -100 -35q-70 0 -70 94q0 43 29 110q-3 -4 -10.5 -12.5t-11.5 -13.5 q-14 -16 -21 -27q-5 -7 -12 -14q-45 -53 -107 -92t-106 -39q-68 0 -68 88zM248 655q128 51 178 150l90 -10q12 -95 82 -156l-12 -6q-109 24 -158 102q-86 -74 -168 -86z" />
<glyph unicode="&#xfc;" horiz-adv-x="602" d="M2 74q0 -88 68 -88q44 0 106 39t107 92q7 7 12 14q7 11 21 27q4 5 11.5 13.5t10.5 12.5q-29 -67 -29 -110q0 -94 70 -94q45 0 100 35q58 37 101 87l90 113l-8 10q-2 -2 -37 -46q-14 -17 -30 -37t-17 -21q-33 -41 -84 -77q-49 -34 -82 -34q-35 0 -35 39q0 36 35 120 q27 64 85 184q55 113 58 122h-12q-14 -14 -70 -14l-113 -225q-65 -86 -79 -101q-36 -42 -88 -83q-50 -40 -84 -40q-37 0 -37 56q0 21 37 104q37 84 84 183q51 108 55 120h-12q-14 -14 -70 -14q-5 -9 -17 -33.5t-19 -39.5l-18.5 -37t-13.5 -26q-4 -7 -12 -25.5t-13 -28.5 q-6 -13 -14.5 -29.5t-9.5 -17.5q-9 -18 -17 -38q-3 -7 -7.5 -18.5t-6.5 -15.5l-9 -28q-5 -15 -6 -27q-1 -8 -1 -23zM272 705q0 21 16 43q14 20 38 20q39 0 39 -37q0 -21 -17 -43q-16 -20 -39 -20q-37 0 -37 37zM477 705q0 21 16 43q14 20 37 20q39 0 39 -37q0 -23 -16 -43 t-39 -20q-37 0 -37 37z" />
<glyph unicode="&#xfd;" horiz-adv-x="542" d="M-1423 -764q0 93 63 192q62 97 176 184q111 84 289 139q175 54 379 54q360 0 561 -174q90 125 150 252l141 299q-40 -52 -53 -65q-45 -53 -107 -92t-106 -39q-68 0 -68 88q0 15 1 23q1 12 6 27l9 28q2 4 6.5 15.5t7.5 18.5q8 20 17 38q1 1 9.5 17.5t14.5 29.5 q5 10 13 28.5t12 25.5q3 5 13.5 26l18.5 37q7 15 19 39.5t17 33.5q56 0 70 14h12q-4 -12 -55 -120q-47 -99 -84 -183q-37 -83 -37 -104q0 -56 37 -56q34 0 84 40q52 41 88 83q24 30 47 59q34 44 37 46l104 221q56 0 70 14h12l-293 -616q-74 -150 -166 -275q59 -65 88 -145 q384 362 826 362q251 0 370 -95t119 -232q0 -157 -110 -285q-108 -126 -263 -188q-154 -62 -307 -62q-148 0 -247 67q-97 66 -97 193q0 102 98 185q99 84 240 84q71 0 106 -29t35 -72q0 -39 -28 -70q-29 -32 -70 -32q-36 0 -53 23q-19 25 -19 53q18 -5 27 -5q29 0 48 21 q20 22 20 45q0 49 -66 49q-136 0 -228 -79q-94 -80 -94 -173q0 -115 93 -178q91 -61 233 -61q139 0 273 54q135 55 231 170t96 265q0 135 -106 234q-105 98 -320 98q-219 0 -425 -102q-207 -103 -374 -261q23 -74 23 -149q0 -160 -91 -287t-206 -127q-59 0 -59 68 q0 79 77 211q77 131 207 266q-21 82 -71 147q-204 -264 -491 -421q-285 -156 -601 -156q-196 0 -298 75q-101 74 -101 191zM-1391 -762q0 -109 93 -179q92 -69 272 -69q288 0 568 170q279 170 481 439q-96 93 -241 140q-147 48 -312 48q-195 0 -360 -52q-169 -53 -273 -134 q-106 -82 -167 -178t-61 -185zM-133 -1077q0 -47 41 -47q90 0 169 124t79 275q0 47 -11 100q-124 -128 -201 -257q-77 -128 -77 -195zM367 608q104 50 122 209q37 8 64 8q35 0 35 -14q0 -39 -66 -115t-143 -94z" />
<glyph unicode="&#xfe;" horiz-adv-x="540" d="M-401 -735l923 1925l72 14l-424 -895q45 54 101 86q59 33 112 33q102 0 102 -121q0 -51 -16 -102q123 -15 123 -92h-12q0 33 -33 54q-35 22 -82 28q-38 -100 -122 -162q-87 -64 -155 -64q-29 0 -48 17q-17 16 -17 43q0 74 85 123t191 55q4 29 4 47q0 125 -84 125 q-43 0 -93 -38q-49 -37 -87 -101l-461 -975h-79zM182 33q0 -43 41 -43q44 0 101 60q56 59 73 145q-87 -6 -151 -50t-64 -112z" />
<glyph unicode="&#xff;" horiz-adv-x="542" d="M-1423 -764q0 -117 101 -191q102 -75 298 -75q316 0 601 156q287 157 491 421q50 -65 71 -147q-130 -135 -207 -266q-77 -132 -77 -211q0 -68 59 -68q115 0 206 127t91 287q0 75 -23 149q167 158 374 261q206 102 425 102q215 0 320 -98q106 -99 106 -234 q0 -149 -96 -265q-96 -115 -231 -170q-134 -54 -273 -54q-142 0 -233 61q-93 63 -93 178q0 93 94 173q92 79 228 79q65 0 65 -49q0 -25 -19 -45q-19 -21 -48 -21q-9 0 -27 5q0 -28 19 -53q17 -23 53 -23q41 0 70 32q28 31 28 70q0 43 -35 72t-106 29q-141 0 -240 -84 q-98 -83 -98 -185q0 -127 97 -193q99 -67 247 -67q153 0 307 62q155 62 263 188q110 128 110 285q0 137 -119 232t-370 95q-442 0 -826 -362q-29 80 -88 145q92 125 166 275l293 616h-12q-14 -14 -70 -14l-104 -221q-3 -2 -37 -46q-23 -29 -47 -59q-36 -42 -88 -83 q-50 -40 -84 -40q-37 0 -37 56q0 21 37 104q37 84 84 183q51 108 55 120h-12q-14 -14 -70 -14q-5 -9 -17 -33.5t-19 -39.5l-18.5 -37t-13.5 -26q-4 -7 -12 -25.5t-13 -28.5q-6 -13 -14.5 -29.5t-9.5 -17.5q-9 -18 -17 -38q-3 -7 -7.5 -18.5t-6.5 -15.5l-9 -28q-5 -15 -6 -27 q-1 -8 -1 -23q0 -88 68 -88q44 0 106 39t107 92q13 13 53 65l-141 -299q-60 -127 -150 -252q-201 174 -561 174q-204 0 -379 -54q-178 -55 -289 -139q-114 -87 -176 -184q-63 -99 -63 -192zM-1391 -762q0 89 61 185t167 178q104 81 273 134q165 52 360 52q165 0 312 -48 q145 -47 241 -140q-202 -269 -481 -439q-280 -170 -568 -170q-180 0 -272 69q-93 70 -93 179zM-133 -1077q0 67 77 195q77 129 201 257q11 -53 11 -100q0 -151 -79 -275t-169 -124q-41 0 -41 47zM311 705q0 21 16 43q14 20 38 20q38 0 38 -37q0 -23 -16 -43t-39 -20 q-37 0 -37 37zM516 705q0 22 15 43q14 20 38 20q39 0 39 -37q0 -23 -16 -43t-39 -20q-37 0 -37 37z" />
<glyph unicode="&#x152;" horiz-adv-x="1894" d="M0 322q0 165 76 362q78 202 208 391q133 193 336 359q204 167 439 252l4 -17q-202 -68 -387 -233q-178 -159 -300 -361q-119 -197 -186 -400q-67 -202 -67 -366q0 -141 53 -224t158 -83q119 0 244 67q120 64 226 175q102 106 192 247q94 147 153 284q63 146 96 284 q-196 21 -317 89q-123 69 -123 177q0 106 98 192q99 87 227 87q111 0 182 -77q70 -76 70 -233q0 -100 -32 -227q11 0 22 -1t23 -1q12 180 201 345t393 165q94 0 143 -37t49 -98q0 -129 -189 -252t-511 -135v-29q0 -46 24 -96q49 12 97 12q52 0 82 -20q32 -21 32 -45 q0 -48 -84 -48q-116 0 -184 70q-152 -69 -275 -266q-122 -195 -122 -355q0 -147 86 -224t213 -77q155 0 277 107t122 283q0 62 -47 121t-113 59q-84 0 -147 -85q-64 -87 -64 -175v-6l-14 -3q0 124 92 219t209 95q79 0 123 -51q43 -50 43 -133q0 -199 -178 -340 q-180 -142 -377 -142q-137 0 -225 82t-88 246q0 61 14 113q-337 -400 -672 -400q-151 0 -228 96q-77 97 -77 261zM868 1356q0 -111 105 -180q107 -71 276 -97q29 124 29 215q0 133 -57 199t-144 66q-88 0 -149 -61q-60 -60 -60 -142zM1249 795q93 77 191 112q-45 55 -45 140 v4h-49q-33 -121 -97 -256zM1483 1065q282 7 455 125q173 117 173 235q0 54 -41 85q-43 32 -120 32q-156 0 -304 -129t-163 -348zM1511 920q49 -82 123 -82q39 0 39 24q0 22 -32 43q-31 21 -78 21q-28 0 -52 -6z" />
<glyph unicode="&#x153;" horiz-adv-x="788" d="M-2 84q0 85 77 192q77 108 193 164l11 -14q-91 -53 -141 -136t-50 -159q0 -121 80 -121q73 0 149 94t76 211q0 83 -71 121q0 27 17 41q18 15 42 15q36 0 66 -30t30 -85q0 -18 -4 -39q139 143 277 143q71 0 71 -57q0 -64 -79 -128q-80 -65 -193 -65q-10 0 -47 5v12 q22 -2 39 -2q89 0 142 52q54 52 54 103q0 48 -45 48q-72 0 -162 -99t-90 -217q0 -59 31 -98q30 -37 82 -37q94 0 211 123q1 1 17 21t30 37q35 44 37 46l8 -10l-90 -113q-49 -61 -121 -97t-137 -36q-66 0 -106 36t-40 106q-114 -129 -251 -129q-113 0 -113 102z" />
<glyph unicode="&#x178;" horiz-adv-x="1347" d="M-772 -1108q0 118 44 221q43 100 115 177q71 76 181 141q105 63 219 110q108 45 255 90q149 46 265 75q173 44 271 70q179 48 249 68l9 4q154 262 320 596q159 319 284 566q113 223 159 266l-12 -4q-37 -47 -134 -203q-99 -159 -179 -277q-88 -130 -197 -266t-229 -216 q-122 -81 -234 -81q-110 0 -110 95q0 93 113 297q25 46 71.5 129.5t84.5 152t72 129.5q113 205 113 307q0 110 -70 167t-181 57q-171 0 -321 -114t-150 -286q0 -92 49 -137q50 -45 118 -51q201 0 287 248l15 2q-39 -134 -140 -213q-101 -78 -231 -78q-96 0 -145 57 q-50 58 -50 139q0 114 101 226q100 111 244 175q143 64 276 64q126 0 203 -68t77 -212q0 -87 -69 -235q-63 -135 -153 -281q-84 -136 -152 -269q-70 -137 -70 -194q0 -62 70 -62q117 0 262 136q140 131 273 327q106 156 254 386q127 198 241 329q117 135 198 135 q32 0 48 -21q16 -20 16 -53q0 -69 -60 -73q-5 47 -59 47q-88 0 -224 -227q-132 -221 -364 -686q-232 -466 -377 -715q296 99 420 235l115 131l8 -10l-114 -131q-175 -198 -492 -332q-160 -257 -299 -426q119 -80 119 -241q0 -90 -37 -183q-38 -94 -111 -183 q-74 -89 -173 -161q-95 -69 -237 -114q-136 -43 -292 -43q-258 0 -406 137q-147 136 -147 354zM-752 -1110q0 -209 143 -340t394 -131q179 0 328 58q148 58 241 151q94 94 144 198q51 106 51 207q0 148 -98 224q-293 -324 -557 -324q-59 0 -89 27t-30 69q0 89 81 171 q82 84 202 131q122 48 241 48q111 0 188 -41q136 165 279 396q-135 -53 -293 -98q-155 -45 -301 -82q-118 -30 -282 -77q-149 -42 -256 -91q-106 -48 -199 -116q-89 -65 -138 -162q-49 -96 -49 -218zM-209 -971q0 -80 103 -80q249 0 536 322q-70 41 -168 41q-173 0 -322 -83 t-149 -200zM1235 1640q0 22 15 43t38 21q39 0 39 -37q0 -23 -16 -43t-39 -20q-37 0 -37 36zM1440 1640q0 22 15 43t38 21q39 0 39 -37q0 -23 -16 -43t-39 -20q-37 0 -37 36z" />
<glyph unicode="&#x2c6;" d="M315 655q130 51 179 150l90 -10q12 -95 82 -156l-13 -6q-107 24 -157 102q-86 -74 -168 -86z" />
<glyph unicode="&#x2dc;" d="M295 727q39 76 98 76q21 0 64 -12q47 -13 63 -13q46 0 76 37l12 4q-28 -100 -98 -100q-31 0 -82 19q-54 20 -74 20q-34 0 -49 -39z" />
<glyph unicode="&#x2000;" horiz-adv-x="978" />
<glyph unicode="&#x2001;" horiz-adv-x="1956" />
<glyph unicode="&#x2002;" horiz-adv-x="978" />
<glyph unicode="&#x2003;" horiz-adv-x="1956" />
<glyph unicode="&#x2004;" horiz-adv-x="652" />
<glyph unicode="&#x2005;" horiz-adv-x="489" />
<glyph unicode="&#x2006;" horiz-adv-x="326" />
<glyph unicode="&#x2007;" horiz-adv-x="326" />
<glyph unicode="&#x2008;" horiz-adv-x="244" />
<glyph unicode="&#x2009;" horiz-adv-x="391" />
<glyph unicode="&#x200a;" horiz-adv-x="108" />
<glyph unicode="&#x2010;" horiz-adv-x="745" d="M152 268q68 74 143 74q51 0 140 -47t132 -47q52 0 101 49l12 -12q-89 -74 -168 -74q-56 0 -141 44t-121 44q-46 0 -86 -39z" />
<glyph unicode="&#x2011;" horiz-adv-x="745" d="M152 268q68 74 143 74q51 0 140 -47t132 -47q52 0 101 49l12 -12q-89 -74 -168 -74q-56 0 -141 44t-121 44q-46 0 -86 -39z" />
<glyph unicode="&#x2012;" horiz-adv-x="745" d="M152 268q68 74 143 74q51 0 140 -47t132 -47q52 0 101 49l12 -12q-89 -74 -168 -74q-56 0 -141 44t-121 44q-46 0 -86 -39z" />
<glyph unicode="&#x2013;" horiz-adv-x="638" d="M150 215l8 16l383 2l-9 -16q-101 0 -193 -0.5t-136.5 -1t-52.5 -0.5z" />
<glyph unicode="&#x2014;" horiz-adv-x="923" d="M150 215l8 16l667 2l-8 -16q-176 0 -337 -0.5t-238.5 -1t-91.5 -0.5z" />
<glyph unicode="&#x2018;" horiz-adv-x="364" d="M414 913q0 42 51 96t145 91l2 -10q-135 -63 -135 -127q0 -18 29 -29q0 -21 -16 -43q-15 -21 -37 -21q-39 0 -39 43z" />
<glyph unicode="&#x2019;" horiz-adv-x="364" d="M352 881q135 63 135 127q0 18 -28 28q0 22 15 43t38 21q39 0 39 -43q0 -41 -51 -95t-146 -92z" />
<glyph unicode="&#x201a;" horiz-adv-x="307" d="M-23 -127q136 63 136 127q0 18 -29 29q0 22 15 43q14 20 38 20q39 0 39 -43q0 -41 -51 -95t-145 -91z" />
<glyph unicode="&#x201c;" horiz-adv-x="516" d="M414 913q0 42 51 96t145 91l2 -10q-135 -63 -135 -127q0 -18 29 -29q0 -21 -16 -43q-15 -21 -37 -21q-39 0 -39 43zM565 913q0 42 51 96q50 53 146 91l2 -10q-135 -63 -135 -127q0 -19 28 -29q0 -22 -15 -43t-38 -21q-39 0 -39 43z" />
<glyph unicode="&#x201d;" horiz-adv-x="516" d="M352 881q135 63 135 127q0 18 -28 28q0 22 15 43t38 21q39 0 39 -43q0 -41 -51 -95t-146 -92zM504 881q135 63 135 127q0 17 -29 28q0 21 16 43q15 21 38 21q38 0 38 -43q0 -41 -51 -95q-52 -55 -145 -92z" />
<glyph unicode="&#x201e;" horiz-adv-x="462" d="M-18 -127q135 63 135 127q0 18 -29 29q0 22 15 43q14 20 38 20q39 0 39 -43q0 -41 -51 -95t-145 -91zM133 -127q135 63 135 127q0 19 -28 29q0 22 15 43q14 20 38 20q39 0 39 -43q0 -41 -51 -95q-50 -53 -146 -91z" />
<glyph unicode="&#x2022;" horiz-adv-x="389" d="M186 252q0 34 24 64t56 30q58 0 58 -55q0 -34 -25 -65q-23 -29 -57 -29q-56 0 -56 55z" />
<glyph unicode="&#x2026;" horiz-adv-x="921" d="M84 29q0 22 15 43q14 20 38 20q39 0 39 -37q0 -23 -16 -43t-39 -20q-37 0 -37 37zM391 29q0 21 16 43q14 20 37 20q39 0 39 -37q0 -23 -16 -43t-39 -20q-37 0 -37 37zM698 29q0 21 16 43q14 20 38 20q39 0 39 -37q0 -21 -17 -43q-16 -20 -39 -20q-37 0 -37 37z" />
<glyph unicode="&#x202f;" horiz-adv-x="391" />
<glyph unicode="&#x2039;" horiz-adv-x="692" d="M172 244l8 14q178 30 316 80q136 49 163 84q11 -13 11 -31q0 -59 -143 -95q-140 -35 -308 -52q76 -28 180 -85q105 -58 164 -112q21 -18 21 -45l-11 -39q-25 35 -124 104q-101 71 -189 123z" />
<glyph unicode="&#x203a;" horiz-adv-x="692" d="M94 -6q0 57 143 93q139 35 306 52q-238 99 -342 199q-21 18 -21 45l10 39q24 -33 125 -104q101 -70 189 -123l88 -54l-8 -14q-178 -30 -316 -80q-137 -50 -164 -84q-10 11 -10 31z" />
<glyph unicode="&#x205f;" horiz-adv-x="489" />
<glyph unicode="&#x20ac;" horiz-adv-x="555" d="M92 197q0 99 43 215h-37l2 12h39l29 72h-35l2 12h39q89 188 226 317q139 131 288 131q78 0 112 -33q36 -35 36 -81q0 -34 -20 -62q-19 -26 -48 -26q-26 0 -41 15q-14 14 -14 36q0 21 12 33h12q49 0 49 34q0 29 -22 50q-21 20 -53 20q-101 0 -246 -124t-223 -310h299 l-2 -12h-301q-19 -44 -25 -72h293l-2 -12h-295q-29 -107 -29 -213q0 -185 123 -185q77 0 161 70q82 69 93 139l16 -6q-29 -108 -115 -173q-88 -67 -182 -67q-79 0 -132 56q-52 55 -52 164z" />
<glyph unicode="&#x2122;" horiz-adv-x="811" d="M139 379l6 10q18 0 34 4q22 5 26 8l8 2l119 250h-17q-65 0 -110 -69h-4l39 80h243l-39 -80h-4q6 23 6 37q0 32 -45 32h-22l-119 -252q8 -12 51 -12l-6 -10h-166zM362 379l5 10q19 0 35 4q22 5 26 8l8 2l115 240q1 6 -13 9t-42 3l2 9h108l-22 -209l172 209h102l-6 -13 q-22 0 -34 -4q-14 -5 -17 -8l-4 -2l-113 -236q2 -12 45 -12l-6 -10h-154l6 10q19 0 32 4q19 6 22 8l6 2l115 240l-218 -264l29 262l-112 -240q0 -12 40 -12l-6 -10h-121z" />
<glyph unicode="&#x25fc;" horiz-adv-x="481" d="M0 0v481h481v-481h-481z" />
<glyph unicode="&#xfb01;" horiz-adv-x="624" d="M-1204 -465q0 61 30 105q30 43 82 43q24 0 46 -17t22 -43q0 -14 -10 -37q-6 0 -9 1t-8 1q-37 0 -56 -26t-19 -66q0 -105 90 -162t207 -57q123 0 239 58t207 146q88 85 188 232q99 145 168 276q85 161 164 320q-90 15 -90 84q0 31 23 57q22 25 53 25q47 0 76 -39l135 277 q124 249 276 428q155 184 317 291q157 104 314 158q152 52 299 52q220 0 361 -108t141 -283q0 -171 -174 -317q-175 -146 -410 -146q-105 0 -215 37l12 13q103 -35 203 -35q212 0 349 141q137 142 137 313q0 159 -120 262q-119 103 -296 103q-661 0 -1139 -979l-156 -317 q84 12 154 56q69 44 102 93h76q-4 -12 -55 -120q-46 -99 -84 -183q-37 -83 -37 -104q0 -64 45 -64q35 0 86 36q50 35 88 81q1 1 17 21t30 37q35 44 37 46l8 -10l-90 -113q-45 -53 -105 -87q-61 -35 -110 -35q-76 0 -76 94q0 41 29 110q26 61 115 238q-96 -95 -238 -113 q-303 -599 -526 -826q-223 -228 -533 -228q-183 0 -277 86q-93 85 -93 194zM68 393q0 -59 75 -69q3 7 21 43q16 33 24 51q-22 37 -61 37q-23 0 -42 -19q-17 -17 -17 -43zM602 731q0 22 15 43t38 21q39 0 39 -37q0 -23 -16 -43q-16 -21 -39 -21q-37 0 -37 37z" />
<glyph unicode="&#xfb02;" horiz-adv-x="651" d="M-1206 -465q0 61 30 105q30 43 82 43q24 0 46 -17t22 -43q0 -14 -10 -37q-5 0 -8 1t-9 1q-37 0 -56 -26t-19 -66q0 -104 91 -161q90 -56 210 -56q123 0 238 57q114 56 206 145q88 85 188 232q99 145 168 276q85 161 164 320q-88 15 -88 84q0 33 22 58q21 24 52 24 q47 0 76 -39l135 277q124 249 276 428q155 184 317 291q157 104 314 158q152 52 299 52q220 0 361 -108t141 -283q0 -171 -174 -317q-175 -146 -410 -146q-105 0 -215 37l12 13q103 -35 203 -35q212 0 349 141q137 142 137 313q0 159 -120 262q-119 103 -296 103 q-661 0 -1139 -979l-156 -317q40 6 95 24l6 -12q-55 -21 -109 -27q-302 -600 -525 -827q-225 -229 -534 -229q-185 0 -279 86q-93 85 -93 194zM68 393q0 -59 75 -69q3 7 21 43q16 33 24 51q-22 37 -61 37q-23 0 -42 -19q-17 -17 -17 -43zM358 74q0 10 6 42q4 20 17 53 q4 9 7.5 18t7.5 17.5t5 12.5q7 16 26 53q15 29 22 45q29 75 152 306q90 168 169 309q202 371 576 483l8 -14q-335 -95 -537 -490q-180 -359 -295 -608q-2 -3 -10 -20.5t-15 -32.5q-8 -16 -19.5 -41t-13.5 -29q-15 -32 -26 -66q-12 -37 -12 -63q0 -39 35 -39q33 0 82 34 q51 36 84 77q1 1 17 21t30 37q34 44 37 46l8 -10l-90 -113q-43 -50 -101 -87q-55 -35 -100 -35q-70 0 -70 94z" />
</font>
</defs>
</svg>
